<?xml version="1.0" encoding="utf-8"?>
<!-- Generator: Adobe Illustrator 26.5.1, SVG Export Plug-In . SVG Version: 6.00 Build 0)  -->
<svg version="1.1" id="Layer_1" xmlns="http://www.w3.org/2000/svg" xmlns:xlink="http://www.w3.org/1999/xlink" x="0px" y="0px"
	 viewBox="0 0 2822.4 2785" style="enable-background:new 0 0 2822.4 2785;" xml:space="preserve">
<style type="text/css">
	.st0{fill:#FFFFFF;}
</style>
<path class="st0" d="M524.7,1864.8c0.2-8.3,0.8-23.3,1-38.1c1.1-57.8,3-115.5,2.7-173.3c-0.6-89.9-3.3-179.8-3.3-269.6
	c0-7.8,13.3-21.1,21.9-22.5c50.4-8.3,101.1-14.6,151.9-20c51.6-5.4,103.4-8.8,154.6-13c5.8,8.4,11.3,16.2,16.6,24
	c4.9-7.1,9-14.8,14.9-21c4.4-4.6,11.2-7.2,17.7-11c4.8,7.3,7.4,14.5,12.5,18.2c4.8,3.4,17.6,4.6,17.7,4.3
	c7-26.3,30.4-17.4,46.3-19.9c21.2-3.3,43.6-2.7,64.8,0.7c13.2,2.1,25,12.6,36.9,19c25.4-24.6,29.1-24.2,37,2.6
	c-33.9,16.1-36.2,22.9-13.2,40.2c-11.5,3.4-22.4,6.6-33.6,9.8c11.7,23.3,27.2,27.9,46.4,10.6c12.1-10.8,24.4-27.3,26-42.4
	c2.8-27.5,19.8-38.1,40.8-41.4c21.2-3.4,43.9-1.5,65.3,2c19.9,3.3,32.1,16,27.6,39.4c-1.8,9.3-1.9,19.8,0.8,28.7
	c2.4,7.9,10.1,20.3,15,20c8.8-0.4,17.2-8.8,25.8-13.8c-5.5-8-10.6-16.4-16.7-24c-4.7-5.9-16-12-15.1-16c3-13.6,11.2-16.3,24.2-7
	c5.8,4.3,19.5,6.1,24,2.4c35.1-28.4,71.9-49,123-32.6c17.3,20.8,31.2,48.6,24.3,82.4c42.6,10.4,60.1,4.2,68.4-25
	c-13.5,1.7-26.5,3.2-39.5,4.9c-1.2-3.2-2.4-6.4-3.7-9.6c14.3-12.5,28.5-25,42.8-37.6c1.7,1.7,3.4,3.3,5.1,4.9l7.2-23.6
	c25.6-0.8,51.6-5.6,75.4-0.5c12.2,2.7,21.1,23,29.9,36.6c3.3,5.1,1.7,13.4,2.3,20.2c3.3,36.9,5.2,38.4,48.4,35.8
	c-22.7-13.4-23.3-29.1-10.8-48.2c2.7-4.2-0.4-12.4-1.3-18.7c-1.3-8.5-2.9-17-4.4-25.5c8.9-0.5,17.8-0.9,28.4-1.5
	c-0.7,25.5-1.1,47.3-1.8,70.4c17.4,2.3,24-6.4,21-24.2c-4.9-28.7,9.7-47.5,38.2-48.3c28.9-0.7,57.7-1.2,86.6-1.2
	c18.1,0,27.9,20.3,24.9,39.2c-2.6,15.6,0.9,32.6,4.3,48.3c0.9,4,15.5,9.7,17.9,7.7c7.1-6,13.4-14.9,15.8-23.8
	c1.3-4.8-6.1-11.9-10.6-19.7c9.9-8.6,29.2-18.4,2.1-31.1c-1.6-0.8-1-12.4,2.1-16.2c11.9-14.7,45.7-9.8,51.3,8.7
	c8.5,28.6,28,38.1,54.8,43.4c37.6,7.5,38.4,12,35.5,49.2c-1.7,22.1,0.5,41.9,30.1,49.4c18.4,4.7,33.9,21.1,50.6,32.2
	c31.9,21.3,63.3,43.5,96.1,63.1c8.6,5.1,22.1,1.9,33.3,2.9c23.6,1.9,35,18,34.6,38.5c-0.5,26.5-6.9,52.9-10,79.4
	c-2.6,21.7-5.1,43.4-6,65.2c-1.3,33.2-1.2,66.3-1.6,99.2c30.5-1.3,60.1-2.8,89.8-3.7c4.1-0.1,10.7,1.4,12.2,4.2
	c20.2,37.2,54.5,13.6,81.8,18.8c18.9,3.6,39.1-0.3,58.7-0.2c51,0.1,101.9,0.6,152.9,0.9c16.4,0.2,32.8,0.6,54.3,0.9
	c0.6,83.8,1.3,167.8,1.8,251.6c0.3,64,0.3,127.9,0.3,191.9c0,23.3-19.3,19.6-31.9,20c-69.8,1.9-139.5,2.4-209.3,2.8
	c-51.7,0.3-103.3-1.1-155-0.6c-54.8,0.5-109.6,3.2-164.4,3.2c-38.2,0-76.3-4-114.5-4.3c-51.5-0.4-103,1.1-154.5,1.8
	c-41.8,0.7-83.7,1.5-125.5,2.3c-41.6,0.8-83.3,1.6-124.9,2.4c-27.5,0.4-55.1,0.9-82.5,0.8c-28.2-0.1-56.4-0.8-84.6-1.6
	c-32.8-0.9-65.5-2.9-98.2-2.9c-40.2-0.1-80.5,1.3-120.6,2.1c-29,0.5-58,1-87.1,1.3c-40.9,0.4-81.8,0.6-122.7,1c-30,0.3-60,0.6-90,1
	c-42,0.6-84,2.3-126,1.8c-28.7-0.3-57.2-4.3-85.9-4.7c-40.3-0.5-80.5,0.5-120.8,1.2c-41.1,0.7-82.1,1.8-123.1,2.5
	c-43.6,0.7-87.3,1.5-131,1.7c-41.3,0.2-82.5-0.4-123.8-0.5c-51.5,0-103.2,0.4-154.7,0.6c-12.8,0.1-25.6,0.9-38.1-0.9
	c-3.8-0.5-9.2-8.9-9.2-13.7c-0.5-63,0.2-126-0.2-188.9c-0.3-51.1-2.2-102.3-2.4-153.4c-0.1-28.6,2.5-57.1,3.3-85.7
	c0.5-19,16.1-20.4,27.5-20.7c51.4-1.2,102.8-0.1,154.2-0.2c49.7-0.1,99.3-0.5,149-1.1c3.2-0.1,8.7-1.4,9.3-3.3
	c6.6-21.9,25.8-19.8,41.2-19.7C477.1,1857.5,498.7,1861.8,524.7,1864.8L524.7,1864.8z M852.8,2266.6c27.6,1,55.2,2.6,82.9,2.3
	c4.6-0.1,13.2-8.6,13.1-13.3c-0.7-53.6-2.7-107.2-4.6-160.9c0-1.4-2.2-2.5-4.2-4.9c-6.2-1.2-13.5-2.6-23.8-4.4
	c15.4,18.5,12,26.8-8.4,28c-18.1,1.1-27.7,5.6-23.6,29.2c4.6,26.7,1.6,54.8,0,82.2c-0.3,5.2-9.3,9.8-14.1,14.8
	c-3-5.2-8.7-10.3-8.8-15.5c-0.8-43.9-0.6-88-0.7-136.1c-7.8,3.2-18.1,10.7-28.7,11.1c-46.8,2.1-93.8,3-140.7,2.6
	c-62.7-0.6-125.5-4.1-188.4-4c-64.2,0.1-128.3,3.9-192.5,4.7c-63.4,0.8-126.8-0.3-190.3,0.5c-5.9,0.1-11.7,7.8-17.5,12
	c1,3,2,5.9,2.9,8.9c34.1,1.3,68.1,2.6,101,3.8c5.7,25.8-0.5,39.6-22.6,51.1c-26.3,13.9-48.6,35.8-50.9,68.3
	c-1,13.5-7.6,17.7-15.8,25.5c-8.1,7.6-12.6,22.5-12.2,34c0.2,6.1,13.7,16.7,21.5,17c47.8,1.8,95.7,1.3,143.5,1.2
	c53.1-0.1,106.2-0.5,159.3-1.3c42.6-0.5,85.1-2.2,127.7-2.7c52.9-0.5,105.8-0.3,158.7-0.1c27.9,0.1,55.8,2.1,83.7,1.1
	c44-1.7,87.9-4.8,131.9-8.1c7.4-0.6,14.6-4.6,21.8-7c-0.7-2.7-1.3-5.5-2.1-8.3c-36.1-0.7-72-1.4-114.2-2.2
	c7-12.6,11.7-21.3,16.5-29.9L852.8,2266.6L852.8,2266.6z M1227.9,1911.3c-12.7,2.1-23,5.3-33.4,5.3c-24.8,0.1-31.4,15.2-31.7,35.8
	c-0.2,14.7-1.4,30,2.2,43.9c4.9,19-4.8,25.1-19.5,25.5c-13.8,0.3-21.3-5.6-20.3-23.4c2.2-40.6,0.9-81.5,0.8-122.3
	c-0.1-46.7-0.5-93.3-0.8-139.9c-0.2-39.1-0.5-78.1-0.7-117.2c-0.4-50.4,0.7-100.9-1.9-151.2c-0.8-15.2-5.1-35.2-32.7-38.3
	c-2.8,24.4-5.6,47.6-9.2,78.8c-45.7-37.6-85.5-70.3-128.4-105.5c-4.4,12.5-8.9,19.8-9.2,27.1c-1.1,27-0.8,54.1-1,81.1
	c-0.8,79.1-1.9,158.3-2,237.4c0,53.1,1.7,106.3,2.3,159.4c0.3,30.5,0.6,61-1.1,91.4c-0.3,6.1-9.6,11.7-14.8,17.6
	c-5.5-5.9-15.5-11.5-15.8-17.8c-1.9-36.5-2.6-73.3-1.9-109.9c0.8-38.5,4.6-77.1,4.9-115.6c0.4-58.4-0.8-116.8-1.8-175.2
	c-0.8-43.6-1.7-87.4-4.4-130.9c-1.8-27.4-16.8-39.2-40.4-37c0.5,211.9,0.9,423.7,1.5,640.1c26.7-1.1,52.3-1.5,77.7-3.9
	c3.9-0.4,10.5-10.5,9.8-14.9c-5.6-30,15.3-26,32.5-26.3c16.5-0.3,33.2,1.9,49.4,0.4c36.2-3.4,44.2,6.6,30.8,42.7
	c-7.3,0.5-15,1.6-22.8,1.3c-24-0.6-43,3.9-46.6,33.3c-0.8,6.3-12.1,11.3-24.3,21.9c155.2-1,304.6-2.1,454-2.7
	c149.2-0.6,298.5-0.7,447.8-0.9l0.3,11.6c-33.2,1.2-66.4,3-99.6,3.6c-43.4,0.8-86.7,0.6-130.1,1.1c-50.3,0.6-100.7,2.5-150.9,2.1
	c-63.3-0.7-126.6-4.2-190-4.6c-69.3-0.5-138.9,5.3-207.8,0.6c-41.9-2.9-56.2,29.2-83,45.6c-0.5,0.4,1.2,4.4,2.2,8.2
	c41.8-0.9,83.2-2.2,124.7-2.6c40.7-0.5,81.3,0,122-0.2c39.9-0.1,79.7-0.1,119.5-0.9c40.6-0.8,81.1-3.4,121.6-3.6
	c49.6-0.2,99.3,2.2,148.9,1.7c69-0.7,138-3.2,207-3.9c5.7-0.1,11.4,7.1,17.1,10.9c-43.7,5.8-84.2,6.5-124.8,6.5
	c-40.9,0-81.6-0.7-122.5-1.1c-40.8-0.4-81.6-0.9-122.4-0.8c-39,0.1-78,0.4-117,1.1c-51.6,1-103.3,2.5-155,3.8
	c-43,1.1-86.1,0.9-128.9,4.2c-13.7,1.1-26.9,11.2-39.9,18c-5,2.7-8.7,7.8-13.1,11.8c5.1,2.2,10.1,6,15.2,6.1
	c40.5,1.3,81,2.2,121.5,2.7s81,1,121.4,0.2c51.9-1,103.8-4.2,155.8-4.9c65-0.8,130.1,0,195.2,0c63.2,0.1,126.5-0.1,189.8,0.4
	c6.8,0.1,13.6,3.8,20.4,5.9c-0.5,1.6-1,3.3-1.5,5c-248.4,2.1-496.7,4.2-738.5,6.3c-17,14.3-29.9,25.1-45.6,38.4
	c10,2.3,15.8,4.8,21.5,4.7c43.5-0.8,87.1-3,130.6-3c35.9-0.1,71.8,3.2,107.6,2.9c53.1-0.5,106.2-3.1,159.2-4.2
	c65.4-1.2,131.1-6.2,196.1-1.4c60.8,4.5,122.2-19.9,183.8,11.7c24.2,12.5,61.7-0.8,93.1-2.3c0.1-4.2,0.3-8.5,0.4-12.7
	c-34-1.5-68.2-3-101.8-4.4c-4.2-21,5.3-22.4,20.5-21.8c25.4,1.1,50.9-0.4,76.1-0.8c1.8-54.1,3.4-103,5.1-155.3
	c-17.6-0.1-33.8-1.2-49.8,0.3c-4.1,0.3-9.8,8.4-10.6,13.6c-1.7,11.9-0.1,24.3-1.2,36.4c-2.4,27.6,7.5,57.2-15.6,82.1
	c-4.6-21.8-4.1-43.7-6.5-65.2c-3.6-31,13.3-65.5-15.3-92.6c-1.8-1.7,0.7-7.9,1.2-11.6c19.1-0.3,36.8,1,53.9-1.7
	c7.7-1.2,19.3-9.9,19.9-16c1.2-12.3-0.3-33.2-7.2-36.3c-18.5-8.2-15-21.8-15.3-34.9c-0.5-18.3,0.9-36.7,1-55.1
	c0.3-76.8,0.4-153.6,0.6-230.4c0-9.1-1.1-18.4,0.9-27.1c2.6-11.1,10.3-21.3,11.4-32.5c1.9-17.2,0.6-34.8,0.1-52.3
	c-1.2-44.4-1.3-88.9-4.9-133.2c-1.3-16-12.1-29.8-34.7-27.8c0.8,39.3,2.1,77.4,2.3,115.5c0.2,33.9,0.8,68.1-1.6,101.8
	c-2,26.8-9.8,53.1-12.1,79.8c-2.1,23.3,0.1,47.1,0,70.7c-0.1,52.3,1.5,104.8-1.3,156.9c-1.8,32.9-9.7,65.5-16.7,97.9
	c-1.4,6.3-11.3,14.3-17.9,15c-30,3.1-60.2,4.8-90.3,4.7c-5.2,0-14.5-10.6-14.8-16.6c-1.2-20.7-11.5-31.1-30.8-32.6
	c-16.7-1.2-20.2-12.7-21.2-25.1c-1.3-15.7-0.2-31.5,0-47.4c0.9-60.3-0.4-120.8,3.5-181c4.1-64.3-23-131,13.3-192.9
	c0.4-0.6-0.2-1.7-0.2-2.6c-0.8-33.3,0.2-66.6-3.1-99.6c-1.6-15.1-11.7-29.4-17.9-44c-3,0.9-5.9,1.6-8.9,2.5
	c-2.4,6.4-6.6,12.8-6.7,19.3c-0.1,29.5,4.8,59.4,0.4,88c-3,19.4,20.7,50-15.8,56c-0.3,136.7-0.6,270.8-1,413.1
	c-43.6-34.9-81.1-64.9-123.7-99c-0.1,24.2-0.8,40-0.4,55.8c0.3,13,4.2,26.3,1.8,38.6c-1.1,6.1-12.8,10.2-19.8,15.3
	c-5.3-9.6-15.4-19.2-15.4-28.7c-0.1-73.4,3-146.9,2.4-220.4c-0.4-75.2-3.9-150.3-5.6-225.5c-0.2-6,0.4-14.9,4.1-17.6
	c24.2-17.4,12.1-41.1,12-62.4c-0.1-18.3-10-27-28.5-25c-3.4,21-6.8,41.5-9.9,62c-3.9,25.8-10.4,51.7-10.3,77.6
	c0.2,63.6,4.2,127.2,5.2,190.9c1,65.6,0.7,131.3,0.2,197c-0.2,17.2-2.9,34.5-5.7,51.4c-1.9,11-7.6,21.4-9,32.5
	c-2.1,15.6-3.6,27.7-25.2,23.8c-13.2-2.4-28.1-1.9-41,1.8c-21.4,6.1-23.4-6.2-26.4-21.3c-1.9-9.6-6.4-26.1-10.7-26.4
	c-46.7-3.6-35.4-39.1-38-66.4c-0.8-7.8,2.2-15.8,2.2-23.8c-0.3-87.1-0.2-174.4-1.2-261.6c-0.9-68.8-3-137.7-5.2-206.6
	c-0.5-14.6-5.4-27.8-29.5-24.4c-1,77.1-2.1,154.2-3,231.2l-9.7,4c-10.9-9.1-21.3-18.9-32.9-27.2c-19.4-13.9-38.9-27.9-59.5-39.7
	c-11.9-6.9-24.2-2.8-24.7,12.9c-1.1,38.6-0.3,77.2-0.2,114.6c17.4,3,28.6,6,40,6.7c20.8,1.4,25.9,14.1,26,32
	C1227.1,1820.1,1227.6,1864.4,1227.9,1911.3L1227.9,1911.3z M2725.5,2267.1c-1.9,0.4-3.8,0.7-5.7,1.1c-7.9-9.8-21-18.8-22.7-29.7
	c-6.5-40.6-32.3-62.4-65.9-80.2c-7.6-4.1-14.1-16.5-15-25.8c-1.3-12.2,5.4-21.5,21.4-19.6c20.8,2.4,42,2.2,62.9,4.2
	c18.7,1.7,23.6-6.1,19.9-24.2c-37.2-0.6-72.9-1.1-108.6-1.7c-59.2-1.1-118.6-3.3-177.9-3c-103.6,0.6-207,2.6-310.5,4.3
	c-20.2,0.3-40.4,2.8-60.6,4.4c0.3,2.3,0.6,4.7,0.9,7c18.8,13.1,37.6,26.2,61.2,42.5c-0.1-31.8,21.8-28.5,38-28.9
	c53.2-1.3,106.5,1.1,159.7-0.8c17-0.6,21.6,1.5,25.2,19.1c3.8,18.4-0.5,25.3-16.7,31.3c-31.7,11.7-54.8,30.9-61.4,67.5
	c-6.5,35.7,37.3,86.7,74.4,84.5c40.6-2.4,81.4-3.9,122.2-4.3c85.5-0.8,171-0.7,258.7-1C2725.1,2299.2,2725.3,2283.2,2725.5,2267.1
	L2725.5,2267.1z M1980.3,2030.8c-1.7,28.5,19.4,24,34.4,24.6c16.3,0.7,32.8-3,49.2-3.1c64.2-0.4,128.3,0.4,192.6-0.6
	c64.1-0.9,128.3-5,192.4-4.5c88.5,0.7,177,4.3,268.7,6.7c0.6-13.8,1.2-23.1,1.2-32.1c0-30.9-4.5-62.7,0.8-92.8
	c4.9-27.4-9-29.1-26.7-29.9c-28.8-1.2-57.7-1.1-86.4-1.1c-69.4,0-138.8,0.3-208.8,0.6c-1.3-18.6-9.9-25.5-29.8-22.2
	c-18.9,3-41.1-5.4-50.9,20.4c-0.6,1.7-8.1,1.1-12.4,1.2c-35.5,1-71.1,2.4-106.7,2.9c-68,0.9-136,2.1-204,1.6
	c-18-0.2-18.5,7-15.8,20.8c21.6-2.8,29,3.6,23.3,25.1c-3.9,14.9-7.8,33.3-2.5,46.3C2008.3,2017.7,1998.5,2025.5,1980.3,2030.8
	L1980.3,2030.8z M107.3,1914.5c-1.1,46.4-3,87.3-2.5,128.2c0.1,7.2,10,20.4,15.5,20.5c61.9,0.4,123.6-1.6,185.5-2.2
	c52.3-0.6,104.7-1.1,157.1-0.4c40.3,0.5,80.6,4.1,120.9,4.4c54,0.3,108.2-1.1,162.4-2.2c29.5-0.7,58.9-2.2,88.3-4
	c14.9-0.9,19.5-15.1,9.5-20.2c-20.4-10.5-12.2-22.4-9.9-37.1c2.1-13.5,2.4-29.1-2.4-41.4c-5.9-15.3-3.4-22.1,11-28.1
	c3.8-1.6,8.2-9.4,7.3-12.8c-1.2-3.9-8-8.8-12.4-8.9c-54.9-1.4-109.8-2.6-164.7-2.8c-55.7-0.3-111.5,0.4-167.7,0.6
	c-5-14.5-11.1-23.2-31.8-20.2c-17.6,2.6-34.6-2.3-44.1,19c-1.9,4.1-12.4,6.1-19,6.2c-49.6,1.1-99.2,1.7-148.8,2
	C209.7,1915,158.5,1914.6,107.3,1914.5L107.3,1914.5z M779.1,1740.3c-18.6,1.8-33.4,0.7-45.7,5.8c-3.7,1.5-0.3,20-0.4,30.6
	c0,4.4-0.8,8.8-0.7,13.3c1,31.4,2.2,62.8,3.1,94.2c1,33.4,25.5,9.3,38.1,14.3c3.4,1.3,17.5-11.1,17.8-17.7
	c2-37.3,2.1-74.8,0.7-112.2C791.9,1759.1,783.7,1749.8,779.1,1740.3L779.1,1740.3z M785.3,1444.2c-10.8-2.3-15.9-5.1-19.3-3.8
	c-12.9,5.1-36.9-6.7-37.4,16.3c-0.7,42.4,3.4,85,5.8,127.5c1.4,25.4,21.8,17,35.1,17.7c10.9,0.6,18.8-2.2,17.9-20.1
	c-1.9-39,2.6-78.1,3.6-117.2C791,1456.9,786.6,1449,785.3,1444.2z M622.2,1893.6c29.2,7.5,34.5,4.7,36.1-23.7
	c1.7-31.3,2.2-62.8,0.4-94c-2.1-35.3-7.6-37.9-43.8-30.3c-3.5,0.7-8,0-10.2,1.9c-4.4,3.9-10.8,9.4-10.6,14
	c0.7,29.4,1.3,58.9,5.4,87.9C601.8,1866.2,594,1891.7,622.2,1893.6L622.2,1893.6z M656.4,1596.7c-0.6-47.3,3.6-89.6-3.1-130
	c-4-24.2-31.3-8.6-48.1-7.5c-2.1,0.1-4.8,13.7-5,21c-0.5,16.5,0.6,33,0.5,49.6c-0.2,18.2-1,36.4-1.6,54.6
	c-0.7,24.7,19.8,17.8,32.3,19.7C639.3,1605.2,648.2,1599.3,656.4,1596.7L656.4,1596.7z M281.6,2076.1c-0.1,3.5-0.3,7-0.4,10.5
	l100.9,1.7c0.2-3.6,0.2-7.2,0.3-10.8C348.8,2077.2,315.2,2076.6,281.6,2076.1L281.6,2076.1z M740.3,2075.6l-1.1,10.2
	c21.9,1,43.8,1.9,65.8,3c0.2-3.3,0.4-6.6,0.6-9.9C783.8,2077.8,762.1,2076.6,740.3,2075.6L740.3,2075.6z M2108.6,2069
	c-0.2,3-0.5,6-0.6,9c20.7,0.7,41.3,1.3,62,1.9c0.1-2.8,0.3-5.7,0.4-8.5C2149.7,2070.7,2129.2,2069.9,2108.6,2069L2108.6,2069z
	 M521.3,2086.9c0.4-3.6,0.7-7.2,1-10.9l-66.1-2.4c-0.2,3.2-0.4,6.4-0.6,9.5C477.6,2084.4,499.4,2085.7,521.3,2086.9L521.3,2086.9z
	 M142.2,2077.8c-0.4,3.3-0.8,6.8-1.1,10.1c21.8,1,43.6,2,65.4,2.9c0.2-3.2,0.4-6.5,0.7-9.7C185.5,2080,163.8,2078.8,142.2,2077.8z"
	/>
<path class="st0" d="M548.3,1287.4c-43.4-15.5-28.1-50.3-29.1-76.1c-2.8-68.8,0.2-137.8-0.8-206.8c-0.1-10.9-10.8-21.4-13.3-32.7
	c-1.4-6.4,2.8-19.8,6.3-20.4c68.5-12.3,137.4-22.8,206.1-34.5c22.2-3.8,43.7-11.6,65.9-14.3c35.9-4.6,72.2-7.7,108.3-9.2
	c53.7-2.2,107.5-2.4,161.1-3.3c39.1-0.6,78.2-1.4,117.2-0.4c4.6,0.1,12.1,11.1,12.5,17.4c0.7,11.1-3.1,22.5-5.7,38.1
	c-33.5,0.9-68.1,1.9-102.6,2.6c-52.3,1-104.4,1.8-156.6,2.6c-17.3,0.3-35,2.7-52,0.5c-18.8-2.6-22.6,8.5-22.5,21.3
	c0.7,62.6,3.2,125.2,3.6,188c0.1,15.5-4.5,31.3-8.7,46.6c-4.6,16.8-1,24.7,17.9,24.4c73.1-1.2,146.3-2.5,219.3-2.2
	c55.1,0.2,110.3,2.8,165.3,5.4c5.9,0.3,13.9,6.3,16.5,11.7c5.6,11.5,8.2,24.6,13,39.9c-19.7,1.1-38.9,2.9-58.2,3.3
	c-55.5,1.1-111,2.1-166.5,2.5c-52.1,0.5-104.3-1.4-156.3,0.8c-26.9,1.1-53.4,10.5-80.4,13.1c-78.5,7.5-157.2,13.3-235.8,19.8
	c-11.1,0.9-23-0.4-33.5,2.9c-29.5,9.1-41.2-4.8-44-33.4C510.8,1292.5,527.2,1290.3,548.3,1287.4L548.3,1287.4z"/>
<path class="st0" d="M832.9,803.9c3.5,22.7,8.7,38.7,6.9,54c-0.5,4.8-19.6,8.5-30.7,10.7c-88.4,18.3-177,36-265.5,53.8
	c-17.9,3.6-27.7-3.1-25.4-22.6c1.9-16.2-9.4-37.2,21.2-42.4c6-1,10.2-29.9,10.2-46c-0.1-22.4,0.5-39,25.5-51
	c10.5-5,13.1-29.3,16.8-45.3c2.6-11.3,1.2-23.6,1.6-37.1c38.2,2,58.3-17.1,79.1-44.1c23.3-30.1,55.1-54.5,85.9-77.8
	c47.3-35.7,96.8-68.5,145.8-101.9c22.8-15.6,43.6-23.1,67.5,3.3c16.7,18.4,41.2,29.8,63.9,45.5c-27.4,29.7-53,57.5-78.6,85.1
	c0.5,3.2,1,6.4,1.5,9.5c28.4-0.2,56.9,0.6,85.2-0.8c30-1.5,60-5.5,90-7.2c4.4-0.2,9.1,5.9,13.6,9.2c-5.1,6.1-9.5,16.7-15.4,17.5
	c-23.2,3.3-46.7,3.6-70.1,5c-53.2,3.3-106.5,6.4-160.2,9.6c1.1,15.5,1.2,24.1,2.4,32.6c2.5,16.8,12.9,23.7,29.5,22.2
	c68-5.8,136-11.4,204-17.6c2.1-0.2,3.9-6.1,5.8-9.4c1.6,2.3,3.3,4.6,5,6.9c1.2,9.1,2.5,18.3,3.4,25.1
	c-114.4,13.7-227.6,27.1-340.8,40.6c-0.4,2.2-0.8,4.5-1.2,6.6c7.5,1.9,15.1,5.7,22.3,5.1c32.8-3.2,32.8-3.7,41.4,31
	c46.4-2.4,93.3-3.8,140-7.4c39.9-3.1,79.6-8.8,119.5-13c6.8-0.7,14.4-1.3,20.6,0.9c4.4,1.6,7.1,7.9,10.6,12.2
	c-3.6,3-7.1,8.1-11.1,8.5c-38,4.1-76.2,7.5-114.3,10.8C968.9,792.2,898.9,798.2,832.9,803.9L832.9,803.9z M647.1,751.7
	c0.6,4.7,1.1,9.4,1.5,14.2c29.2-5.1,58.3-10.3,87.3-15.3c-0.5-3.9-1.1-7.8-1.7-11.7C705.3,743.1,676.2,747.4,647.1,751.7z
	 M767.4,829.3c-0.6-3.6-1.1-7.2-1.7-10.9c-25.3,4.8-50.6,9.5-75.9,14.2c0.6,3.1,1.1,6.3,1.7,9.5
	C716.9,837.9,742.2,833.6,767.4,829.3z"/>
<path class="st0" d="M1352.3,993.1c1.6-1.5,3.1-3,4.7-4.5c15.6-5.1,31.2-10.2,46.8-15.3c29.7-11.9,54.4-0.1,79.1,15.6
	c19,12.1,39.3,22.5,59.6,32.2c49.7,23.8,99.8,47,149.9,70.1c3.9,1.8,9.2,0.9,14.8-2.7c-84-42.5-167.9-85-251.9-127.5
	c0.8-2.4,1.6-4.6,2.4-7c11.9,3.6,24.5,5.8,35.6,11.1c60.9,29,121.9,57.8,182,88.4c41.7,21.3,81.6,46.1,123.1,67.7
	c28.2,14.6,58.2,25.6,86.7,39.4c15.5,7.5,29.8,17.4,44.6,26.2c-1.2,2.7-2.5,5.4-3.7,8.1c-48.7-22.8-97.3-45.8-145.9-68.6
	c-1.3,2.8-2.5,5.6-3.8,8.5c32,15.6,64.2,31.2,100.6,49c-6.7,5.1-12.3,12.9-16.7,12.3c-30.2-4.4-62.7-4.8-89.6-17.1
	c-61-28.2-119.1-62.7-178.7-94.1c-36.2-19.1-71.8-39.8-109.9-54.2c-14.2-5.4-36,1.3-51.3,8.8c-57.5,28.4-113.6,59.9-170.8,88.8
	c-9.2,4.6-27.3,22.3-31.7-4.2c-2.7-16.6-24.4-36.8,5.2-52c20.1-10.4,38.6-23.9,57.9-36l-1,0.3
	C1316.3,1029.4,1344,1025.2,1352.3,993.1L1352.3,993.1z"/>
<path class="st0" d="M1272,1226.7c52.7-0.5,100.6-0.9,148.4-1.4c64.5-0.7,129-1.6,193.4-2c35.7-0.2,71.5,0.8,107.2,0.9
	c56.7,0.2,113.4,0.3,170.1,0.2c14.7,0,29.6-2.1,44.3-1.7c19.3,0.5,23.9,14.6,24.9,30.6c0.6,9.1,0.2,18,0.3,27.6
	c-74-0.9-148.8-2.9-223.7-2.5c-76.2,0.4-152.5,3.9-228.9,5c-69.5,1.1-139.2,1.3-208.8,0.8c-5.8,0-14.5-6.5-16.6-12
	C1277.8,1259.6,1276.1,1245.6,1272,1226.7L1272,1226.7z"/>
<path class="st0" d="M1148.3,1098.9c11.4-2.2,23.9-2.3,34.2-7c13.1-5.9,17.4-4.1,22.5,9.8c15.1,40.4,15.5,42.1-20.9,62.4
	c-22,12.2-44.7,23.1-66.4,35.5c-25.3,14.5-93.3,13.6-130.2-0.6c37.5-23,73.7-45.1,109.8-67.2c0.1,0,0.9-0.1,2.3-0.4
	c16.5-11.1,33.2-22.1,49.7-33.2L1148.3,1098.9L1148.3,1098.9z"/>
<path class="st0" d="M1460.6,1075.8c34.8,11.1,48.2,38.6,36.2,74.7c-10.3,31.6-38.4,45-71.5,34.4c-35.4-11.4-52.5-40.5-42.2-71.7
	C1394.7,1078.6,1424.5,1064.3,1460.6,1075.8L1460.6,1075.8z"/>
<path class="st0" d="M1067,1129c-5.9,5.7-10.8,13.3-17.8,16.7c-42.2,20.9-84.8,41.1-127.6,60.9c-5.8,2.7-13.5,1.5-21.5-3.8
	c36.1-18,72.3-36,108.5-54c11.6-5.7,22.8-12.1,34.9-16.5c7.4-2.7,16-1.9,23.9-2.8L1067,1129L1067,1129z"/>
<path class="st0" d="M1291.4,1035.7c-13.2,3.5-26.6,6.4-39.5,10.8c-10.2,3.4-19.9,8.5-29.8,12.8c-1.8-2.1-3.4-4.3-5.2-6.4
	c7.8-6.4,14.8-14.6,23.7-18.8c31.9-15.2,64.4-29,96.6-43.3c-15.7,15.1-31.2,30.1-46.8,45.2L1291.4,1035.7L1291.4,1035.7z"/>
<path class="st0" d="M1403.8,973.2c-15.6,5.1-31.2,10.2-46.8,15.3c1.2-5.8,0.8-13,4.2-17.1c13.2-16.5,60.2-29.1,75-21.9
	C1425.6,957.3,1414.7,965.2,1403.8,973.2L1403.8,973.2z"/>
<path class="st0" d="M1120.4,1101.3c14.8-29.8,45.4-30.7,69.3-43.7c1.5,2.3,3,4.8,4.5,7.1c-15.4,11.4-30.7,22.9-46,34.2l1.2-0.7
	c-9.8,0.8-19.5,1.6-29.3,2.4L1120.4,1101.3L1120.4,1101.3z"/>
<path class="st0" d="M1099.6,1131.3c-1.4,0.3-2.2,0.5-2.3,0.4c-10.2-0.9-20.2-1.9-30.4-2.8l0.4,0.7c11.4-21.2,29.8-29.3,53.1-28.4
	l-0.3-0.7C1113.3,1110.8,1106.5,1121.1,1099.6,1131.3L1099.6,1131.3z"/>
<path class="st0" d="M1655.9,2023.7c-4.1,17.5,16.7,44-20.2,46.8c-15.4,1.2-31.7-2.7-46.5,0.5c-22.5,5-26.5-9.3-26-23.7
	c0.3-8.3,10-22.3,16.6-23.1C1604.3,2021.5,1629.2,2023.5,1655.9,2023.7z"/>
<path class="st0" d="M1176,2071.3c-2-11.9-3.8-22.1-6.5-37.9c21-2,41.6-4.1,62.2-6c1.7-0.1,3.5,1,5.2,1
	c24.7,0.1,36.1,13.9,34.3,41.3C1240.3,2070.1,1209.4,2070.6,1176,2071.3L1176,2071.3z"/>
<path class="st0" d="M480.4,2166.6c6-47.4,6.5-46.9,65.7-46.1c44.3,0.6,88.6-1.4,133-2c14.9-0.2,26.6,3.5,24.7,22.6
	c-0.7,6.8,0.8,13.8,1.5,21.7c-11.5,5.2-23.3,10.2-34.9,15.6c-29.7,13.9-37.4,41.7-45.6,70.2c-2.5,8.4-16.8,21.2-21.9,19.7
	c-13.7-4.3-36.4,8.1-40.7-18C554.6,2204.1,526.7,2176.7,480.4,2166.6L480.4,2166.6z"/>
<path class="st0" d="M233.6,2135.8c8.4-4.1,16.7-11.7,25.3-12c58.3-1.8,116.6-2.7,174.9-2.3c6.8,0.1,18.3,8.7,19.1,14.7
	c1.7,11.1,16.1,26.9-8.1,34c-37.7,11.1-56.8,39-63.1,76.5c-2.9,17.1-11.2,25.4-29.5,20.4c-5-1.4-11.2-2.8-15.6-1
	c-18.8,7.2-21.2-4.8-22.5-18c-3.8-39.6-26-64.9-62.4-78.1C236.6,2164.5,228.2,2157.5,233.6,2135.8L233.6,2135.8z"/>
<path class="st0" d="M853.3,2266.5c-13.8-0.3-27.5-0.5-36.7-0.8c-15-28-27.9-54.6-43.5-79.6c-4.8-7.7-16.5-12.8-26-15.5
	c-17.4-4.9-21.8-15.3-19.1-31.5c2.9-16.8,14.1-16.7,27.7-16.1c29.2,1.3,58.5,1,90.5,1.3c-0.5,44.3-1.3,85.3-1.1,126.3
	c0,5.3,4.7,10.6,7.5,15.9C852.8,2266.6,853.3,2266.5,853.3,2266.5L853.3,2266.5z"/>
<path class="st0" d="M2513.6,2253c-50.7,18.2-62.3-12-78.5-46.6c-10.3-22.1-37.6-36.2-60.3-56.7c3-33.4,5.3-35.4,42.3-35.4
	c56.4-0.1,112.8-0.4,168.8-0.6c12.6,38.2,12.5,38-20.6,56.4c-23.2,13-39,31.9-44.4,58.7C2518.9,2238.3,2515.4,2247.2,2513.6,2253
	L2513.6,2253z"/>
<path class="st0" d="M2608,2021.2c-2.6-30.8-5.5-55.8-6.3-80.9c-0.2-6.2,4.8-16.2,10-18.3c7.7-3.2,18.6-3.1,26.2,0
	c4.1,1.7,5.9,13.1,5.7,19.9c-0.7,18.1-2.5,36.3-5.1,54.2c-1.5,9.6-2.8,23-9.1,27.1C2623.3,2027.2,2610.8,2021.5,2608,2021.2
	L2608,2021.2z"/>
<path class="st0" d="M2689.3,2022c-38.7-1-37.8-0.8-30.9-36.4c2.4-12.2-1.5-25.6-1.6-38.3c-0.2-15.3,0.2-32.1,22.4-29.3
	c5.9,0.8,15.9,8.7,15.8,13.1C2694.4,1960.7,2691.6,1990.4,2689.3,2022L2689.3,2022z"/>
<path class="st0" d="M2230.3,2019.4c-8.8,1.8-19.4,6.3-29.2,5c-4.4-0.6-11.6-14.4-9.9-19.6c6.6-20.4,6.9-38.6-3.4-58
	c-2.4-4.5,2.8-18.1,7.4-19.9c8-3.1,18.8-2.1,27.3,0.7c4.1,1.3,8.8,11.9,7.5,16.3c-7.1,21.7-11.4,42.5,2,63.4
	C2233,2008.9,2231.3,2012.4,2230.3,2019.4L2230.3,2019.4z"/>
<path class="st0" d="M2523.3,2021.4c-6.2,0.3-19.8,1-29.3,1.3c-2.3-29.5-5.1-53-5.5-76.5c-0.1-8.5,3.9-18.9,9.7-24.8
	c4-4.1,18.5-5.2,21-2.1c5.6,7.3,9.3,18.1,9.2,27.5C2528.4,1969.4,2525.6,1991.8,2523.3,2021.4L2523.3,2021.4z"/>
<path class="st0" d="M2578.9,1922.9c1.3,5.7,6.9,16.3,5.2,25.6c-3.7,19.7-11.5,38.5,1.3,58.1c2.1,3.1,0.2,13.3-1.8,14
	c-8.9,2.8-18.8,5.2-27.7,3.8c-4.1-0.7-10.6-12.3-9-16.4c8.8-23.5,6.2-44.9-1.1-68.6C2541.3,1924.8,2553.5,1914.9,2578.9,1922.9
	L2578.9,1922.9z"/>
<path class="st0" d="M2140.5,2018.8c-3.3-29.3-6.5-51.6-8-73.9c-0.4-6.2,1.9-16.2,6.1-18.4c7-3.7,18.2-5.8,24.6-2.5
	c5.6,2.8,11.6,14.9,9.9,21c-5.7,21.7-11.1,42.2,1.3,63.7c1.2,2.2-8.6,14.9-14,15.4C2151.9,2024.8,2142.6,2019.5,2140.5,2018.8
	L2140.5,2018.8z"/>
<path class="st0" d="M2110.9,2022.5c-7,0.4-20.3,1.2-29.4,1.7c-2.3-29.6-5-54-5.4-78.4c-0.2-7.7,3.9-18.2,9.7-22.2
	c4.7-3.3,17.8-1.4,21.7,3c5.4,6.2,7.9,16.8,7.9,25.6C2115,1973,2112.7,1994,2110.9,2022.5L2110.9,2022.5z"/>
<path class="st0" d="M2244.6,2017.3c-0.6-29.1-3.1-52.5-0.6-75.2c0.9-8,13.7-14.8,21.1-22c5.5,7.5,16.7,16.8,15.2,22.3
	c-6.2,21.3-8.2,40.9,1.1,62c1.5,3.4-9.6,16.1-16.7,18.1C2257.6,2024.4,2248.2,2018.4,2244.6,2017.3L2244.6,2017.3z"/>
<path class="st0" d="M2028.9,2023.5c-0.2-35.8-0.3-68.4-0.5-100.7c35.4-0.8,39.4,3.5,30,31.8c-5.9,17.8-11.4,34.6,1.1,52.4
	c1.6,2.3-5.7,14-11.4,17.1C2043.3,2026.9,2035,2023.9,2028.9,2023.5L2028.9,2023.5z"/>
<path class="st0" d="M2467.8,2022.4c-6,1.1-16.7,3.1-25.4,4.6c-1.7-30.5-4.4-58.5-3.8-86.4c0.2-7.1,10.6-19,17.2-19.7
	c17.4-1.6,17.6,13.7,17.1,26C2471.9,1970.5,2469.8,1994,2467.8,2022.4L2467.8,2022.4z"/>
<path class="st0" d="M2389.3,1926.9c23.5-9.8,28-5.8,26.7,19.3c-1,20.4,1.7,41,1.3,61.3c-0.1,6.4-4.7,12.7-7.2,19
	c-6.6-3.9-18.2-7-18.9-11.7c-2.7-19.5-2.4-39.5-2.8-59.3C2388.2,1947,2388.9,1938.3,2389.3,1926.9L2389.3,1926.9z"/>
<path class="st0" d="M2304.5,2022.6c-1.4-4.9-3.9-9.9-4-14.9c-0.6-20.1,0.5-40.3-1-60.3c-1.5-21.1,4.6-26.7,29.4-20.5
	c-11.2,31.1,15.4,69.4-13.9,97.4C2311.5,2023.7,2308,2023.2,2304.5,2022.6L2304.5,2022.6z"/>
<path class="st0" d="M716.7,2033.2c-1.3-4.2-5.9-12.2-6.3-20.5c-1.1-19.5-0.8-39.1,0.1-58.6c0.3-7.6,1.3-19,6-21.8
	c7.2-4.1,19.2-5.1,26.6-1.7c4.6,2.1,5.9,14.6,6.2,22.5c0.7,19.6-2,39.4,0.3,58.8C751.8,2031.4,743.5,2040.6,716.7,2033.2
	L716.7,2033.2z"/>
<path class="st0" d="M329.1,1931.3c2.3,9.7,7.6,19,5.7,26.6c-4.8,19-10.3,36.7,1.6,55.5c2.3,3.7-2.2,16.3-6.8,18.8
	c-6.5,3.7-17.3,4.3-24.1,1.3c-5-2.1-8.4-12.2-9-19c-1.6-18.5-1.9-37.1-1.5-55.5c0.2-8.1,1.2-18.3,6-23.6
	C305.1,1931.3,315.5,1933,329.1,1931.3L329.1,1931.3z"/>
<path class="st0" d="M587.7,2031.1c-9.9,2.7-20.2,8.4-29.5,6.9c-5.3-0.8-11.8-12.7-12.6-20.1c-2.1-20.8-2.9-42.1-1.4-62.8
	c0.6-8.8,8.2-17.1,12.7-25.7c9.4,6,26.4,11.6,26.7,18.1c1.5,25.7-2.3,51.8-4.1,77.7C582.4,2027.2,585.1,2029.2,587.7,2031.1
	L587.7,2031.1z"/>
<path class="st0" d="M800.8,1932.6c2.2,33.1,4.4,58.5,5,84c0.1,5.8-4.2,16-8,16.7c-8,1.6-18.3,0.6-25.1-3.6
	c-4.2-2.5-5.2-12.8-5.3-19.5c-0.1-14.5,1.7-29.1,2.2-43.6c0.3-11.7-0.2-23.5-0.4-35.1C781.4,1931.8,793.7,1932.3,800.8,1932.6
	L800.8,1932.6z"/>
<path class="st0" d="M361.2,2002.3c-2.8-13-7.1-25.8-8.2-38.9c-0.8-9.2-0.4-22,5.1-27.5c4.9-4.9,21.5-5.9,25.9-1.5
	c5.7,5.8,5.4,18.4,5.8,28.1c0.8,16.7,0,33.6-0.1,50.2c-0.1,6.1,0.7,17.4-0.6,17.7c-8.8,1.6-18.5,2.7-26.8,0.3
	c-4.4-1.2-8.1-9.5-9.7-15.2c-0.9-3.4,2.6-8.1,4-12.3C358,2002.9,359.6,2002.6,361.2,2002.3L361.2,2002.3z"/>
<path class="st0" d="M642.3,2032.2c-13.5,0.8-27.1,1.6-34.8,2c-3.1-31.8-6.3-56.7-7.4-81.7c-0.3-6.5,4.1-16.1,9.2-19
	c6.7-3.8,19.3-5.8,24-2c5.7,4.6,8.1,16.3,7.8,24.6c-1,23.2-4.2,46.3-6.6,69.4C637.2,2027.7,639.8,2029.9,642.3,2032.2L642.3,2032.2z
	"/>
<path class="st0" d="M137,1935.3c37.3,2.8,37.8,4.6,31.1,39.4c-2.5,13-3.1,28.6,2,40.2c6.8,15.5-0.1,17.5-11.3,22.3
	c-14.3,6.1-25.1-0.2-26.1-11.8c-2.2-27.8-0.2-56.1,0.4-84.1C133.1,1940,134.9,1938.5,137,1935.3z"/>
<path class="st0" d="M684.3,1965.1c1.8,15.8,3.8,31.6,5.5,47.3c0.6,6.2,2.4,16.5,0.1,17.7c-7.9,4-18.1,7.2-26.2,5.4
	c-5-1.1-11.3-11.8-11.3-18.2c-0.2-22.8,1.5-45.6,3.9-68.3c0.7-6.3,4.7-15.4,9.4-17.2c6.4-2.4,16.1-0.7,22.1,3
	c4.1,2.5,5.1,11.4,5.6,17.5c0.3,3.9-2.9,8.2-4.6,12.3C687.3,1964.7,685.9,1964.9,684.3,1965.1L684.3,1965.1z"/>
<path class="st0" d="M223,2034c-7.5,0.6-20.7,1.7-29.3,2.4c-2.6-32.4-6-59.3-6.1-86.3c0-5.5,11.7-15.5,18.6-16
	c15.9-1.1,22.9,9.4,21.5,25.7C225.8,1982.5,224.8,2005.4,223,2034z"/>
<path class="st0" d="M247.2,1935.7c35.5,0.4,35.1,1.7,28.8,32.5c-3.1,15,1.8,31.7,2.3,47.6c0.2,5.2-0.2,13.7-3,15.2
	c-6.7,3.3-15.3,4.5-22.8,3.8c-3.1-0.3-9-9.4-8-11.6c12.4-25.1,4.8-49.3-1.3-73.9C242.4,1945.7,245.5,1941.1,247.2,1935.7
	L247.2,1935.7z"/>
<path class="st0" d="M517.4,1924.1c3.7,9.3,7.1,14.3,7.5,19.4c1.8,26.3-13.6,52.9,1.9,79.4c0.8,1.4-9,11.3-15.1,13.4
	c-2.7,1-12.5-7-12.7-11.4c-1.7-27.7-2.8-55.5-1.5-83.3C497.7,1936.5,508.5,1931.7,517.4,1924.1L517.4,1924.1z"/>
<path class="st0" d="M442.6,2026.2c-6.1,3.7-13.5,11-17.1,9.5c-5.8-2.4-12-10.6-12.6-16.7c-1.8-20,0.7-40.4-1.7-60.2
	c-1.5-13-1.4-23.7,12.6-26.1c13.8-2.3,16.8,7.5,16.8,20.1C440.3,1976.3,441.7,1999.6,442.6,2026.2z"/>
</svg>
