<?xml version="1.0" encoding="utf-8"?>
<!-- Generator: Adobe Illustrator 26.5.1, SVG Export Plug-In . SVG Version: 6.00 Build 0)  -->
<svg version="1.1" id="Layer_1" xmlns="http://www.w3.org/2000/svg" xmlns:xlink="http://www.w3.org/1999/xlink" x="0px" y="0px"
	 viewBox="0 0 2551.8 2518" style="enable-background:new 0 0 2551.8 2518;" xml:space="preserve">
<style type="text/css">
	.st0{fill:#FFFFFF;}
</style>
<path class="st0" d="M2243.7,2117.6c-4.4-9.8-7.2-20.9-13.7-29.1c-10.7-13.6-6.2-21.8,6.7-28.2c12.1-5.9,24.6-11.2,37.2-15.8
	c17.1-6.3,25.7-14.1,18.6-35.2c-6.7-19.9-7.1-41.9-10.6-62.9c-2.2-13.2-4.5-26.3-7.3-39.4c-4-18.6,11.4-38.6,39.1-48.8
	c25.9-9.6,52-18.5,77.2-27.3c2.6,2.2,5.1,3.6,4.9,4.2c-8.9,33.3,11.7,57.1,26.2,83c24.3,43.4,47.9,87.2,71.7,130.9
	c6.1,11.2,18.6,31.1,16.8,32.6c-17.1,13.5-36.6,24.1-55.7,34.9c-6.1,3.5-13.4,4.7-19.9,7.7c-21.2,10-40.2,13.4-58.5-7.8
	c-19.1-22.1-40.5-42.1-61.9-62.1c-4.5-4.2-13.2-3.8-20-5.6c1.2,7.2,0.5,15.5,3.8,21.5c12.2,22.1,25.1,44,39.1,65
	c9,13.5,4.7,17.9-9.1,21c-44.9,10.2-44.6,10.3-71.3-28.8c-3.1-4.5-9.3-7-14-10.4L2243.7,2117.6L2243.7,2117.6z"/>
<path class="st0" d="M2023.7,1751.8c-4.1-7.6-7.2-17.2-13.3-24.2c-14.8-17-1.7-25.2,10.3-30.1c38.1-15.5,47.8-29.4,44.7-70.8
	c-0.1-1.6-0.9-3.3-0.5-4.8c3-11.1,3.1-28.8,9.9-32c22.4-10.5,45.3-2.2,55,15.1c4.3,7.7,6.4,16.9,12,23.3
	c6.1,7.1,15.6,17.2,22.7,16.5c18-1.7,23.3,8.3,29.7,20.9c8.4,16.7,14.8,32.8,40.9,33.1c9.2,0.1,19.9,28.2,25.8,44.9
	c1.3,3.7-13.4,17-22.6,19.8c-37.6,11.4-75.5,22.7-114.1,29.6c-29.1,5.2-59.3,3.6-87.5,4.9c-8.9-23.3-1.8-29.9,14.8-35
	c34.5-10.5,68.3-23.7,102.3-35.8c-1.1-3.7-2.2-7.4-3.4-11.1C2109,1727.9,2067.4,1739.6,2023.7,1751.8L2023.7,1751.8z"/>
<path class="st0" d="M1786.9,2036.5v-46.6c32.6-10.1,64.7-21.5,97.6-29.8c19.3-4.8,32.3-12.1,30.7-40.4
	c27.8,11.5,52.1,21.1,75.8,31.9c4.2,1.9,8.2,8.3,9,13.2c4.1,24.1,10.3,48.3,9.7,72.4c-1.2,53.2,19.7,96.1,53.5,134.8
	c5.2,6,8.4,13.9,14.5,24.5h-44.6c-0.4-1.7-0.2-6.7-2.5-8.5c-39.4-31.6-35.2-82.8-55.4-123c-9.8-19.5-15.5-41.4-21-62.8
	c-3.9-15.3-13.1-17.6-25.1-13.6C1883.4,2003.6,1837.8,2019.3,1786.9,2036.5L1786.9,2036.5z"/>
<path class="st0" d="M2123.5,2232.3c27.8-12.3,51.2-23.6,75.4-33.2c14.7-5.8,26.9-3.7,34.2,14.3c11.1,27.4,24.1,54.2,37.5,80.6
	c13.5,26.6,28.6,52.3,42.5,78.7c1.9,3.5,0.2,8.9,0.2,17.1c-16.8-3.4-31.6-6.8-46.6-9.2c-7-1.1-16.2-3.1-21,0.3
	c-17,11.7-27.8,3.1-36-9.8C2180.9,2325.9,2153.1,2280.2,2123.5,2232.3L2123.5,2232.3z"/>
<path class="st0" d="M2243.1,2117c-1.6,29.1,22.1,45.3,34.7,67c14.2,24.6,33.6,35.8,62,17.9c7.2-4.6,18.6-2.5,29.9-3.6
	c19,26.8,39.2,54.7,58.8,83c7.5,10.8,11.4,24.6-4.6,29.6c-21.1,6.6-43.6,8.8-65.5,13.1c-22.5,4.4-42.4-3.8-56.3-19.1
	c-12.9-14.1-20.2-33.4-30.1-50.5c23.3-10.4,25.1-29.6,5.7-44.5c-20.5-15.9-41.7-30.9-62.5-46.5c-17.4-13-16.9-27.6,2-37.2
	c8.2-4.2,17.6-5.8,26.6-8.6L2243.1,2117L2243.1,2117z"/>
<path class="st0" d="M382.6,1550.2c16.8-18.3,24.5-35.2,11.4-57c-2.6-4.4,5.9-20.6,13.1-24.6c14.7-8.2,32-11.8,46.4-16.7
	c4.1,9.4,10.2,18.7,11.9,28.7c2.6,15.3-7.4,21.5-21.7,23.7c-11.9,1.8-23.4,5.9-35,9c0.1,3,0.3,5.9,0.4,8.9c18.2,7,36.4,14,54.7,21.1
	c-6,12.5-12.7,26.5-19,39.8c-16.4-5.9-33.4-12-50.4-18.1c-12.3,34.9-19.1,37.8-47.4,21.4c-13-7.5-38.8-8-22-35.2
	c0.9-1.5-6.3-8-11.5-6.4c-23.6-7.1-47.2-14.2-72-21.7c31.3-44.2,32.2-44.4,74.6-17.3c2.4-24.8,12.2-20.6,28.3-9.8
	C364.6,1509.1,389.1,1517,382.6,1550.2L382.6,1550.2z"/>
<path class="st0" d="M2136.8,2135.7c-22.8-14.3-46.1-29-68.4-43c-4.6-15.6-7.1-31.6-13.8-45.7c-9.7-20.5,1-39.6,1-59.3
	c0-2.8,6.1-7.5,9.7-7.9c28.4-3.4,57,17.7,68.2,45.3c6.3,15.5,17.9,28.9,27.5,43c15.8,23.2,12.5,42.3-11.4,57.6
	C2145.8,2128.3,2142.3,2131.4,2136.8,2135.7L2136.8,2135.7z"/>
<path class="st0" d="M1857.8,1729.5c-6.3-14.8-14.3-24.3-12.6-31.4c4-16,10.2-34.8,32.3-32.7c9.6,0.9,18.5,8.2,27.7,12.7
	c-1,2.4-2,4.7-3,7.1c-9,1.9-18,3.8-30.5,6.5c18.4,27.3,42.4-7.9,60.4,15.3c2.9,20.5,8.8,47.4-19.4,66.1c-5.3,3.5-10.7,8.1-16.6,9.1
	c-32.2,5.5-64.6,10.4-97.1,14.6c-5.4,0.7-11.3-3.2-17-4.9c2.5-6,3.2-14.9,7.7-17.6c21.5-12.8,32.7-41.9,63.5-40.5
	C1856.2,1733.9,1859.3,1727.9,1857.8,1729.5L1857.8,1729.5z"/>
<path class="st0" d="M1648.5,1887.9c-14.7,5.5-29,12.2-44.1,16.4c-63.6,17.7-127.8,33-190.8,52.5c-61.6,19.1-121.8,42.5-183,63.2
	c-6.4,2.2-14.5-0.9-21.8-1.6c5.2-4.3,9.6-10.7,15.6-12.7c81.9-27.5,164-54.3,246-81.6c15-5,29.3-12.3,44.6-16.2
	c20.6-5.3,32.7-13.2,20.6-36.4c-1.5-2.9,0.3-7.6,0.8-16.1c37.4,9,73.2,17.5,109.1,26.1C1646.5,1883.7,1647.5,1885.8,1648.5,1887.9
	L1648.5,1887.9z"/>
<path class="st0" d="M1364.9,1408.9c14.3,9.7,30.8,16.3,16.4,37.1c-1.5,2.2-1.5,7,0,9.3c15.5,24.3-0.4,34.9-19.4,42.7
	c-21.3,8.8-36.8,34.6-59.9,25.7c-13.6-24.5-26.1-44.5-35.8-65.8c-4-8.8-6.9-24.7-2.2-29.5c9-9.3,23.6-13.6,36.4-18.2
	c1.6-0.6,6.8,10.2,10.9,15.3c5.9,7.4,11.2,18.1,18.9,20.5c5.1,1.6,14.9-8.2,20.8-14.5C1356.7,1425.4,1360,1417.2,1364.9,1408.9
	L1364.9,1408.9z"/>
<path class="st0" d="M1784.7,938.3c-8.6,30.1-34.4,38.3-56.2,44.4c-52.8,14.9-112.4-8.8-145.3-56.5
	C1652.1,929.2,1717.8,919.2,1784.7,938.3z"/>
<path class="st0" d="M802.9,1056.2c36.8,11.7,71.2,22.7,104.9,33.4c-3.2,18.5-6.2,35.9-9.8,56.4c-11,0.5-24.2,1.2-38.8,1.9
	c-1,8.8-1.8,16.5-3.4,30.5c-21.5-4.2-42.5-8.2-68.8-13.3c5.8-14.4,9-25.1,14.4-34.5c1.8-3.2,9.8-5.3,14-4.2
	c13.7,3.6,26.9,8.8,43.4,14.5v-24.1c-19.3-5.3-37.3-10.1-55.9-15.2L802.9,1056.2L802.9,1056.2z"/>
<path class="st0" d="M988.8,1253.8c0.4,3.1,0.1,6.6,1.5,9c1.3,2.2,4.5,3.3,7.1,5c-6.7,7.5-12.3,13.8-19.4,21.7
	c-5.2-6.7-8.6-11.1-11.8-15.3c-7.9,0.2-36.7,34.3-35.8,42.7c1.7,15.7,2.6,29.1-20.2,27.9c-20.5-1.1-28.2-11.3-26-30.2
	c2.1-17.4-0.5-37.3,25.1-42.5c5.4-1.1,9.9-13.9,12-22.1c4.3-16.9,6.7-34.2,10.2-53.3c7,2.7,12,6.6,14.9,5.4
	c20.9-8.7,21.2,4.3,22.9,19.1c0.9,7.8,6.4,15.2,9.8,22.8L988.8,1253.8L988.8,1253.8z"/>
<path class="st0" d="M246.7,1290.9c12.8,12.1,25.4,24.1,44.5,42.2c-6.8-36.2,4.6-49.5,34-44.2c33.5,6,22.6,34.1,26.4,47.4
	c-19.2,12.7-35.4,24.9-53,34.5c-18.8,10.3-32.9-5.6-48.5-12.1c-3.5-1.5-6.3-4.7-9.2-7.3C212.8,1326.5,214.4,1312.5,246.7,1290.9
	L246.7,1290.9z"/>
<path class="st0" d="M1745,1881.6c27.3-7.2,56.9-22.1,85.7-20.8c29.1,1.4,57.4,18.9,88,34.1c-51,14.6-102,29.1-151,43.1
	C1760.3,1919.8,1753.7,1903.5,1745,1881.6z"/>
<path class="st0" d="M850.5,1552.6c-1.9,17.1-3.6,34.2-5.8,51.3c-1.5,11.8-6,23.6-5.3,35.3c1.1,19.9-8.2,27-26.3,29.1
	c-23,2.7-45.9,7-71.6,11c3.5-23.2,6.4-36,27.9-46.1c21-9.9,35.3-34.5,51.8-53.3c8.1-9.2,14.3-20,21.4-30.1
	C845.2,1550.7,847.8,1551.6,850.5,1552.6L850.5,1552.6z"/>
<path class="st0" d="M1689.3,1894.6c3.1,12.7,4,20.7,7.1,27.8c7.6,17.4,0.8,36.8-17.3,43.3c-20.1,7.2-40.6,12.8-62.1,19.5
	c-2.2-3.8-4.5-6.9-6-10.3c-22-49-18.1-57,32.6-68.8C1658.7,1902.6,1673.7,1898.5,1689.3,1894.6L1689.3,1894.6z"/>
<path class="st0" d="M1359.2,1625.9c26.3-4.6,52.6-9.1,78.8-13.7c9.4,14,20.3,30.2,31.2,46.4c-52.6,27.9-117.4,23.1-148-13.4
	c13.3-6.8,25.9-13.3,38.6-19.8L1359.2,1625.9L1359.2,1625.9z"/>
<path class="st0" d="M915.8,814.6c5.2,25,9.6,46,14.1,67.7c36.1-15.5,46.1-8.7,48.6,28.6c0.5,7.2,3.3,14.3,5.1,21.6
	c-11.1,2.2-23.8,4.7-43.3,8.6c-2.2-7.6-6.9-18.8-8.6-30.4c-2.7-18.5-5.1-33.5-30.6-24.8c-17.2,5.8-22.9-9.3-25.6-21.5
	c-2.5-11.3-0.5-23.5-0.5-36.3C889,823.4,902.9,818.9,915.8,814.6L915.8,814.6z"/>
<path class="st0" d="M541.2,906.5c-27.6-8.5-39.6,15-57.7,30.2c-2.9-5.4-5.6-9-7-13.1c-3.3-9.3-27.1-8.6-14.8-23.5
	c12.5-15.1,25.8-31.4,50.7-30.2c8.6,0.4,20.7-9.3,26.2-17.6c18.9-28.4,32-10.3,46.6,3.7c3.6,3.4,8.5,5.4,12.9,8l-0.5-0.5
	c-2.8,2.8-5.7,5.7-8.5,8.5c-3.7,3.7-7.4,7.3-11.1,11C565.8,890.9,553.5,898.7,541.2,906.5L541.2,906.5z"/>
<path class="st0" d="M1172,1233.2c-3.6,12.9-6.5,28.7-12.8,43c-2.3,5.3-16.2,11.6-18.8,9.6c-27.4-21.1-27.4,5.6-36.2,21.2
	c-13.2-4.3-26.9-8.9-44.4-14.6c5.2-16.2,7.7-33.8,16.2-47.6c9.8-15.9,25-11.9,40.3,2.3C1128.9,1224.9,1144,1205.1,1172,1233.2
	L1172,1233.2z"/>
<path class="st0" d="M1470.4,1429.7c19.1,8.8,34.7,16,51.6,23.8c3.2,30.6-29.4,64.6-62,62.3c-25.9-1.8-24.6-25.9-33-41.3
	c-1.6-2.9,8.8-13.2,14.7-19.1C1451.2,1446,1461.6,1437.5,1470.4,1429.7L1470.4,1429.7z"/>
<path class="st0" d="M586.2,1305.2c-12.3,0.8-23.4,1.4-34.6,2.2c6.7,22.7,0.8,32.6-21.7,37.4c-27.5,5.9-42.9-5-46.2-32.7
	c9.8-4.6,22.1-7.1,29.3-14.6c7-7.3,8.8-19.6,14-32.6c6.9,0,16.3,0,25.8,0C577.2,1264.8,588.3,1278.3,586.2,1305.2L586.2,1305.2z"/>
<path class="st0" d="M1701.2,1553.2c8.3,15.3,20.6,28,18,35.6c-4.5,13.3-16.4,30.2-28.5,33.6c-30.4,8.4-62.7,11.2-94.4,14.1
	c-17.6,1.6-38.3-19-42.1-42.3c17.3,3.8,32.7,9,48.4,10c15.7,1,31.7-2.3,47.6-3.8c17.4-1.6,32.3-5.4,34.2-27.4
	C1684.8,1568.1,1692,1563.7,1701.2,1553.2L1701.2,1553.2z"/>
<path class="st0" d="M2139.2,1857.8c7.9,57.6-8.8,85-96.2,53.3c-0.7-5.7-1.2-12-2.2-18.2c-2.8-17.7,2.3-25.6,22.5-26
	C2088.1,1866.5,2112.9,1861.1,2139.2,1857.8z"/>
<path class="st0" d="M1377.9,2048.1c30.6-19.8,61.3-39.7,91.9-59.5c6-3.8,11.5-8.7,18-11.2c9.1-3.6,18.9-5.5,28.4-8.2
	c0.4,14.3,6.3,32.5-0.3,42.1c-7.9,11.4-25.9,19.5-40.6,21.8c-20.5,3.2-39.6,1.3-54.8,21.8c-5.2,7.1-25.8,2.9-39.4,3.9
	C1380.1,2055.2,1379,2051.6,1377.9,2048.1L1377.9,2048.1z"/>
<path class="st0" d="M1202,1017c-0.9,11.3-1.9,23.1-2.6,32.1c-12.2,6.5-22.8,12.1-33.3,17.8c0.8,2.5,1.6,5,2.4,7.5
	c-18.4-6.9-36.9-13.9-59-22.2c-0.8-18.3-1.7-38.2-2.8-60.9C1142.3,1000.9,1171.6,1008.8,1202,1017L1202,1017z"/>
<path class="st0" d="M1834.1,1538.5c6.3-5.9,12.9-11.9,19.3-18.1c20.3-19.7,55.7-21.5,76.1-2.7c2.7,2.5,2.6,12.8-0.1,15.7
	c-15.9,16.9-31.9,34.2-50.2,48.4c-15.5,12-30.5,4.3-35.5-14.5C1841.2,1558.3,1837.8,1549.6,1834.1,1538.5L1834.1,1538.5z"/>
<path class="st0" d="M1566.6,2072.6c-8.1-30.6,0.1-43.4,28.5-48.7c28.8-5.4,56.2-18.3,84.2-27.9c3.9,13.1,8,22.6,9.1,32.4
	c0.5,4.7-3.6,13.6-7.2,14.6C1643.4,2053.5,1605.3,2062.8,1566.6,2072.6L1566.6,2072.6z"/>
<path class="st0" d="M119.9,1455.1c-6.8-12.2-14.3-25.5-22.6-40.5c24.2-9.9,46.9-28.2,61.4-23c18.8,6.7,35.2-17.8,51.2,2.4
	c14,17.7,11.3,21.1-6.1,34.1c-19.6,14.6-41.2,13.2-62.2,18.1C135.4,1447.7,129.6,1451.1,119.9,1455.1L119.9,1455.1z"/>
<path class="st0" d="M370.2,1117.8c-8.3,5.1-15.1,7.4-19.2,12.1c-14,16.2-35.3,22.6-49.4,13.8c-18.9-11.9-27.4-34-20-53.1
	c2.7-7,5.3-14.4,9.6-20.4c7.7-10.8,15.4-21,29.1-4.5C335.6,1083.8,353.2,1100.2,370.2,1117.8L370.2,1117.8z"/>
<path class="st0" d="M344.4,1450.7c-25.8,5.1-49.1,10.5-72.6,13.7c-4.2,0.6-11.7-6.7-14-12c-4-9.1-5.2-19.5-7.7-29.6
	c31.8-11.7,60.9-22.4,94.3-34.7L344.4,1450.7L344.4,1450.7z"/>
<path class="st0" d="M1244,1803.6c-5.4,19.6-4.7,47.7-17.5,56.7c-21.9,15.5-49.3,30.1-82.4,26.4c2.4-4.9,2.9-7.7,4.4-8.6
	c17.6-9.8,45.6-12,23.6-45c-8-12-0.6-25.1,19.1-26.1c15-0.7,29.8-6.7,44.7-10.4C1238.6,1799,1241.3,1801.3,1244,1803.6L1244,1803.6z
	"/>
<path class="st0" d="M2259,1957.8c5.7,44.7,0.9,57.8-20,58.4c-49.3,1.3-66.6-15.4-65.8-68.3
	C2201.7,1951.2,2229.7,1954.4,2259,1957.8z"/>
<path class="st0" d="M1720.3,1302.1c-25.4,33.4-23.7,43.1,10.9,65c22.3,14.2,20,35.5,19.2,64.8c-14.5-11.6-29.8-17.9-33.9-28.6
	c-6.4-16.6-18.3-22.4-31.8-28.7c-19.3-8.9-24.9-34.1-11.3-50.2C1696.6,1296.9,1697.3,1296.5,1720.3,1302.1L1720.3,1302.1z"/>
<path class="st0" d="M1233.9,1309.9c-11.3,25.8-21.3,48.6-31.6,72c4.4,4.8,9.9,11,19.2,21.2c-12.3-1-20.3-1.9-28.2-2.3
	c-4.6-0.2-9.4,1-13.9,0.2c-8.4-1.6-17.1-3.4-24.5-7.3c-1.8-0.9,0.6-10.2,1.1-15.6c4.9,0.5,10,0.4,14.8,1.5
	c6.5,1.5,12.8,3.8,19.2,5.8c1.1-2.3,2.3-4.7,3.4-7.1c-9.5-6.4-18.9-12.9-28.4-19.3c2.9-11.2,3.9-24.5,9.8-35
	c6.5-11.6,8.6-38.4,33.6-16.5C1212.1,1310.8,1220.5,1308.9,1233.9,1309.9L1233.9,1309.9z"/>
<path class="st0" d="M657.9,1465.8c-12.8-2.4-26.5-5-40.3-7.6c-2.7,2.1-5.3,4.2-8,6.2c0.8-8.6,1.7-17.1,2.2-21.9
	c16.9,0,28.3-0.2,39.7,0c18.9,0.4,38.7-5.2,55.8,8.6c14.2,11.4,13.7,24.6-1.4,34.1c-2.9,1.8-4.9,5.1-7.1,8
	c-5.2,6.7-12,20.1-15.1,19.3c-11.8-3.2-24-9.3-32.7-17.8C647.9,1491.5,654.5,1478.6,657.9,1465.8L657.9,1465.8z"/>
<path class="st0" d="M1697.9,1488.1c-41.1-17.3-74.1-31.1-106.6-44.8c20.2-11.4,40.9-23.2,62.9-35.6c4.4,10.2,10.1,26.5,32.3,19.8
	c3.6-1.1,13.8,5.6,13.9,8.9C1701,1452.2,1699.2,1468,1697.9,1488.1L1697.9,1488.1z"/>
<path class="st0" d="M1478.6,1361.3c-33.4,12.7-57.8,2.1-77.7-23.9c-7.4-9.7-9.9-17.3,3.8-21.1c17-4.7,35.5-12.9,51.5-10
	C1487.1,1311.9,1483.8,1337.4,1478.6,1361.3z"/>
<path class="st0" d="M672.2,1145.5c23.7-64.8,26.2-66.5,87.5-57.9c0.5,3.3,1.2,7,1.4,10.8c0.2,3.9-0.3,7.9-0.5,13.4
	c-10.4,1.7-20.5,3.3-31.5,5.1c-0.5,3.6-0.4,7.7-1.7,11.3c-3.1,8.4-5.2,18.2-11.1,24c-2.8,2.7-13.4-3.1-20.6-4.2
	C688,1146.7,680.3,1146.3,672.2,1145.5z"/>
<path class="st0" d="M1517,1846.1c-33,10.5-63.5,20.6-94.3,29.4c-4.6,1.3-10.9-3.6-16.4-5.6c3.2-4.2,7.3-7.9,9.5-12.6
	c3.3-7.1,5.2-14.8,7.8-22.2c2.7-7.7,3.7-19.6,9-22c7.1-3.2,18.4-1.2,26.3,2.3C1477.1,1823.6,1494.4,1834,1517,1846.1z"/>
<path class="st0" d="M1572.3,1349.3c31-11.7,44.9-9.4,60.7,14.7c5.3,8.1,4.9,30.1,0.1,32.7c-13.9,7.4-33.6,14.8-46.8,10.1
	C1557.9,1396.8,1578.3,1369.7,1572.3,1349.3L1572.3,1349.3z"/>
<path class="st0" d="M1570.5,1661.3c-58.4,14.3-79.8,17.1-93.9-31C1523,1602.1,1559,1613.9,1570.5,1661.3z"/>
<path class="st0" d="M1245.7,2076.9c6.3-6.4,11.9-13.6,18.9-18.7c11.3-8.2,24.8-13.7,35.3-22.8c14.3-12.4,25.3-6.2,34.1,4.8
	c2.8,3.6,0.7,16-3.3,19.3c-15.9,12.9-33.1,24.5-50.8,35c-6.8,4-16.5,5.9-24.1,4.4C1252.1,2098.1,1250.3,2087.5,1245.7,2076.9
	L1245.7,2076.9z"/>
<path class="st0" d="M147.1,1177c-19.5,17.2-35.2,31.2-51,45.2c-9.5-10.8-18.8-23.3-30-33.6c-11.7-10.8-12.3-19.1-1.3-31
	c11.5-12.4,19.3-11.6,30.6,0.4c5.5,5.9,15.9,7.4,24.3,10.4C128.8,1171.5,138.2,1174.2,147.1,1177L147.1,1177z"/>
<path class="st0" d="M1752.6,1151.1c20.2-28.4,28.5-30.4,69.8-14.9c9.6,3.6,18.5,8.7,27.8,13.1c-11.6,27.4-28.7,37.1-51.4,35.4
	C1779.1,1170.4,1765.8,1160.8,1752.6,1151.1L1752.6,1151.1z"/>
<path class="st0" d="M541.2,906.5c12.3-7.8,24.5-15.6,36.8-23.5c18,6.3,31.8,16.3,33.1,35.3c-9.4,8.9-16.4,18.5-25.9,23.8
	c-9.7,5.5-24,12.3-32.2,8.8c-10.3-4.4-20.3-17.1-12.5-32.8C542.1,914.9,541.1,910.4,541.2,906.5L541.2,906.5z"/>
<path class="st0" d="M1501.4,1145.5c10.7-3.8,21.4-9.3,32.7-11.1c6.4-1,13.7,4,20.6,6.4c-3.5,8.8-5.7,18.5-10.9,26.1
	c-6.1,8.9-16,15.1-22.3,23.9c-10.3,14.5-23,10-33.6,3.7c-6.5-3.9-14.9-17.5-12.9-20.5C1481.9,1163.5,1477.6,1140.3,1501.4,1145.5
	L1501.4,1145.5z"/>
<path class="st0" d="M686.6,1345.7c-37.2-2.5-55.3-16.6-54.2-42.2c11.7-6.4,24-12.3,35.3-19.5c12.5-8,15.6-3.9,21.8,8.8
	C699.1,1312.3,692.2,1328.4,686.6,1345.7L686.6,1345.7z"/>
<path class="st0" d="M1633.8,1153.5c12.2,4.7,24.9,8.4,36.6,14.3c8,4,18.5,9.7,20.8,16.9c2.6,8.2-0.1,25.2-5.1,27.2
	c-9.4,3.8-23.6,2.9-33-1.7C1615.5,1191.7,1612.5,1180.7,1633.8,1153.5L1633.8,1153.5z"/>
<path class="st0" d="M152.8,1108c-8.1-6.1-12.5-8.9-16.3-12.3c-8.1-7.2-15.5-15.2-23.8-22c-13.5-11.1-12.9-20.9-0.2-32.7
	c11.2-10.4,20.5-19.1,33.4-2.2c6,7.9,14.6,13.8,20.9,21.6c4.4,5.6,11.3,15,9.3,18.8C170.7,1089.5,161.4,1097.9,152.8,1108
	L152.8,1108z"/>
<path class="st0" d="M444.6,1271.8c-13.4-10-27.6-17.8-37.6-29.2c-5.4-6.2-3.8-18.5-5.3-28.1c13.1-1.5,18.8-31,37.9-10
	c3.7,4,7.8,7.6,11.6,11.4c23.3,22.9,23.3,25.3,0.4,47.4C449.4,1265.5,447.6,1268.2,444.6,1271.8L444.6,1271.8z"/>
<path class="st0" d="M555.2,1169.6c4.1,10,8.1,19.9,14.3,35.2c-24.7,4.5-48.1,8.7-71.1,12.9C484,1169.7,490.8,1164.5,555.2,1169.6z"
	/>
<path class="st0" d="M1099.7,1718.5c4.9,10.7,6.3,19.9,10.4,21.4c21.1,7.8,19,23.7,16.3,42.1H1064c-1.8-20.1-8.7-40.2,21.5-46.1
	C1091.8,1734.7,1096,1723.2,1099.7,1718.5L1099.7,1718.5z"/>
<path class="st0" d="M290.9,1573.8c-5,13.8-9.8,27.1-15.5,42.8c-18.2-8-37-13.6-51.9-24.4c-4.7-3.4-1.5-22.3,2.9-31.8
	c2.9-6.2,10.6-18,24.1-6.5C260.4,1562.3,274.5,1566,290.9,1573.8L290.9,1573.8z"/>
<path class="st0" d="M598.2,864c0.2-3.2,0.7-6.4,0.7-9.5c0.1-12.9-24.6-22.1-5.5-37.8c10.1-8.3,19.5-17.7,30.5-24.6
	c3.4-2.2,12.8,0.5,16.3,4.1c6.7,6.7,11,15.7,19,27.7c-19.4,12.5-40.5,26.1-61.5,39.7L598.2,864z"/>
<path class="st0" d="M777.3,1250.8c1.1-9.3,2.8-18.5,3.2-27.7c0.7-18,13.4-18.2,25.1-15.6c12.3,2.7,25,6.9,35.4,13.7
	c19.6,12.8-5.6,23.8-3.3,36.4c-6.4-0.1-12.9,0.3-19.2-0.4C806.1,1255.5,793.7,1253.3,777.3,1250.8L777.3,1250.8z"/>
<path class="st0" d="M1256.8,1645.9v40.1h-64.7c-0.5-5.8,1-13.4-1.9-18.8c-9.5-17.7,1.6-20.4,14.4-21.1
	C1221.3,1645.3,1238,1645.9,1256.8,1645.9L1256.8,1645.9z"/>
<path class="st0" d="M986.1,1175.1h-46.4c4.5-19.9,8.5-38.1,13-58h46.6C995,1136.1,990.8,1154.3,986.1,1175.1L986.1,1175.1z"/>
<path class="st0" d="M124.8,1270.2c7,16.3,11.9,27.8,16.8,39.2c-16,8.6-28.7,16.7-42.4,22c-5.5,2.2-13.3-1.7-20.1-2.8
	c2.7-10.8-23.9-18.8-3.3-31.1C91.2,1288.3,107.2,1280,124.8,1270.2z"/>
<path class="st0" d="M1768.1,2036.7c5.7,40.5-10.2,53-60.2,50.6c-11.1-32.3-4.4-40.9,40.3-50.4
	C1754.2,2035.6,1760.7,2036.7,1768.1,2036.7L1768.1,2036.7z"/>
<path class="st0" d="M1189.3,920.8v46c-21.4-5.1-40.4-9.6-59.5-14.2v-44.9C1150.5,912.3,1169.1,916.4,1189.3,920.8z"/>
<path class="st0" d="M1334.3,1272.3c-24.6,0-47.9,0.9-71.2-0.9c-4-0.3-7.2-12-10.8-18.4c14.1-7.3,27.8-16,42.7-21.1
	c4.1-1.4,12.8,6.6,17.6,11.9C1320.3,1252.1,1326.4,1261.7,1334.3,1272.3z"/>
<path class="st0" d="M461.2,1107.5c19.4-1.7,37.8-3.4,57.9-5.2c3.3,9.2,7.9,21.8,12.5,34.4C472.4,1158.4,448.9,1148,461.2,1107.5z"
	/>
<path class="st0" d="M2190.8,2187c-23.7,11-43.9,23.4-65.9,29.1c-8.8,2.3-21.4-9.8-37.2-17.9c9.9-6.9,13.9-11.4,15.8-10.7
	c23.5,9.7,33.9-8.7,45.4-21.9c9.5-10.9,14.4-13.8,21.7,1.4C2173.6,2173.6,2181.3,2178,2190.8,2187L2190.8,2187z"/>
<path class="st0" d="M1862.2,1346.5c19.9,16,34.6,27.9,50.3,40.6c-10.8,21.4-30.3,21.7-47.4,18.6c-10.9-2-29.7-17.2-28.6-20.1
	C1842.1,1371.4,1853.1,1359.4,1862.2,1346.5L1862.2,1346.5z"/>
<path class="st0" d="M1126.9,1819c-4.6,14.9-8,26-11.9,39c-10.6-0.6-24.2,1.6-35.1-2.9c-9-3.7-20.2-15.2-20.3-23.3
	c0-7.3,13.4-20.1,21.6-20.7C1096.3,1810,1112,1816,1126.9,1819L1126.9,1819z"/>
<path class="st0" d="M566.7,1053.8c5-22.3,9.2-41.4,13.5-60.5c13.6,0.7,25.4,1.4,41,2.2c-4.2,19.2-8.2,37.7-12.7,58.3H566.7
	L566.7,1053.8z"/>
<path class="st0" d="M1194.8,1527.7c-15.2,7.9-25.7,16.8-37.4,18.5c-10.3,1.6-22.8-3-31.9-8.8c-2.7-1.7,0.1-21.1,5.5-24.6
	c11.9-7.8,27.6-15.6,40.6-14C1180.2,1499.9,1186.9,1517.2,1194.8,1527.7L1194.8,1527.7z"/>
<path class="st0" d="M1715.4,2010.3c2.7-15.3,5.4-30.5,9.2-52c8.1-1.1,22.9-6.9,34.3-2.9c6.4,2.2,13.1,27.2,9.2,30.9
	c-13.6,12.8-31.7,20.8-48.1,30.7C1718.5,2014.7,1717,2012.5,1715.4,2010.3L1715.4,2010.3z"/>
<path class="st0" d="M1359.9,1625.5c-17.5,1-34.9,2-52.4,3c-4.2-16.3,5.1-32.1,21.5-30.2c25.2,2.9,43.5-6,58.6-25.5
	c13.6,32.5,12.3,35.6-16.4,45.3c-4.3,1.5-7.9,5.1-11.9,7.8C1359.2,1625.9,1359.9,1625.5,1359.9,1625.5L1359.9,1625.5z"/>
<path class="st0" d="M489.1,1480.5c-8.1-20.7-13.3-33.8-18.9-48.1c18.9-28,37.5-34.6,68.2-22.6c-7.8,20.4-40.9,7.6-46.5,26
	c12.7,6.5,25.8,9.3,26.8,14.4C523.5,1475.7,496.4,1463.7,489.1,1480.5L489.1,1480.5z"/>
<path class="st0" d="M1929.7,1805c-29.3,31.8-40.8,32-96.6,8.2c16.2-22,40.7-12.9,59.9-17.3
	C1902.4,1793.7,1913.9,1800.7,1929.7,1805L1929.7,1805z"/>
<path class="st0" d="M1310,1907.2c-53.8,34.1-127.1,51.8-137.9,35.8c13.7-4.8,26.7-9.5,39.8-14.1c24.7-8.6,49.1-18,74.2-25.2
	C1293.1,1901.6,1302,1905.8,1310,1907.2L1310,1907.2z"/>
<path class="st0" d="M1619.2,1833c-36.7-9.1-70.8-17.7-105-26.2c-0.1-2.4-0.3-4.8-0.4-7.2c14.7-1.3,29.4-3.2,44.2-3.8
	c11-0.4,22.2,2,33.2,1.3C1612.1,1795.9,1619.7,1806.1,1619.2,1833L1619.2,1833z"/>
<path class="st0" d="M1681.1,1507.3c-11.6,2.1-25,9-34.5,5.4c-25.9-9.7-51.9-22-63.9-49.3c1.2-2,2.5-4,3.7-5.9
	c31.2,13.5,62.3,27,93.4,40.5C1680.2,1501.1,1680.6,1504.2,1681.1,1507.3L1681.1,1507.3z"/>
<path class="st0" d="M768.6,1529.3c-6.8,13.1-10.3,25.7-18.4,33.3c-5.6,5.3-18.9,7.1-26.4,4.2c-6.3-2.5-14.1-15-12.8-21.2
	C717.6,1517,749.4,1509.8,768.6,1529.3L768.6,1529.3z"/>
<path class="st0" d="M1011.5,1453.6c20.9,6.3,37.8,11.4,62.2,18.7c-8.6,5.4-13.4,9.6-18.9,11.2c-2.5,0.7-6.8-6-9.8-5.6
	c-32.4,4.5-47.3-12.1-51.5-41.8c-1.1-8.1-1.3-16.2,1.6-24.9C1011,1422.1,1035.2,1428.7,1011.5,1453.6L1011.5,1453.6z"/>
<path class="st0" d="M909.6,1744.4c3.7-10,4.7-18.7,9.4-24.3c6.5-7.7,15.7-13.4,24.1-19.3c15.6-11.1,30.8-5.9,34.4,12.5
	c0.7,3.5-5,10.7-9.2,12.3C951,1732.1,933.2,1737.1,909.6,1744.4L909.6,1744.4z"/>
<path class="st0" d="M1442,959.2c-9.6,14.3-19.1,28.5-29,43.3c-23.5-20.7-30.1-41.5-16.9-52C1411.5,938.2,1427.2,944.7,1442,959.2z"
	/>
<path class="st0" d="M1497.2,1791.1c-30.1,8-73.2-5.7-89.9-29.8c11.2-16.9,25.7-11.2,38.5-3.8
	C1464,1767.9,1480.9,1780.3,1497.2,1791.1L1497.2,1791.1z"/>
<path class="st0" d="M1738.3,1813c-25.8,21.8-45.1,19.7-77.6-8.7C1701,1790.6,1728.2,1793.7,1738.3,1813z"/>
<path class="st0" d="M555.3,1524.4c11.5,15.3,23,30.6,33.9,44.9c-9.2,5.5-15.2,9.3-21.4,12.7c-3.2,1.7-7.3,4.5-10,3.6
	c-8.5-2.7-16.8-6.2-24.3-10.9c-1.6-1,0.8-8.4,1.3-12.9c7.6,1.2,15.2,2.4,26,4c-4.2-12.9-8.4-25.5-12.5-38
	C550.7,1526.7,553,1525.6,555.3,1524.4L555.3,1524.4z"/>
<path class="st0" d="M1054.8,1662.3c-2.4-9.7-4.9-19.4-8.5-33.9c12.5-3.7,25.1-7.9,38-10.6c1.5-0.3,7.6,9,6.6,10.4
	c-9.3,13.4-19.7,26-29.8,38.8C1059,1665.5,1056.9,1663.9,1054.8,1662.3L1054.8,1662.3z"/>
<path class="st0" d="M1689.6,1633.6c-16.5,36.8-45.2,44.3-81.1,22.5C1639.2,1647.6,1664.4,1640.6,1689.6,1633.6z"/>
<path class="st0" d="M2033.2,1677.3c-15.4,5.4-25.7,9-35.2,12.4c-4.7-16.7-8.8-29.3-11.3-42.3c-0.8-4.1,2.9-9,4.5-13.6
	c3.7,1.6,8.4,2.2,10.8,4.9C2011.5,1649.8,2020.4,1661.3,2033.2,1677.3L2033.2,1677.3z"/>
<path class="st0" d="M1343.3,1098.6c14.6,10.6,25,18.2,35.4,25.8c-9.8,11.3-19.7,22.7-29.5,34c-2-0.8-3.9-1.6-5.9-2.4L1343.3,1098.6
	L1343.3,1098.6z"/>
<path class="st0" d="M864.7,1618.1h56.8c-2.3,6.3-2.7,13-6,15.1c-11.7,7.5-24.4,13.4-36.7,20
	C874.5,1642.5,870.3,1631.9,864.7,1618.1z"/>
<path class="st0" d="M1326,1580.8c-11.4-42.2,11.6-47.9,33.2-42.1c13.2,3.5,13.4,11.1,4.8,18.1
	C1353.1,1565.6,1340.3,1572,1326,1580.8L1326,1580.8z"/>
<path class="st0" d="M1081.6,774.8c12.1-23,25.9-37.6,48.5-29.2c7.1,2.7,9.8,17.1,13,23.2C1120.1,771,1102.4,772.8,1081.6,774.8
	L1081.6,774.8z"/>
<path class="st0" d="M1339.8,1745.7c-17.7,6.1-35.1,13-53.1,17.6c-4.5,1.1-10.9-5.8-15.3-11.7c23.5-4.8,42.8-26.8,67.3-13.1
	C1339.1,1740.9,1339.4,1743.3,1339.8,1745.7L1339.8,1745.7z"/>
<path class="st0" d="M999,1571c-12.8,11.5-15.7,35.1-37.8,20.3c-23.3-15.6-2.3-27.3,3-43.1C976.5,1556.2,986.8,1563,999,1571
	L999,1571z"/>
<path class="st0" d="M1607.6,1683.6c-31.4,4.4-56.3,7.9-81.2,11.4c-1.5-1.1-2.9-2.3-4.4-3.4c4.8-4.3,9.8-12.5,14.5-12.3
	C1558.5,1680.1,1582.4,1655.4,1607.6,1683.6L1607.6,1683.6z"/>
<path class="st0" d="M2063.1,1953.9c18-22.8,38.4-12,57.5-13.2c1,8.2,2,15.9,3.5,27.7C2104.1,1963.7,2086.3,1959.4,2063.1,1953.9
	L2063.1,1953.9z"/>
<path class="st0" d="M979.2,533.3c-3.1,7.3-6.6,17.4-11.8,26.5c-1.5,2.5-11,4.1-12.3,2.4c-8.3-10.2-15.8-21.1-22.5-32.4
	c-1.4-2.4,0.1-9.4,2.2-10.5c3.4-1.8,9-1.8,12.8-0.4C956.5,522.1,964.9,526.6,979.2,533.3L979.2,533.3z"/>
<path class="st0" d="M647.9,964.7c-18.4-18.6-19.4-36.3-4.4-52.8c2.5-2.7,11.5-3.9,12.1-2.9c4.2,7.9,10.9,17.3,9.5,24.8
	C663.1,944.2,654.7,953.2,647.9,964.7L647.9,964.7z"/>
<path class="st0" d="M870.1,1368.9c-0.9,12.4-1.7,24.8-2.6,37.2h-45.2v-21.9c8.6,3,15.8,5.5,24.2,8.5c4.7-7.3,10.5-16.2,16.2-25
	C865.1,1368.1,867.6,1368.5,870.1,1368.9z"/>
<path class="st0" d="M1934.7,1884.5c8.5-16.1,15.5-29.3,24.3-46.1c2,7.7,2.3,12.3,4.3,16c4.3,8,9.6,15.5,14.4,23.2
	c-10.3,2.7-20.6,5.5-30.9,7.8C1944,1886.1,1940.7,1885.1,1934.7,1884.5L1934.7,1884.5z"/>
<path class="st0" d="M797.5,1417.7c-10.4-3.6-22.8-4.9-30.7-11.5c-11.4-9.5-19.6-22.9-29.1-34.7c2.5-2.2,5.1-4.5,7.7-6.7
	c18.1,15.5,36.2,31,54.2,46.4C798.9,1413.3,798.2,1415.5,797.5,1417.7z"/>
<path class="st0" d="M2496.9,2443.2c-22.3-0.8-36.2-15.9-39.4-40.6C2479.3,2410.7,2492.4,2424.2,2496.9,2443.2z"/>
<path class="st0" d="M1678.9,1836.8c12.7,7.9,25.3,15.7,38,23.6c0,2.7-0.1,5.4-0.1,8.1c-10.2,2.2-24.5,9.6-29.8,5.4
	c-8.4-6.6-10.8-20.8-15.7-31.8C1673.9,1840.4,1676.4,1838.6,1678.9,1836.8L1678.9,1836.8z"/>
<path class="st0" d="M1264,1061.2c-6.4,10.9-12.5,21.3-22,37.4c-7.6-10.5-20.3-21.6-18.2-26.6
	C1230.3,1056.2,1245.5,1053.8,1264,1061.2L1264,1061.2z"/>
<path class="st0" d="M1421.1,1714.6c-1.8,23.8-31.7,39.8-45.8,29.3c-2.3-1.7-1.3-13.5,0.8-14.3
	C1389.6,1724,1403.8,1720.1,1421.1,1714.6L1421.1,1714.6z"/>
<path class="st0" d="M1380.5,2085.4c18.9,9.7,33.1,17,47.3,24.2c-0.2,2.7-0.5,5.4-0.7,8c-10.3,1.9-24.1,8.8-30.2,4.6
	C1389.1,2116.8,1387.5,2102.5,1380.5,2085.4L1380.5,2085.4z"/>
<path class="st0" d="M467.9,1707c-11.9-0.2-23.8,0.4-35.6-1c-4.1-0.5-11.3-7.5-10.7-8.7c2.6-6,7.6-15.7,11.4-15.5
	c10.1,0.4,20.7,4,29.6,8.9c3.6,2,3.4,11,4.9,16.8L467.9,1707L467.9,1707z"/>
<path class="st0" d="M691.1,1714.9c-7.7,9.9-15.3,19.7-26.7,34.4c-4.4-12-12.5-25.1-9.8-27.9c7.3-7.7,19.3-11.1,29.4-16.1
	C686.4,1708.5,688.7,1711.7,691.1,1714.9L691.1,1714.9z"/>
<path class="st0" d="M712.2,941.8c5.3,12.5,8.5,19.8,13.1,30.8c-6.2,2.6-14.9,9.4-22.2,8.2c-5.1-0.9-12.9-14.3-11.3-19.5
	C694.2,953.9,704.2,949,712.2,941.8L712.2,941.8z"/>
<path class="st0" d="M1685,1095.9c17.8,0,32.1-0.5,46.4,0.4c3.3,0.2,7.4,4.6,8.9,8.1c0.8,1.7-3.5,8.1-5.4,8.1
	C1718,1112.5,1698.3,1121.7,1685,1095.9L1685,1095.9z"/>
<path class="st0" d="M1758.6,1222.5c14.3,12.8,28.8,25.5,42.7,38.8c1.3,1.3-0.3,8.6-2.4,9.8c-2.8,1.6-8.9,1.3-11-0.7
	c-12.7-12.6-24.6-25.9-36.8-39.1C1753.5,1228.3,1756,1225.4,1758.6,1222.5L1758.6,1222.5z"/>
<path class="st0" d="M591.6,1665.7c16.5,5.9,21.1,18.7,18.7,48.7C598.3,1713.5,588.7,1689.9,591.6,1665.7z"/>
<path class="st0" d="M1282.5,2121.8c0,11.2,1,20.8-0.4,30c-0.8,4.8-5.9,8.9-9.1,13.4c-3.7-3.4-9.4-6.2-10.7-10.3
	C1257.3,2139.2,1256.9,2124.7,1282.5,2121.8z"/>
<path class="st0" d="M749.9,887.5c2.3,19.9,6.7,37.9-15.7,47.2C724.8,907.6,726.2,902.7,749.9,887.5z"/>
<path class="st0" d="M400.1,1004c7.2,1.8,14.5,3.5,27.7,6.8c-18.7,10.5-30.7,17.1-42.9,24c-13.6-6.2-12.1-14-1.5-22.7
	C389,1009.4,394.6,1006.7,400.1,1004L400.1,1004z"/>
<path class="st0" d="M895.7,475.7c11.6,0.8,16.1,14.4,13.4,40.8C896.2,513.5,891.8,499.9,895.7,475.7L895.7,475.7z"/>
<path class="st0" d="M1249.6,869.7c10.3-8.8,23.7-0.7,40.1,24.4C1263.4,905.7,1263.4,877.9,1249.6,869.7z"/>
<path class="st0" d="M400.1,1004c-5.6,2.7-11.1,5.4-16.7,8.1c-3.6-7.9-7.1-15.8-10.7-23.6c5.3-2.2,14.2-7.5,15.2-6.2
	C393.1,988.6,396.3,996.6,400.1,1004L400.1,1004z"/>
<path class="st0" d="M988.8,1253.8l-9.8-9.8c13-2.3,26.1-4.8,39.2-6.6c0.7-0.1,3.5,5.4,2.8,7.6c-0.9,3-3.9,7.1-6.5,7.4
	C1006,1253.7,997.3,1253.5,988.8,1253.8L988.8,1253.8z"/>
<path class="st0" d="M441.4,1395c10.3-3.9,20.6-7.8,33.8-12.9v26.5c-12.3-1.7-22.6-3.2-32.9-4.7C442,1401,441.7,1398,441.4,1395
	L441.4,1395z"/>
<path class="st0" d="M1783.4,1849.3c-0.8-13.5-1.2-21.2-1.9-33.1c11.6,5.7,20.9,10.2,37.3,18.2
	C1803.1,1841,1794.6,1844.6,1783.4,1849.3z"/>
<path class="st0" d="M1548.3,881.8c-24.2,4.4-30.8-0.5-36.6-29.3C1522.4,861.2,1533.2,869.8,1548.3,881.8z"/>
<path class="st0" d="M183.3,1217.2c-11-4-21.9-8.1-37.5-13.8c13.4-6.3,20.6-9.6,30.1-14c3.7,6.2,8.2,13.7,12.7,21.1
	C186.8,1212.8,185,1215,183.3,1217.2L183.3,1217.2z"/>
<path class="st0" d="M242.3,1035.1c5.3-15,25-22.4,33.3-14.6c1.9,1.8,3.4,6.2,2.5,8.2c-1.2,2.9-4.6,5.3-7.6,7
	c-1.9,1-4.7,0.4-7.1,0.3C257.1,1035.9,250.7,1035.5,242.3,1035.1L242.3,1035.1z"/>
<path class="st0" d="M1284.5,726.7c-1.9,11.1-3.8,22.2-5.8,33.4c-4.3-0.8-8.6-1.7-12.9-2.5c2.2-11,4.4-22,6.6-33
	C1276.5,725.3,1280.5,726,1284.5,726.7L1284.5,726.7z"/>
<path class="st0" d="M1449.4,607.9c-8.8,11.4-18.1,21.2-29.9,3.6c-2.6-3.9-2.6-9.5-3.8-14.3c5,0,10.4-1.2,14.9,0.3
	C1436.8,599.7,1442.3,603.9,1449.4,607.9L1449.4,607.9z"/>
<path class="st0" d="M1442.5,1685.6c14-1,28.8-25,47.4,0H1442.5z"/>
<path class="st0" d="M925.8,545.9c4.3,9.8,7.7,17.7,13.1,29.9c-13.4-3.4-24-6-34.6-8.7C911.3,560.2,918.4,553.2,925.8,545.9
	L925.8,545.9z"/>
<path class="st0" d="M828.6,738.8c-14.6,0.1-2.3,30.3-24.6,19.9c-3.3-1.5-4.6-17.6-1.1-21.1c4.9-4.8,15.2-4.1,23.2-5.7
	C827,734.2,827.8,736.5,828.6,738.8L828.6,738.8z"/>
<path class="st0" d="M467.4,1707.5c11,3,22.1,5.9,37.6,10.1c-9.4,8.6-14.2,12.9-23.1,21c-5.1-11.5-9.6-21.6-14-31.7L467.4,1707.5z"
	/>
<path class="st0" d="M1338.8,1924.1c9.7-1.3,19.4-2.5,29.1-3.8c-1,4.8-1.1,13-3.2,13.7c-8,2.2-16.7,1.9-25.1,2.6
	C1339.2,1932.4,1339,1928.3,1338.8,1924.1L1338.8,1924.1z"/>
<path class="st0" d="M480.1,1610.2v22.4c-1.9,1.3-3.8,2.7-5.7,4c-5.4-6.2-10.8-12.4-16.2-18.6c5.5-4.5,11-9,16.5-13.5
	C476.5,1606.4,478.3,1608.3,480.1,1610.2L480.1,1610.2z"/>
<path class="st0" d="M1277.8,520.7c23,10.7,12.8,21.1,0.6,32.4c-4.2-3.8-8.6-7.7-12.9-11.6C1269.7,534.4,1273.6,527.8,1277.8,520.7
	L1277.8,520.7z"/>
<path class="st0" d="M929.1,496.7c8-7.5,16-15,23.9-22.4c1.7,4.5,6,10.9,4.5,13c-5.5,7.5-13.1,13.6-19.8,20.2
	C934.9,503.8,932,500.2,929.1,496.7L929.1,496.7z"/>
<path class="st0" d="M791.9,1333.8c-8.3,0.7-12.9,1.9-17.1,1.2c-7-1.2-13.8-3.6-20.7-5.5c1-3.5,2-10,3-10c8.2-0.1,16.6,0.4,24.5,2.3
	C784.7,1322.5,786.7,1327.3,791.9,1333.8L791.9,1333.8z"/>
<path class="st0" d="M593,1487c-8.7,2.3-17.4,5.2-26.2,6.4c-1.4,0.2-3.8-6.7-5.8-10.3c9.5-2.8,19-5.5,28.4-8.3
	C590.6,1478.9,591.8,1483,593,1487L593,1487z"/>
<path class="st0" d="M933.5,1504.3c8.5,0.8,17.1,1.7,30.3,3c-4.9,6.6-10,15.7-11.5,15.1c-7.9-2.9-14.9-8.3-22.2-12.9L933.5,1504.3
	L933.5,1504.3z"/>
<path class="st0" d="M1400.6,855.5h32.9c-9.2,10.5-15.9,18.2-22.7,25.8C1407.9,874.1,1405.1,866.8,1400.6,855.5L1400.6,855.5z"/>
<path class="st0" d="M306.4,1273.4c3.4-12.2,5.5-19.6,7.6-27.1c7.5,6.9,14.9,13.8,26,24.1C327.4,1271.5,320.1,1272.2,306.4,1273.4z"
	/>
<path class="st0" d="M482,1565.6c9.3,3.1,18.5,6.1,27.8,9.2c-1.9,3.6-4.5,10.4-5.7,10.2c-9-1.7-17.7-4.7-26.5-7.3
	C479.1,1573.7,480.6,1569.7,482,1565.6L482,1565.6z"/>
<path class="st0" d="M1561.8,825.7c-8.8,3.5-14.6,7.9-17.2,6.5c-7.3-4-13.4-10.5-19.9-16c2.9-3.1,7.3-9.3,8.5-8.8
	C1540.4,810.9,1547,815.9,1561.8,825.7L1561.8,825.7z"/>
<path class="st0" d="M1380.2,602.2c7.4,6.6,14.9,13.2,22.3,19.8c-5.1,3.9-10.2,7.8-17.5,13.5c-4.2-12.5-6.9-20.2-9.5-28
	C1377,605.8,1378.6,604,1380.2,602.2L1380.2,602.2z"/>
<path class="st0" d="M1024.2,570.1c6.7,9.6,11.9,16.5,16.1,24c0.4,0.7-8,7.6-8.3,7.3c-6.3-5.8-12.4-12-17.5-18.8
	C1013.8,581.8,1019,576.6,1024.2,570.1z"/>
<path class="st0" d="M168.7,1275.8c10.7-1.6,18.4-2.7,26.1-3.8c1.2,2.1,2.4,4.3,3.7,6.4c-8,5.4-16.1,10.8-26.8,18
	C170.7,1289.5,169.9,1283.8,168.7,1275.8L168.7,1275.8z"/>
<path class="st0" d="M1407.7,761.2c14.1-8.9,21.4-13.6,31.8-20.2c0.7,9.9,1.2,16.2,1.9,25.5C1430.8,764.9,1422.7,763.6,1407.7,761.2
	L1407.7,761.2z"/>
<path class="st0" d="M1131.4,690.5v30.7c-1.9,1.2-3.8,2.3-5.7,3.5c-5-7.2-10-14.5-14.9-21.8C1116.4,699.6,1122.1,696.2,1131.4,690.5
	L1131.4,690.5z"/>
</svg>
