<?xml version="1.0" encoding="utf-8"?>
<!-- Generator: Adobe Illustrator 26.5.1, SVG Export Plug-In . SVG Version: 6.00 Build 0)  -->
<svg version="1.1" id="Layer_1" xmlns="http://www.w3.org/2000/svg" xmlns:xlink="http://www.w3.org/1999/xlink" x="0px" y="0px"
	 viewBox="0 0 2422.1 2390" style="enable-background:new 0 0 2422.1 2390;" xml:space="preserve">
<style type="text/css">
	.st0{fill:#FFFFFF;}
</style>
<path class="st0" d="M1367.6,1825.7c16.1-2.1,26.1,6.1,23.8,21c-1.2,7.6-12.9,13.6-22.8,23.1c3.1,7.2,3.8,24.3,26.6,23.1
	c4.5-0.2,12.6,7.8,13.4,12.8c0.8,5-4.4,13.7-9.3,16c-4.7,2.2-12.7-0.7-18.4-3.1c-7.4-3.2-14.1-8.1-18-10.5
	c-13.6,18.4-24.7,33.6-35.9,48.7c21.1-3.5,32.7,0.5,39.4,20.6c2,6.1,16.1,8.2,24.6,12.2c-4.4,13.5-21.3,16.5-50.9,8.9
	c-14.1,6.5-27.7,17.3-32.6,14.3c-34.2-21.5-34.9-29.7-12-63.4c-26.9-19.6-26.1-19.2-9.2-54.2c4.6-9.6,1.4-22.6,4.3-33.4
	c1.9-7.1,8.2-13.1,12.5-19.5c4,6.7,9.8,12.9,11.7,20.2c2.9,11.5,5.6,24.1,3.8,35.5c-1.6,10.2-9.4,19.3-15.1,30.1
	c13.3,3.7,22.1,2.1,27-13.1c3.1-9.8,10.3-18.4,14.8-25.9c-6.9-5.4-14.8-11.5-22.7-17.6c7.8-6.5,15.7-12.9,24.5-20.2
	c-0.8-1.1-3.9-5.8-9.1-13.3c9.5-3.9,17.5-7.1,25.4-10.3C1364.7,1827,1366.2,1826.3,1367.6,1825.7L1367.6,1825.7z"/>
<path class="st0" d="M1254.6,1387.2c-4.4-0.6-10.4,0.5-12.9-2c-10.4-10.2-6.6-30-23.9-35.9c7.3-10.2,14.1-20.7,22.1-30.3
	c2.4-3,7.8-3.5,11.7-5.1c-1.3-10.9-2.4-20.5-3.6-30.1c-32.6,2.5-39.9-5.3-40.2-41.4c0-4.5-3.5-9.4-6.4-13.3
	c-8.2-11.3-17.6-21.9-25.1-33.6c-2.1-3.3-0.7-11.2,2-14.4c2.7-3.1,10-5.3,13.9-3.9c13.3,4.9,28,8.5,27.8,28.2
	c-0.1,12.8,1.9,26.1,5.3,38.5c2.3,8.7,4.8,23.5,20.6,11c-14-13.8-14.3-33.6-0.8-47.7c-7.5-1.9-14.8-3.9-24.4-6.3
	c10.5-24.6,24-13.5,38.1-5.4c6.2-7,11.7-14.2,18.2-20.3c3.4-3.2,8.5-4.7,12.8-7c2.2,5.2,5.2,10.2,6.5,15.6
	c1.7,6.9,2.2,14.1,4.1,27.9c-36.9,32.2-20.3,80.7-20.1,130.3c-7.1,2.9-17.1,7.1-24.2,10c-0.5,11.2-1.1,23.3-1.6,35.4L1254.6,1387.2
	L1254.6,1387.2z"/>
<path class="st0" d="M786.7,979.1c-2.2-1.3-9.8-4.9-16.2-9.9c-4.6-3.7-7.7-9.3-11.5-14c6.3-1.5,12.7-3.4,19.1-4.3
	c2.6-0.3,5.5,1.7,9.5,3c6-12.3,8.5-29.7,31.4-21.2c-5.6,11.4-10.7,21.7-16.8,34.2c15.1,0.9,32.1-17.5,39.7,4.8
	c1.6,4.7-7.7,13.2-13,21.5c11.6,5,25.9,10.4,39.4,17.2c4.4,2.2,10.6,10.5,9.7,12.1c-3.2,5.2-9,11.5-14.4,12.2
	c-16.1,1.9-32.6,2-48.8,1.2c-5.8-0.3-11.5-5-16.1-7.2c-10.3,2.1-22.1,4.6-33.9,7c-1.6-2.7-3.1-5.4-4.7-8.2
	C768.7,1011.5,777.5,995.7,786.7,979.1L786.7,979.1z"/>
<path class="st0" d="M1057.4,1201.3c5.3-9,5.2-17.8-10.1-23.8c-3.2-1.3-2.7-12-3.9-18.3c6.5-0.1,14.5-2.6,19.2,0.2
	c10.7,6.5,19.8,15.7,30.1,24.3c-7.2,12.9,3.9,42,21.5,51c4.7,2.4,10,4.2,13.6,7.8c3.2,3.2,4.5,8.5,6.6,12.9c-4.5,1.8-9.3,5.7-13.3,5
	c-22.4-4.2-46.2-6.1-66.3-15.7c-12.5-5.9-19.4-23.9-28.1-36.9c-1.2-1.8,1.9-9.4,3-9.3C1037.8,1198.6,1046.1,1199.9,1057.4,1201.3
	L1057.4,1201.3z"/>
<path class="st0" d="M1432.1,1260c-10.2-2-20.4-4.1-37.1-7.4c8.8-7.3,13.2-9.2,13.5-11.4c2.2-23.4,13.3-28,33.6-17.8
	c1.5,0.8,10.8-7.3,10.8-11.2c-0.1-16.5,7.5-25.8,21.1-34.6c8.6-5.5,12.3-18.2,19.6-26.3c4.7-5.3,12.3-11.5,18.2-11.1
	c4.6,0.3,10.6,9.4,12.5,15.7c3.6,11.9,5.4,24.5,6.2,36.9c0.3,4.7-3.8,13.3-7,13.8c-5.9,1-12.5-2.7-18.8-4.4c1.8-4.7,3.5-9.3,5-13.3
	c-24.8-2.5-35.2,6.1-33.9,34.6c0.9,19.6-4.2,26.7-24.6,21.6c-4.4-1.1-11.4,8.4-17.2,13C1433.3,1258.7,1432.7,1259.3,1432.1,1260
	L1432.1,1260z"/>
<path class="st0" d="M1452.5,1329.2c-3,10.2-3.8,22-9.8,29.9c-3.2,4.2-21.8,3.8-22.6,1.5c-11.3-30.2-39.7-13.5-58.3-22.4
	c-2.6-1.2-5.8-1.2-9.6-1.9c-1-4.5-1.3-9.1-3-13c-1.9-4.2-5.1-7.8-7.7-11.7c-2.2,4-4,8.4-6.8,12c-4.6,5.9-9.9,11.3-14.9,16.9
	c-2-7.4-4.3-14.7-6-22.2c-1.3-6.1-1.8-12.3-2.6-18.5c-1.1-8.2-3.7-16.6-2.5-24.4c0.5-3.2,9.3-5.1,14.4-7.6
	c2.9,6.7,5.8,13.3,9.3,21.4c16.8-8.1,32.2-11.9,37,16.6c1.1,6.6,18.8,10.5,34.8,18.6c10.6,0.6,28.3,1.5,46.1,2.5
	C1451,1327.5,1451.8,1328.3,1452.5,1329.2L1452.5,1329.2z"/>
<path class="st0" d="M1301.5,1687.1c-8.4,12.4-14.2,20.8-19.9,29.2c-5.3-4.9-10.7-9.8-16.8-15.4c-3.9,3.6-9,10.2-15.8,14.2
	c-6.5,3.9-14.6,5.1-22,7.5c1.6-9.3-0.1-21.9,5.4-27.1c11.2-10.7,27.6-15.8,39.4-25.9c30.1-25.8,52.7,6,78.8,9.4
	c1.3,0.2,3.4,15.5,1.4,16.5c-8.5,4.2-19,9.2-27.4,7.3C1315.5,1700.8,1307.8,1691.6,1301.5,1687.1L1301.5,1687.1z"/>
<path class="st0" d="M1363.3,1827.6c-4.5-10.9-9-21.9-13.1-31.7c-5.8,4.8-13.9,16.5-23.6,17.9c-10.6,1.6-22.5-6.4-38.9-11.9
	c3.3-6.9,4.9-18.1,10.8-21.2c48.2-25.7,48.5-25.3,62.9-10.1c1.3-6.5,0.8-14.7,4.6-19.6c2.5-3.2,11.6-3.3,16.8-1.7
	c3.6,1.2,8.1,10.9,7.6,11.3c-20.5,17.3-6.9,46.5-23,65C1366.1,1826.4,1364.7,1827,1363.3,1827.6L1363.3,1827.6z"/>
<path class="st0" d="M718.4,966.3c-8-3.7-15.2-7-20.5-9.5c2.2-9.7,2.1-18.6,6-25c6.2-10.4,13.7-24.6,23.2-27
	c8.6-2.2,20.7,9.2,35.3,16.6c-12.8,11.6-20.9,18.9-25.1,22.7c3,17.8,6.6,32.6,7.3,47.5c0.3,6-4.8,15.4-9.8,17.4
	c-4.9,2-14.8-1.7-18.8-6.1c-3.8-4.3-4-12.9-3.6-19.5C712.8,977.5,716.3,972,718.4,966.3L718.4,966.3z"/>
<path class="st0" d="M1054.2,1108c-3.6,0.6-9.7,2.6-15.5,2.2c-7.7-0.6-15.2-3-22.8-4.7c5.2-7.5,9.7-15.7,16-22.3
	c2.3-2.4,8.8-2.3,12.9-1.3c11.6,2.9,21.9,5.1,28.8-8.7c1.3-2.5,9.2-1.6,17.3-2.8c-2.2,9-3.7,15.1-5.2,21.2l4.3-3.3
	c5.6,7.7,16.6,16.4,15.5,22.9c-2.3,13.3-8.8,34.4-17.7,36.7C1053.8,1156.9,1074.3,1118.4,1054.2,1108z"/>
<path class="st0" d="M1239,2080.5c8.2-3.5,16.3-7.1,18.9-8.2c7-17.3,11.5-31,18.4-43.4c1.2-2.2,17.1-0.3,17.7,2
	c2.6,9.8,2,20.4,2.6,29.6c6.1,0.7,14.9,1.6,23.8,2.6c-3.5,11.6-5.9,23.8-10.9,34.8c-6.2,13.5-14.9,5.8-24.3,1.8
	c-9.3-4-20.3-3.9-30.4-6.2c-5.7-1.3-11.2-3.9-16.8-5.8C1238.3,2085.2,1238.7,2082.9,1239,2080.5L1239,2080.5z"/>
<path class="st0" d="M1430,1425.4c5,16.2-0.9,28-17.1,30.8c-22.4,3.8-45.3,4.7-68.9,7c-3.7-15.7,22.4-58.5,41.7-58
	c7.4,0.2,14.5,11.1,18.2,21.1c7.5-1.4,15-2.8,22.5-4.2L1430,1425.4L1430,1425.4z"/>
<path class="st0" d="M1400.7,1149.9c-5.4-2.8-11.2-5.1-16-8.7c-4.2-3.1-7.4-7.7-11.1-11.6c6.5-3,15-10.1,19-8.1
	c16.9,8.4,31.8,12.9,43.6-8c14.2,24.9,11.3,30.6-10.4,32.3c-5.5,0.4-10.5,7.2-19.1,13.6c10,4.2,16.9,5.1,19.9,9
	c3.6,4.7,6.7,13.3,4.6,17.7c-2,4.2-10.9,6.9-16.8,7c-14.3,0.3-28.6-1.3-47.3-2.3c-7.5-18.8,28.1-15.4,25.1-35.6
	C1395,1153.4,1397.8,1151.7,1400.7,1149.9L1400.7,1149.9z"/>
<path class="st0" d="M586.2,847.8c12.8,6.5,23.2,14.1,34.8,17.1c11.7,3.1,24.6,1.7,37,2.2c0.4,3.1,0.8,6.2,1.2,9.3
	c-6.9,2.4-13.9,7.3-20.6,6.9c-22.7-1.3-32.3,9.2-27.8,29.4c-9.7,8.7-17.7,17.5-27.3,24c-4.7,3.2-12,2.5-18.2,3.6
	c0.1-5.6-1.8-15.1,0.5-16.2c31-15.1,19.4-41.2,18.1-64.8C583.8,857.1,584.7,854.9,586.2,847.8L586.2,847.8z"/>
<path class="st0" d="M1005.2,1156.2c-14.3-4.8-28.7-9.7-46.9-15.8c-5.2-3.7-14.8-9.5-23.2-16.8c-4.4-3.8-10.4-13.1-9.1-14.8
	c7.3-9.4,15.9-18.2,25.7-24.8c2-1.4,16,7.8,15.7,11.1c-2.6,22.5,17.3,24.5,28.5,34.5c6,5.4,10.8,12.4,16.1,18.7
	C1009.7,1150.9,1007.5,1153.6,1005.2,1156.2L1005.2,1156.2z"/>
<path class="st0" d="M878.6,1098.4c0.7-7.5,1.5-15.1,2.4-23.9c-1.5,0.3-4,1.1-6.6,1.4c-6.3,0.8-12.6,1.3-18.9,1.9
	c0.2-7.7-1.5-16.3,1.2-22.9c2.3-5.4,10-8.6,15.4-12.7c0.4-0.3,1.5,0.2,2.2,0.3c24.7,4.7,38.6,24.7,64.4,37.1
	c-23.1,10.8-38.5,18.1-54,25.3C882.7,1102.8,880.6,1100.6,878.6,1098.4L878.6,1098.4z"/>
<path class="st0" d="M917.8,1011.5c-5.6-11.7-11.9-20-12.9-29c-0.4-3.3,11.4-8.1,17.7-12.2c1.7,5,3.4,10.1,4.4,13.1
	c7-3.4,16.7-8.1,26.3-12.7l6.2,7.2c-8.2,11.7-20.9,22.6-23.3,35.4c-2.3,12.8,5.7,27.5,10.8,47.4c-12.4-2.8-26.8-1.7-31-7.8
	C905.4,1037.8,906.9,1020.4,917.8,1011.5L917.8,1011.5z"/>
<path class="st0" d="M681.5,1072.2c-12.8-5.8-22.8-18.9-34.3-1c-1.6,2.5-11.9,1.8-16.3-0.8c-3.4-1.9-6.2-9.7-5-13.6
	c1.1-3.5,7.7-6.9,12.2-7.5c15.8-1.8,31.8-3.1,47.7-3.2c19.6-0.2,23.9,7.3,15.6,24.8c-2.2,4.6-4.1,9.5-5.2,14.4
	c-1.3,6.3-1.6,12.9-2.3,19.3c-6.2-1.5-15.9-1.2-17.9-5c-2.8-5.2,0-13.5,0.9-20.5C677.2,1077.5,679.2,1075.8,681.5,1072.2
	L681.5,1072.2z"/>
<path class="st0" d="M1487.9,1433.5c3.7,12.5,8.3,23.1,9.2,34c0.4,4.8-7,10.2-10.8,15.3c-4.3-4.2-9.3-8-12.8-12.9
	c-1.9-2.6,0-9.5-1.8-10.4c-28.2-13.8-5.6-36.4,0-42.1c9.9-10.1,29.4-11.1,45.2-14.7c2.2-0.5,8.5,5.9,8.2,8.7
	c-0.4,4.4-3.8,10.4-7.7,12.1C1507.8,1428,1497.1,1430.5,1487.9,1433.5L1487.9,1433.5z"/>
<path class="st0" d="M1385.9,1532.8c-4.1,26.7-1.2,56.8-30.9,71.4c-5.8,2.8-14.2,1.7-21,0.3c-2.1-0.4-5.3-9.7-4-10.9
	c4.3-4.3,10.1-8.4,15.9-9.8c16.9-3.9,11.7-14.9,11.1-26.2c-0.7-11.1,1.2-22.7,4.2-33.4c0.8-2.8,10.1-4.8,15.2-4.4
	c5.9,0.5,11.5,4.2,17.2,6.5C1391.1,1528.4,1388.5,1530.6,1385.9,1532.8L1385.9,1532.8z"/>
<path class="st0" d="M1561.5,1579.4c-1.5-5.2,13.4-46.6,21.7-50.6c11.9-5.7,22.6,6.6,22.9,27.9c5.4,0.9,11.6,0.8,16.8,3.1
	c5.8,2.5,10.7,7.2,15.9,10.9c-6.9,2.9-13.8,7.8-20.8,8.3C1599.8,1580.2,1581.4,1579.4,1561.5,1579.4L1561.5,1579.4z"/>
<path class="st0" d="M1039.6,1065.1c-12.9,6.6-24.5,14.1-37.1,18.4c-5.4,1.9-13.6-1.5-19.4-4.7c-3.2-1.7-3.9-7.8-5.8-11.9
	c-3.2-6.9-6.4-13.8-9.5-20.6c8.5-0.4,17-0.5,25.5-1.2c5.1-0.4,10.2-1.3,15.1-2.7C1031.3,1036,1038.2,1041.4,1039.6,1065.1
	L1039.6,1065.1z"/>
<path class="st0" d="M770.6,1112.7c3-18.8,1.4-40.5,10.7-55.4c5.7-9,28.2-7.5,43.1-10.7c-0.4,5.6,0.8,12.2-1.6,16.8
	c-5.3,10-12.1,19.4-19.1,28.4c-7.3,9.3-15.8,17.7-23.7,26.5C776.9,1116.3,773.7,1114.5,770.6,1112.7L770.6,1112.7z"/>
<path class="st0" d="M1254.5,1387.4c8.1-1.2,16.2-2.3,26.3-3.7c-2.1-6.7-4.7-11.4-4.8-16.1c-0.1-4.7,0.7-11.9,3.8-13.7
	c4.3-2.6,12.3-3.4,16.2-1c11.5,6.9,22.2,15.3,32.2,24.2c3.2,2.8,3.3,9,4.9,13.6c-3.9,1.2-7.8,2.9-11.9,3.4
	c-14.6,1.8-29.2-2.7-43.8,7.6c-8.8,6.1-23.2,3.2-22.7-14.4L1254.5,1387.4L1254.5,1387.4z"/>
<path class="st0" d="M1408.7,2156.6c3.4-1.8,9.5-7.6,15.9-8c20.4-1.2,39.3,12.5,35.8,27.1c-2,8.5-12.5,19.8-20.6,21.2
	C1419.2,2200.6,1408.6,2187.3,1408.7,2156.6z"/>
<path class="st0" d="M1196.9,1597.4c15.4-19.3,25.6-36.5,40.2-47.9c4.2-3.2,21.7,9.9,32.3,16.7c1.3,0.8-0.3,10.9-3.2,13
	c-15.8,11.1-31.8,22.1-49.1,30.4C1213.5,1611.4,1204.4,1602.1,1196.9,1597.4L1196.9,1597.4z"/>
<path class="st0" d="M1312,1437.7c-3.4-5.7-7.9-11-9.7-17.1c-1.1-3.8,2.8-12.8,3.6-12.7c14.3,1.8,28.7,4.2,42.6,8
	c1.4,0.4,0.7,15.3,0.2,15.4c-21.4,2-25.5,18.8-32.4,34.5c-1.4,3.3-13.9,1.7-21.3,2.4c-0.2-7.5-2.6-16,0.2-22.1
	C1297.4,1441.6,1306.4,1440.3,1312,1437.7L1312,1437.7z"/>
<path class="st0" d="M1394.3,2023.7c6.4-23.2,41.2-41.5,60.8-32.6c3.3,1.5,6.3,8.5,5.9,12.5c-2.2,20.2-18.6,29.3-38.2,23.4
	C1413.8,2024.5,1404,2024.8,1394.3,2023.7L1394.3,2023.7z"/>
<path class="st0" d="M834,882.7c11.7,5.9,24.3,10.7,34.4,18.6c2.4,1.9-3.3,20.9-5.5,20.9c-19.2,0.5-38.4-1.4-57.6-3.4
	c-1.8-0.2-5.2-7.2-4.2-8.8c2.4-4,6.8-6.9,10.7-9.8c5.5-4.1,11.2-7.9,16.7-11.8C830.3,886.5,832.1,884.6,834,882.7L834,882.7z"/>
<path class="st0" d="M697.2,973.5c-9.1,4.7-22,15.5-26.5,12.8c-9.7-5.9-15.5-18.6-22.1-29.1c-3.2-5-4.7-11.2-6.6-17
	c-1.5-4.8-2.5-9.8-3.6-14.7c5.6-0.7,12.2-3.6,16.4-1.6c5.6,2.7,9.6,9.1,13.7,14.4c7.8,10,15.2,20.4,22.8,30.6
	C693.2,970.4,695.2,972,697.2,973.5L697.2,973.5z"/>
<path class="st0" d="M1256.2,1604.7c6.5,1.7,13,3.2,19.4,5.2c5.3,1.7,10.5,3.9,15.7,5.9c-3.2,6.3-5.5,17.5-9.6,18.1
	c-18.3,2.9-37.1,3.5-55.6,3.1c-3.7-0.1-7.2-7.9-10.8-12.1c4.8-3.6,9.1-8.3,14.4-10.4c8-3.2,16.8-4.4,25.3-6.5
	C1255.4,1606.9,1255.8,1605.8,1256.2,1604.7L1256.2,1604.7z"/>
<path class="st0" d="M737,847c-3.7-15.4-6.6-31-11.5-46c-2.9-8.8-9-16.6-13.7-25c11.7-14,27.6-14.8,31.7,0.3
	c5.4,20.1,6.1,41.4,8.2,62.2c0.3,3.1-3.2,6.6-4.9,9.9C743.5,847.9,740.2,847.4,737,847L737,847z"/>
<path class="st0" d="M1819.4,1186.2c11.1-8.2,22.7-19.5,24.8-17.9c10.7,7.9,19.4,18.7,27.6,29.4c3.1,4.1,3.1,10.7,4.3,16.2
	c1.2,6,3.6,12.4,2.4,17.9c-0.5,2.2-10.6,5.1-13.9,3.3c-5.3-3-11-9-12.3-14.7C1846.7,1195.9,1847.3,1195.8,1819.4,1186.2
	L1819.4,1186.2z"/>
<path class="st0" d="M1421,1563.7c-4.1-3.4-10.1-6.1-10.1-8.9c-0.1-6.3,1.6-13.3,4.7-18.8c6-10.6,12.9-20.8,20.5-30.3
	c3.3-4.1,9.6-8.6,14.2-8.3c6,0.5,12.6,4.7,16.7,9.3c1.3,1.5-3.6,9.8-6.8,14.1c-8.4,11.2-17.1,22.1-26.2,32.8
	C1430.8,1557.3,1426,1559.8,1421,1563.7L1421,1563.7z"/>
<path class="st0" d="M1284.6,1146c-2.2,4-3.5,9-6.7,11.7c-6.8,5.8-14.6,10.5-22,15.6c-1.3-7.9-2.5-15.7-3.8-23.6
	c-0.7-4.3-1.7-8.6-2.2-13c-1.6-16.5,5.7-22,20.9-15.4c8.8,3.8,17.2,8.5,25.8,12.8C1292.6,1138.1,1288.6,1142,1284.6,1146
	L1284.6,1146z"/>
<path class="st0" d="M1139.2,1184.5c-4.8-5.8-12.2-11-13.6-17.6c-2-8.8-1.9-25.4,1.8-26.8c10-3.8,22.3-1.3,33.7-1.3
	c-1.9,6.7-3.8,13.4-5.8,20.3c1.8,1.6,6.3,5.6,10.8,9.6c-7.5,7.1-15.1,14.1-22.6,21.2C1142,1188.1,1140.6,1186.3,1139.2,1184.5
	L1139.2,1184.5z"/>
<path class="st0" d="M799.6,1136.7c-3.1,2.6-7,4.6-9.2,7.8c-4.7,6.8-7.5,15.1-12.8,21.3c-4.3,5-11.2,7.9-16.9,11.7
	c-1.2-8.9-6.2-19.9-2.7-26.2c6.6-12.1,17.4-22.3,28-31.6c3.7-3.2,13.3-3.5,17.9-0.9c5,2.8,7.7,10.3,10.1,16.2
	c0.3,0.8-6.6,4.6-10.2,7C802.4,1140.3,801,1138.5,799.6,1136.7L799.6,1136.7z"/>
<path class="st0" d="M624.9,1018.9v20.2c-10.7-2.2-20.4-4.1-30.3-6.1c9.8-35,17.8-41.1,45-33c6.2,1.8,11.6,8.5,15.6,14.2
	c1.4,2-2.7,11.3-4,11.2c-6.2-0.2-12.3-2.6-18.5-4.2C630.6,1020.5,628.5,1019.9,624.9,1018.9L624.9,1018.9z"/>
<path class="st0" d="M1284.6,1146c4-3.9,8-7.9,12-11.8c6.6-1.1,13.8-4.4,19.7-2.8c6,1.7,14.4,7.6,15.2,12.6
	c1.4,10.2-1.6,21.1-2.9,32.7C1306.3,1182,1299.8,1177.8,1284.6,1146z"/>
<path class="st0" d="M958.8,1237.6c13.9,7.4,22.9,10.6,29.8,16.3c4.8,4,6.5,11.5,9.6,17.5c-7.1,2.9-14.5,8.7-21.2,8
	c-11.9-1.2-35.3,11.4-29.4-18C949.4,1252,955.8,1243.7,958.8,1237.6L958.8,1237.6z"/>
<path class="st0" d="M804,826.2c9.6-13,16.8-25.8,27-35.2c5.1-4.7,15.9-3.4,24.1-4.8c-1.6,5.6-2.9,11.4-4.9,16.8
	c-1.3,3.4-4.6,6-5.7,9.4C837.5,835.6,824,840.2,804,826.2z"/>
<path class="st0" d="M838.3,1193c0-18.1,25.4-34.1,39.3-26.3c3.5,2,7.4,11,6,12.6c-9.3,11.5-19.8,22.1-30.7,32.2
	c-0.9,0.8-8.7-4.1-11.5-7.8C838.9,1200.3,838.9,1195.1,838.3,1193L838.3,1193z"/>
<path class="st0" d="M1596.8,1400.7c8.2-6,22.6-19.8,25-17.9c10.8,8.3,18.2,21.1,27.7,33.4
	C1614.9,1429.6,1605.7,1426.7,1596.8,1400.7z"/>
<path class="st0" d="M1078,1429.9c-11.5-3.6-18.8-5.9-21.5-6.8c1.6-18.1,2-32.4,4.6-46.4c1.2-6.1,7-11.4,10.7-17.1
	c3.6,4.7,10.4,9.4,10.3,14.2C1082.1,1391.4,1079.8,1409.1,1078,1429.9L1078,1429.9z"/>
<path class="st0" d="M927.9,1138.2c8.5,5.7,12,8.2,15.6,10.4c6.4,3.9,13,7.7,19.4,11.6c4,2.5,11.2,5.1,11.2,7.7
	c0.1,4.3-3.5,10-7.3,12.8c-9.8,7.4-46.9-3.5-48.4-15.2C917.5,1157.7,924,1148.8,927.9,1138.2L927.9,1138.2z"/>
<path class="st0" d="M1111.9,2000.5c2-8.6,2.8-23.9,6.2-24.5c16.8-2.9,34.5-3.2,51.6-1.6c4.2,0.4,7.4,11.1,8.6,20.1
	c-24-13.4-42.4-7.1-59.1,11.8C1116.7,2004.4,1114.3,2002.4,1111.9,2000.5L1111.9,2000.5z"/>
<path class="st0" d="M1114.2,1917.6c-6.7-5.3-12.8-10.1-18.8-14.8c5.2-4.4,9.8-9.8,15.6-12.8c7.9-4.1,16.6-7.3,25.3-9.1
	c5.1-1,10.8,1.5,16.3,2.4c-1.5,5.6-1.2,13.6-4.8,16.2C1138.3,1906.4,1127,1911,1114.2,1917.6L1114.2,1917.6z"/>
<path class="st0" d="M944.2,920c-25.4,21.1-41.6,3.3-59.1-3.6c-2-0.8-3.4-10-1.9-11.1c4.3-3.2,10.3-6,15.5-5.9
	c9.9,0.2,20.4,0.9,29.4,4.6C934.7,906.7,939.1,914.5,944.2,920L944.2,920z"/>
<path class="st0" d="M1271,1755.4c-4.9,11.1-8.5,20.2-13,28.8c-1.5,2.9-6.2,6.6-8.6,6c-5.2-1.1-14.5-5.7-14.2-7.1
	c3.1-13.9,7.2-27.7,12.4-41c0.9-2.4,9.7-4.7,11.3-3.2C1263.9,1743.5,1267.2,1749.9,1271,1755.4L1271,1755.4z"/>
<path class="st0" d="M1514.7,1336.2c-4-12.8,0.8-23.1,13.8-22.4c11.2,0.6,29.3-6.6,31.2,15.9c0.5,6.2,4.5,12.2,8.5,22.5
	c-19.5-5.4-35.5-9.9-51.5-14.4C1516,1337.3,1515.3,1336.8,1514.7,1336.2L1514.7,1336.2z"/>
<path class="st0" d="M917.6,826.1c-5.3-1.1-17.1-4.1-2-17.1c3.4-2.9,12.2-0.7,18,0.9c5.6,1.5,10.5,5.3,17.2,8.8
	c-4.2,11.3-7.8,22.8-13.1,33.4c-1,2.1-12.2,2.4-13,0.8C921.5,846.1,920.5,838.3,917.6,826.1L917.6,826.1z"/>
<path class="st0" d="M681.6,1199.8c5.1,15,8.7,25.5,13.8,40.5c-5.7,4-14.1,9.8-23.9,16.6c-4.7-16.6-10.5-29.1-11.2-41.9
	C659.5,1198.6,672.5,1199.4,681.6,1199.8L681.6,1199.8z"/>
<path class="st0" d="M1282,1588.2c12.2-12.8,22.3-24,33.1-34.4c2.9-2.8,8.9-6,11.3-4.8c3.9,2.1,8.9,8.2,8.2,11.5
	c-1.4,7.1-4.7,17.4-9.9,19.4c-13.4,5.2-24.6,27.3-42.7,8.5C1281.3,1587.7,1281.7,1585.7,1282,1588.2L1282,1588.2z"/>
<path class="st0" d="M1456.2,2358.3c7.1-6.8,12.3-14.1,19.3-17.7c4.5-2.3,11.8,1.1,17.9,1.9c-1.1,7.3-2.1,14.6-3.3,21.9
	c-0.2,1.4-1.1,2.9-2.1,4c-5.3,5.9-10.8,11.6-16.2,17.4C1467.2,2377.7,1462.6,2369.6,1456.2,2358.3L1456.2,2358.3z"/>
<path class="st0" d="M576.9,989.1c-10.7,9.8-18.7,17.2-26.7,24.6c-3.4-4.9-10.7-11.7-9.4-14.5c5.4-11.9-3-32.6,17.9-34.2
	C563.2,964.8,568.7,977.8,576.9,989.1z"/>
<path class="st0" d="M1609.8,1375.1c-1,2.2-1.6,5.6-3,6c-13.2,3.9-26.4,8.4-39.9,10c-2.9,0.3-7.1-10.6-10.7-16.4
	c10.9-5.3,21.4-12.4,32.9-15.2c5.1-1.3,12.5,5.7,18.5,9.4C1609,1369.8,1609,1372.9,1609.8,1375.1L1609.8,1375.1z"/>
<path class="st0" d="M1330.8,1245.4c27.4-18.7,41.9-14,48.7,13.4c0.9,3.9,0.4,10.9-1.8,12.1c-3.9,2.1-9.7,1-14.6,0.8
	c-1.2,0-2.2-1.8-3.4-2.8C1350.6,1261.6,1341.5,1254.2,1330.8,1245.4L1330.8,1245.4z"/>
<path class="st0" d="M1375.9,595.2c-12.2,6.3-24,14.1-36.9,18c-4.9,1.5-13.7-4.7-18.5-9.5c-2.4-2.3-1.7-12.3,0.9-14.1
	c3.9-2.7,10.7-1.2,16.2-1.8c4.8-0.5,9.5-1.7,14.3-2.2c7.1-0.7,14.2-1,21.3-1.5C1374.2,587.8,1375,591.5,1375.9,595.2L1375.9,595.2z"
	/>
<path class="st0" d="M1338.9,2121.2c-21-15.2-2.5-36.1-7.2-53.8c-0.3-1.3,8.4-7.4,12.4-6.8c4.1,0.5,10.9,7.1,10.5,9.9
	c-2.7,16.1-7.2,31.9-11.2,47.8L1338.9,2121.2L1338.9,2121.2z"/>
<path class="st0" d="M1173.6,445.6c10.2,16.4,17.6,28.3,24.3,40.5c0.2,0.4-9.9,8.9-12.1,7.7c-11.2-5.9-21.4-13.8-32-21
	C1159.6,464.9,1165.4,456.9,1173.6,445.6z"/>
<path class="st0" d="M1612.9,1152.1c-6.7,9.9-11.3,17.3-16.8,24.1c-1.2,1.5-7.1,1.7-8.1,0.3c-2.5-3.3-5.5-8.4-4.5-11.6
	c3.5-10.7,6.5-20.2-4.9-28.5c-1.8-1.3-1.5-9.3,0.6-11.6c2.2-2.4,10.1-3.6,11.6-1.9C1598.7,1131.8,1605.3,1141.6,1612.9,1152.1
	L1612.9,1152.1z"/>
<path class="st0" d="M1305.6,2230.1c3-15.5-10.5-34.1,16-34.4c4.7-0.1,14.4,11.5,13.4,15.4c-3.1,11.3,3.6,29.9-16.5,31.1
	C1314.4,2242.5,1309.9,2234.4,1305.6,2230.1L1305.6,2230.1z"/>
<path class="st0" d="M1136.8,1396.5c-8.7-2.6-21.2-2.6-25.2-8.4c-5.5-8-7-20.9-5.2-30.8c0.9-4.9,13-7.8,20-11.6
	c1.5,1.8,2.9,3.5,4.4,5.3c-2.3,6.5-4.7,13-6,16.6c6.6,7.8,12.1,14.5,17.7,21.1L1136.8,1396.5L1136.8,1396.5z"/>
<path class="st0" d="M1415.6,1937c12.7,12.2,22.5,21.7,32.4,31.3c-5.3,4.6-13.9,14.1-15.5,13c-10.8-7.1-20.5-16-29.3-25.5
	C1402.3,1954.7,1409.5,1946.1,1415.6,1937z"/>
<path class="st0" d="M1167.9,1284c-8,21.5-25.1,24.5-44.5,26.2C1124.5,1282.5,1139.3,1273.8,1167.9,1284z"/>
<path class="st0" d="M1003,1323.2c-11.3,4.5-23.4,10.9-36.2,13.3c-4.8,0.9-11.5-7.2-17.1-11.5c-0.9-0.7-1.2-4-0.9-4.1
	c12.1-5.4,23.9-11.8,36.6-15c4.5-1.2,11.2,5.4,16.6,8.7C1002.7,1315.1,1002.4,1317.4,1003,1323.2L1003,1323.2z"/>
<path class="st0" d="M1107.8,1030.3h-32.8c0-11.7-1.8-21.7,0.6-30.7c1.5-5.7,9.2-9.8,14.1-14.6c3.6,4,8.8,7.4,10.4,12.1
	c3.7,10.6,5.6,21.9,8.2,32.9L1107.8,1030.3L1107.8,1030.3z"/>
<path class="st0" d="M1009.3,1010.7c-17.1,7.6-31,13.8-45.3,20.2c-4.6-22.7,3.2-35,26.5-42.5
	C995.9,994.7,1001.5,1001.4,1009.3,1010.7z"/>
<path class="st0" d="M737,1298.4c-6.4-4.1-14.4-9.2-25.7-16.4c6.6-4,12.5-10,15.4-8.8c10.7,4.4,16.2-1,24.6-6.2
	c15.2-9.4,18.8,3.7,22.6,16.2C762.3,1288,751.2,1292.6,737,1298.4L737,1298.4z"/>
<path class="st0" d="M1433.8,1258c5.9-0.3,11.9-0.1,17.7-1.2c11.8-2.2,19.9,1.6,20.3,14c0.2,5.6-4.8,16.3-6.6,16.2
	c-9.7-1.1-20.1-3.1-28.1-8.2c-4.1-2.6-3.6-12.3-5.1-18.8C1432.7,1259.3,1433.3,1258.7,1433.8,1258L1433.8,1258z"/>
<path class="st0" d="M1686.7,1580.1c4.8,3.9,9.3,5.7,10,8.4c3.6,13.6,6.2,27.4,9.1,41.1c-6.6,0.5-17.7,3.4-19,1
	c-5.9-10.9-10.4-23.2-12.5-35.4C1673.5,1591.2,1681.8,1585.7,1686.7,1580.1L1686.7,1580.1z"/>
<path class="st0" d="M1236.8,2251.1c3.6-11.9,5.6-24.8,11.8-35.1c2.3-3.8,15.1-2.9,22.3-1.1c2.9,0.7,6.8,12.7,5,14.5
	c-9.2,9.4-20,17.1-30.3,25.5C1242.7,2253.6,1239.8,2252.3,1236.8,2251.1L1236.8,2251.1z"/>
<path class="st0" d="M1195.7,2015.5c9.3,10.6,15.4,17.5,21.6,24.5c-6.2,5-14.3,15.2-18.3,13.8c-8.9-3.1-15.8-12.1-23.5-18.6
	C1181,2029.9,1186.5,2024.5,1195.7,2015.5L1195.7,2015.5z"/>
<path class="st0" d="M1525,1291.2c-12.2,9.3-21.3,27-36.3,8.2c-8.2-10.3-7-20.8,4.2-27C1513.1,1261.2,1514,1284.4,1525,1291.2z"/>
<path class="st0" d="M1314.7,521.4c0,12.6,3.4,25.2-0.7,28.6c-8.6,7-20.9,10.4-32.2,12.3c-3.7,0.6-8.9-8.2-13.4-12.8
	c4.8-3.2,9.4-6.5,14.3-9.4C1291.3,534.9,1300.1,529.9,1314.7,521.4L1314.7,521.4z"/>
<path class="st0" d="M1711.4,1481.8c11.8-23.9,27.8-21.8,43.1-17.9c3.9,1,8,8.7,8.3,13.5c0.2,3.2-6.3,9.9-9.5,9.8
	C1740,1486.6,1726.8,1484,1711.4,1481.8L1711.4,1481.8z"/>
<path class="st0" d="M874.6,1301.5c2.5,3.2,5.9,7.8,11.8,15.6c-8,2.7-14.4,7.1-19.3,5.8c-4.9-1.2-10.4-7.6-11.8-12.8
	c-1.3-4.9,1.9-11.3,4.3-16.6c3.3-7.3,6.8-15.1,12.3-20.7c1.6-1.7,10.1,3.4,15.4,5.4C883.6,1285,879.9,1291.7,874.6,1301.5
	L874.6,1301.5z"/>
<path class="st0" d="M1563.2,1206.9c7.2,12.1,12.8,19.8,16.6,28.3c2.2,4.9,3.9,13.1,1.4,16.1c-2.7,3.2-13.9,4.5-15.6,2.3
	c-7.1-9.5-13.8-20.2-16.6-31.5C1548.1,1218.3,1558.8,1211.5,1563.2,1206.9z"/>
<path class="st0" d="M1608.1,1496.6c-0.8-5.2-3.1-10.9-1.9-15.6c2.7-10.7,5.2-22.3,11.5-30.8c3.3-4.5,14.4-3.3,22-4.7
	c-1,5.7-0.8,12-3.3,17c-6.1,12.2-13.4,23.7-20.2,35.5C1613.5,1497.4,1610.8,1497,1608.1,1496.6L1608.1,1496.6z"/>
<path class="st0" d="M1334.5,1734.1c-0.2,22.5-13.8,25.1-26.4,26c-4.6,0.3-9.7-6.6-14.5-10.1c9.3-8.4,18.2-17.6,28.5-24.6
	C1323.8,1724.2,1331.7,1732,1334.5,1734.1L1334.5,1734.1z"/>
<path class="st0" d="M762.5,1075.3c-5.8,14.4-10.4,27.3-16.5,39.6c-1.8,3.7-7.5,7.1-11.8,7.6c-2.8,0.3-7.6-4.5-8.9-8
	c-4.3-11.1,16.5-43,28.3-43.4C757.3,1070.9,761,1074.5,762.5,1075.3L762.5,1075.3z"/>
<path class="st0" d="M1651.1,1527.5c-8.8,5-15.8,11.4-18.3,9.9c-8.2-4.6-14.8-12.1-22-18.5c6.4-6.5,12.8-12.9,19.2-19.4
	C1636.2,1507.8,1642.4,1516,1651.1,1527.5z"/>
<path class="st0" d="M1915.7,1157.9c6.2-19.3,16.4-29.9,35.2-19.6c4.3,2.4,9.7,11.5,8.3,14.2
	C1947.7,1174.5,1930.8,1156.7,1915.7,1157.9L1915.7,1157.9z"/>
<path class="st0" d="M1256.7,1846.3c9.4,16.3,11.5,30.3-4.9,38.5c-4,2-18.2-5.6-19.4-10.7C1228,1856.1,1240.5,1849.4,1256.7,1846.3
	L1256.7,1846.3z"/>
<path class="st0" d="M1532.6,2014.5c-12.1-3.8-23.5-5.5-32.6-10.9c-4.9-2.9-8.2-12.5-7.7-18.7c0.3-3.2,10.2-7.7,16-8
	C1516.4,1976.4,1533.8,2005.1,1532.6,2014.5L1532.6,2014.5z"/>
<path class="st0" d="M1491.5,1820.2c-12.8,12-21.4,20.8-31.1,28.2c-1.2,0.9-8.1-5.8-12.3-8.9c7.3-8.8-0.1-28.5,19.7-27.6
	C1474.1,1812.1,1480.3,1816.1,1491.5,1820.2L1491.5,1820.2z"/>
<path class="st0" d="M1193,1259c-8.7,4.8-15.9,11-18.2,9.6c-8-5.1-16.1-12.1-20.3-20.2c-1.2-2.4,10.2-11.3,15.8-17.3
	C1177,1239.3,1183.6,1247.4,1193,1259L1193,1259z"/>
<path class="st0" d="M1662.8,1444.2c-5.5-8.5-11.9-16.1-10.9-17.3c8.5-9.8,18.2-18.6,28.1-26.9c0.4-0.4,10.1,8.5,9.7,9
	C1682.1,1420,1673.6,1430.4,1662.8,1444.2L1662.8,1444.2z"/>
<path class="st0" d="M1255.7,1036.2c-3.3,14.1-4,29.6-7.8,30.3c-11.5,2.4-24.1-0.9-36.3-1.9c1.4-4.6,1.4-11.8,4.4-13.4
	C1225.8,1046.2,1236.6,1043.2,1255.7,1036.2L1255.7,1036.2z"/>
<path class="st0" d="M1454.2,1094.4c-10,6.9-16.9,15.3-21.9,14.3c-7.2-1.4-13-9.6-19.4-14.9c6.3-6.4,11.8-15.9,19.4-18.2
	C1436.4,1074.4,1444.2,1085.4,1454.2,1094.4z"/>
<path class="st0" d="M776.6,1238.1c-9.5,7.9-14.6,12.1-19.6,16.3c-5.5-8.9-12.3-17.4-15.7-27.1c-1.1-3,6.9-9.2,10.8-13.9
	C759.2,1220.7,766.4,1227.9,776.6,1238.1L776.6,1238.1z"/>
<path class="st0" d="M1690.7,1303.7c-8.6,7.2-15.3,14.1-23.2,19c-4.4,2.7-13.2,4.7-15.6,2.4c-3.4-3.3-5-11.5-3.6-16.5
	C1653.4,1290.8,1676.9,1287.8,1690.7,1303.7L1690.7,1303.7z"/>
<path class="st0" d="M739.1,852.3c-7.6,13.1-14.1,24.2-20.6,35.4c-4-4.4-12.2-10.5-11.2-12.8c4.6-11.5,11.7-21.9,17.9-32.7
	C728.9,844.9,732.5,847.5,739.1,852.3L739.1,852.3z"/>
<path class="st0" d="M1411.5,2355.3c-7.6,3.1-16.2,10.1-22.4,8.3c-6.8-1.9-11.4-11.9-16.9-18.3c5-4.2,11.1-12.6,14.7-11.7
	c9,2.3,16.8,9,25.2,13.9C1411.8,2350.1,1411.7,2352.7,1411.5,2355.3L1411.5,2355.3z"/>
<path class="st0" d="M1014.3,1461.3c13.8,3.4,26.3,6.4,38.7,9.4c-5.3,7.3-9.8,20.1-16,21C1021.4,1493.9,1012.8,1483.9,1014.3,1461.3
	L1014.3,1461.3z"/>
<path class="st0" d="M1275.7,2166.4c1.7,10.8,4.5,21.6,4.3,32.4c-0.1,2.9-12.8,9-13.8,8c-5.2-5.5-11.8-12.9-11.6-19.4
	c0.2-7.6,7-15,10.9-22.5C1268.9,2165.4,1272.3,2165.9,1275.7,2166.4z"/>
<path class="st0" d="M1184.1,1328c-8.6-15.3-12.6-29.3,3.7-39.9c3.1-2,15,2.8,17,7.2C1213.9,1314.8,1200.1,1321.5,1184.1,1328
	L1184.1,1328z"/>
<path class="st0" d="M1094.5,1341.3c-15.4,2.8-29.5,3.9-32-15.1c-0.6-4.8,8.6-16,10.8-15.4
	C1086.7,1314.5,1099.5,1320.6,1094.5,1341.3L1094.5,1341.3z"/>
<path class="st0" d="M1435.3,905.3c16.7-0.1,32.4-6.5,34.3,14.3c0.6,6.1-5.9,18.5-9.2,18.5C1439.4,938.2,1441.8,920.3,1435.3,905.3
	L1435.3,905.3z"/>
<path class="st0" d="M1108.2,1030c3.7-0.6,7.7-2.4,11-1.6c6.8,1.7,13.3,4.8,20,7.3c-4.4,5.1-8,11.7-13.6,14.8
	c-6.8,3.8-15.2,4.7-28.3,3.1c3.5-7.7,7-15.5,10.4-23.2L1108.2,1030L1108.2,1030z"/>
<path class="st0" d="M1328.3,1094.2c-3.4-27.9-0.2-31.7,27.3-33.6C1360.3,1085.3,1356.4,1090.3,1328.3,1094.2z"/>
<path class="st0" d="M689.6,1040.3c-9.6-14.2-9.3-27.3,3.6-37.9c2.5-2,15.3,2.3,15.9,5.3C712.4,1023,708.5,1035.9,689.6,1040.3
	L689.6,1040.3z"/>
<path class="st0" d="M1056.8,1944.2c-14.4-12.9-11.1-26.3-1.4-36.1c4.4-4.5,16.2-1.7,24.6-2.3c-2.6,6.4-4.5,13.2-8.1,19.1
	C1068.2,1931.1,1063.1,1936.3,1056.8,1944.2L1056.8,1944.2z"/>
<path class="st0" d="M1346.5,1716.6c8.6-11.2,13.2-18.4,19.2-24.1c2.2-2.1,8.4-1.4,11.9,0.1c1.5,0.6,1.4,6.4,1.1,9.8
	c-0.4,4.3-3.8,9.4-2.3,12.6c4.8,10.5,2.2,17.4-9,16C1360.9,1730.2,1355.2,1722.8,1346.5,1716.6L1346.5,1716.6z"/>
<path class="st0" d="M1411.1,1786.9c0,10.6,2.7,22.5-1.3,31.3c-1.7,3.8-17.2,1.5-26.4,1.9c-0.8-2.2-1.6-4.4-2.3-6.7
	c6.4-9.5,12.8-18.9,19.1-28.4C1403.8,1785.7,1407.5,1786.3,1411.1,1786.9L1411.1,1786.9z"/>
<path class="st0" d="M1516.6,1337.8c-8.2,31.4-12.2,34-42.3,26.6c4.3-23,24.7-22.3,40.4-28.2
	C1515.3,1336.8,1516,1337.3,1516.6,1337.8L1516.6,1337.8z"/>
<path class="st0" d="M1145.6,1025.9c-7.8-7.2-12.7-11.7-17.6-16.2c7.3-5.3,14-12.1,22.1-15.1c2.3-0.8,13,10.2,12.1,14
	C1160.9,1014.6,1152.9,1019,1145.6,1025.9L1145.6,1025.9z"/>
<path class="st0" d="M1295.2,639.7c8.2,10.5,14.9,16.9,18.3,24.8c1,2.4-9.3,13.2-10.5,12.5c-7.8-4-15.9-9.2-20.9-16.2
	C1280.5,658.9,1288.6,649.9,1295.2,639.7L1295.2,639.7z"/>
<path class="st0" d="M1555.9,2038.7c-19-20.3-11.2-31,3.5-38.1c3.5-1.7,9.7,2.2,14.7,3.5C1568.1,2015.6,1562,2027.2,1555.9,2038.7z"
	/>
<path class="st0" d="M1757.7,1214.6c-9.8,9.8-15.5,15.6-21.3,21.3c-5-6.8-11.4-13.2-14.1-20.8c-0.8-2.2,8.6-10.8,14.1-11.6
	C1741.3,1202.8,1747.1,1208.7,1757.7,1214.6z"/>
<path class="st0" d="M1529.4,1510.7c-15,3-29.9,6-45.1,9.1c-4.7-25.2,3.1-27.8,43.6-15.8C1528.4,1506.2,1528.9,1508.4,1529.4,1510.7
	z"/>
<path class="st0" d="M610.9,988.1c-5.5-4.1-10.6-7.8-15.7-11.5c6.9-5,14.5-14.5,20.7-13.8c8.4,1.1,15.7,10.2,23.5,15.8
	C630.7,981.5,622,984.4,610.9,988.1L610.9,988.1z"/>
<path class="st0" d="M1048.1,1008.3c-11.7-5.1-20.6-8.9-29.5-12.8c4.8-6.2,9-16.9,14.6-17.7
	C1049.3,975.5,1050.7,987.4,1048.1,1008.3z"/>
<path class="st0" d="M995.7,1245.3c7.2-7.1,11.6-11.4,16.1-15.7c5,6.5,12.2,12.5,14,19.8c0.9,3.6-8.3,9.7-12.9,14.6
	C1008,1258.7,1003.2,1253.4,995.7,1245.3L995.7,1245.3z"/>
<path class="st0" d="M1371.8,2303.6c-13.6-2.6-27.1-5.2-40.7-7.8c-0.8-2.1-1.6-4.2-2.4-6.3c6.8-3.4,14.6-10.8,20.2-9.4
	c9.9,2.5,18.5,10.3,27.7,15.9C1374.9,2298.6,1373.3,2301.1,1371.8,2303.6L1371.8,2303.6z"/>
<path class="st0" d="M793.9,830.5c-11.2,19.3-21.5,22.4-30.4,10.6c-2.8-3.7,1.2-12.6,2-19.1C774.9,824.8,784.4,827.6,793.9,830.5
	L793.9,830.5z"/>
<path class="st0" d="M1648.6,1161.2c-2.1,18.6-11.6,25.1-26.6,21.9c-2.5-0.5-5.9-10.6-4.3-14.3
	C1623.9,1154.7,1634.9,1154.5,1648.6,1161.2L1648.6,1161.2z"/>
<path class="st0" d="M1722.7,1334.8c-10-4.3-19.9-8.5-29.9-12.8c2.4-4.7,3.8-12.1,7.5-13.5c16.6-6.5,21.8,5.3,26.3,17.2
	C1725.3,1328.7,1724,1331.8,1722.7,1334.8L1722.7,1334.8z"/>
<path class="st0" d="M1513.7,2179.7c8.5-3.5,17.1-9.8,25.6-9.6c5.6,0.1,11.1,9.5,16.6,14.7c-1.3,1.6-2.6,3.3-4,4.9h-35.4
	C1515.6,2186.4,1514.6,2183,1513.7,2179.7L1513.7,2179.7z"/>
<path class="st0" d="M903.7,853.1c-20,2.7-28-6.7-27.8-23.5c0-3.4,7.4-10.1,9-9.5C899.3,826,907,836.3,903.7,853.1L903.7,853.1z"/>
<path class="st0" d="M1266.4,169.5c4.5,7.5,9.7,14.7,12.9,22.7c0.5,1.4-10.5,9.6-11.3,8.9c-6.8-5.8-13.9-12.3-17.8-20.1
	c-1.8-3.6,3.4-10.6,5.4-16.1C1259.2,166.5,1262.8,168,1266.4,169.5L1266.4,169.5z"/>
<path class="st0" d="M1119.6,1722.9c6.4,7.3,10.6,12,14.8,16.7c-5.5,4.8-11.2,13.6-16.4,13.3c-6.2-0.3-12-8.5-17.9-13.2
	C1105.7,1734.9,1111.2,1730.1,1119.6,1722.9z"/>
<path class="st0" d="M1428.8,1769.9c-6.8-9.2-14.6-15.4-13.6-19.5c1.7-6.9,8.9-12.4,13.8-18.5c4.6,5.8,11.9,11.2,13,17.6
	C1442.8,1754.2,1435.4,1760.3,1428.8,1769.9L1428.8,1769.9z"/>
<path class="st0" d="M1256.1,1947c18.7,11.4,24.1,21.1,14,31.9c-3.1,3.3-13.1,0.2-20,0.1C1251.9,1969.3,1253.7,1959.6,1256.1,1947
	L1256.1,1947z"/>
<path class="st0" d="M1134.9,2189c-11,7.7-16.4,14.3-20.4,13.6c-7.7-1.4-14.6-6.9-21.9-10.8c5.2-4.3,10-11.4,15.7-12.1
	C1114.6,2179,1121.5,2184,1134.9,2189z"/>
<path class="st0" d="M625.6,1258.2c17.9-13.3,29.2-14,37-2c2.5,3.8-3.1,12.8-5,19.5C648.3,1270.6,639.1,1265.6,625.6,1258.2
	L625.6,1258.2z"/>
<path class="st0" d="M1086.4,93.6c7.2,9.7,13.2,16.5,17.2,24.3c0.7,1.4-10.3,10.8-10.8,10.3c-7.7-6.3-14.5-13.6-21.5-20.7
	C1075.2,103.8,1079.2,100.2,1086.4,93.6L1086.4,93.6z"/>
<path class="st0" d="M472.1,1348.1c-9.2-7-16.4-12.5-23.6-17.9c5.5-3.8,12.1-11.7,16.4-10.7c7.3,1.8,13.3,9.3,19.8,14.4
	C481.1,1337.8,477.6,1341.8,472.1,1348.1L472.1,1348.1z"/>
<path class="st0" d="M1605.5,1727.8c-14.2,7.9-22.6,13.3-31.7,17.1c-1.3,0.5-8.6-9.1-8.2-9.5c6-6.4,12.2-13.2,19.7-17.3
	C1588.1,1716.6,1594.6,1722.3,1605.5,1727.8L1605.5,1727.8z"/>
<path class="st0" d="M1211.8,1134.6c-9.4,4.7-15.8,10.7-19.6,9.3c-6-2.1-10.2-9.2-15.1-14.1c5.3-4.2,10.8-12.2,15.7-11.8
	C1198.1,1118.5,1203,1126.5,1211.8,1134.6L1211.8,1134.6z"/>
<path class="st0" d="M1222.2,416.2c-6.3,4.7-12.2,10.7-19.3,13.5c-2.8,1-8.4-5.4-12.7-8.4c6.6-7.6,12.3-16.5,20.4-22.1
	c3.3-2.3,11.6,2.4,17.6,3.9C1226.2,407.5,1224.2,411.9,1222.2,416.2L1222.2,416.2z"/>
<path class="st0" d="M1009.8,1375.4c-9.3,8.7-15.3,14.3-21.3,19.8c-3.9-4.5-11.7-10.2-10.8-13.3c2.1-6.8,7.8-13.3,13.7-17.6
	C993.2,1363.1,1000.7,1369.7,1009.8,1375.4z"/>
<path class="st0" d="M1348.7,278.4c1.1-11,2-22.1,3.9-33c0.1-0.6,8.8,0.3,13.6,0.5c-0.6,11.3-1.2,22.5-1.7,33.8
	C1359.2,279.2,1353.9,278.8,1348.7,278.4z"/>
<path class="st0" d="M1019.9,1558.1c-10.8,4.1-17.3,8.7-19.8,7.1c-6.7-4.3-11.6-11.3-17.2-17.3c4.8-3.4,11.4-10.7,14.1-9.5
	C1004,1541.7,1009.4,1548.6,1019.9,1558.1z"/>
<path class="st0" d="M1402.1,867.3c-4.9,5-9,11.1-14.8,14.6c-5.2,3.2-12.2,3.5-18.4,5c-0.6-5.4-3.5-12.5-1.1-15.8
	c3.1-4.4,10.1-6.5,15.8-8.4c4.6-1.4,9.7-0.9,14.6-1.2C1399.6,863.4,1400.9,865.4,1402.1,867.3L1402.1,867.3z"/>
<path class="st0" d="M1592.8,1515.7c-9.9-4.9-20-9.5-29.3-15.2c-0.9-0.6,2.8-12.3,3.9-12.3c13.3,0.8,27.2,2.2,30,19
	C1595.8,1510.1,1594.3,1512.9,1592.8,1515.7L1592.8,1515.7z"/>
<path class="st0" d="M956.2,914c-4.9-11.5-10.2-18.1-8.7-22c2.5-6.5,9.4-11.4,14.5-17c4,4.4,12.2,10.1,11.3,12.9
	C970.9,895.6,964.6,901.9,956.2,914z"/>
<path class="st0" d="M1440.4,1888.2c7.2-7,12.5-12.1,17.8-17.2c3.3,6.8,9.4,13.7,9.1,20.4c-0.2,4.6-9,8.9-13.9,13.3
	C1449.9,1900.3,1446.3,1895.8,1440.4,1888.2z"/>
<path class="st0" d="M1357.7,932.6c-9.2-1.7-18.7-2.5-27.2-6c-1.8-0.8,0.5-11.4,0.9-17.5c9.9,3,19.9,6.1,29.8,9.2
	C1360,923,1358.9,927.8,1357.7,932.6L1357.7,932.6z"/>
<path class="st0" d="M903.9,1144.3c-9.9,5.4-16.2,11.6-19.8,10.3c-6.5-2.4-11.3-9.2-16.8-14.2c4.6-4.1,10-12.2,13.6-11.5
	C887.6,1130.3,893.3,1136.8,903.9,1144.3z"/>
<path class="st0" d="M759.5,713.6c5.6-7.2,11.2-14.3,16.7-21.5c5.3,4.3,10.7,8.7,16,13c-8.1,5.9-16.2,11.7-24.2,17.6
	C765.2,719.7,762.4,716.7,759.5,713.6L759.5,713.6z"/>
<path class="st0" d="M844.8,1742.2c-9.4,8.4-15.2,15-22.4,18.9c-1.8,0.9-12.7-9.7-12.1-10.8c4.2-7.2,9.6-14.4,16.4-19
	C828.7,1730,836.4,1737,844.8,1742.2L844.8,1742.2z"/>
<path class="st0" d="M404.6,808.9c7.6-6.6,12.4-10.7,17.1-14.8c3.4,5,9.9,10.2,9.4,14.8c-0.7,6.9-6.2,13.3-9.7,19.9
	C416.7,823.2,411.9,817.6,404.6,808.9L404.6,808.9z"/>
<path class="st0" d="M1447.2,791.9c8.4,12.6,14,20,17.9,28.2c0.6,1.2-10.1,9.7-10.8,9.1c-6.3-5.3-12.6-11.3-16.4-18.4
	C1436.5,808.2,1442,801.9,1447.2,791.9L1447.2,791.9z"/>
<path class="st0" d="M1137.4,836.6c-19.3-13-17.3-23.1-6.6-31.3c4-3.1,11.9-1,18-1.3C1145.2,814,1141.8,824.1,1137.4,836.6z"/>
<path class="st0" d="M1985.4,1266.2c-8.3,5.4-13.2,10.3-18.9,11.5c-2.2,0.5-9.5-8.7-8.6-11.5c2.3-7,8-12.8,12.4-19.2
	C1974.4,1252.3,1978.5,1257.5,1985.4,1266.2L1985.4,1266.2z"/>
<path class="st0" d="M1058.3,1515.6c-8.7,7.2-14,13.2-20.7,15.9c-1.8,0.7-11.9-10.4-10.8-12.6c3.2-6.8,9.5-12.6,15.8-16.9
	C1043.8,1501.2,1050.8,1509.1,1058.3,1515.6L1058.3,1515.6z"/>
<path class="st0" d="M1000.6,1221.9c-6.6,3.1-14.1,9.7-19.6,8.3c-5.9-1.5-12.4-10-13.7-16.4c-0.7-3.3,8.7-11.3,14.5-12.5
	c3.6-0.8,9,7.2,13.7,11.2C997.2,1215.7,998.9,1218.8,1000.6,1221.9L1000.6,1221.9z"/>
<path class="st0" d="M1113,1806.9c-19.9-4.9-28.9-12-18.6-24.9c2.5-3.1,10.1-2.2,15.4-3.1C1110.8,1788.2,1111.9,1797.6,1113,1806.9z
	"/>
<path class="st0" d="M860.3,768.6c-10.3,4.3-16.8,9.7-21.3,8.3c-5.7-1.7-9.8-8.8-14.6-13.6c5-3.8,10.6-11.1,14.9-10.4
	C845.4,753.9,850.5,760.8,860.3,768.6L860.3,768.6z"/>
<path class="st0" d="M1237.1,475.3c-6.7-9.2-12.5-14.5-14.4-21c-0.9-3,6.1-8.2,9.5-12.4c5.8,5.6,12.4,10.8,17,17.3
	C1250,460.5,1243.4,467.1,1237.1,475.3L1237.1,475.3z"/>
<path class="st0" d="M1106.1,1974.5c-18.4-9.6-23.8-18.9-15.3-31.6c1.7-2.5,10-0.4,15.3-0.5V1974.5L1106.1,1974.5z"/>
<path class="st0" d="M1621.1,534.5c-10,5.6-16.6,12.2-20.5,10.9c-6.5-2.2-11.3-9.4-16.8-14.5c5.2-3.3,10.7-9.5,15.7-9.1
	C1605.4,522.2,1611,528.2,1621.1,534.5L1621.1,534.5z"/>
<path class="st0" d="M1183.2,1488.2c10.4-2.6,20.8-5.2,31.2-7.9c0.4,5.5,3.2,13.2,0.7,16.1c-9.8,11.1-20.7,8-30.6,1.1
	C1184,1494.4,1183.6,1491.3,1183.2,1488.2L1183.2,1488.2z"/>
<path class="st0" d="M1395.8,663.7c-3.3-5.7-7.6-11.2-6.8-12.1c6.4-7.1,13.8-13.4,20.8-20c3.6,4,7.2,8.1,10.8,12.2
	C1412.9,650,1405.2,656.2,1395.8,663.7L1395.8,663.7z"/>
<path class="st0" d="M1398.4,672c9.8,18.2,8.1,28.8-6.7,30.4c-4.3,0.5-9.5-6.5-14.2-10C1384.5,685.6,1391.5,678.8,1398.4,672
	L1398.4,672z"/>
<path class="st0" d="M520.2,1064.3c-9.4-5.1-18.7-10.1-28.1-15.1c3.7-3.8,9-11.4,11-10.6c8.7,3.4,16.4,9.2,24.5,14.2
	C525.1,1056.6,522.7,1060.4,520.2,1064.3z"/>
<path class="st0" d="M1228.2,1521.2c14.4,1.3,24.3,2.1,34.2,3c-1.4,5.9-1,15.2-4.5,17.2C1245.8,1547.8,1236.3,1543.3,1228.2,1521.2
	L1228.2,1521.2z"/>
<path class="st0" d="M493.4,1264.6c6.6,9.2,12.8,15.6,11.9,17c-4.5,6.4-10.6,12.2-17.2,16.5c-1.2,0.8-11.5-8.2-10.9-9.7
	C480.3,1281.3,485.7,1275.2,493.4,1264.6L493.4,1264.6z"/>
<path class="st0" d="M1091.4,1302.6c-11.1-6.2-19.2-13.9-10.3-26.6c2.3-3.2,14.2-4.5,16.6-1.9
	C1107.5,1284.8,1103.4,1294.5,1091.4,1302.6L1091.4,1302.6z"/>
<path class="st0" d="M1078.8,1466.4c5.8,10.4,11.7,17.4,10.4,19.2c-4.9,6.6-12.1,11.4-18.4,16.8c-3.1-3.6-9.4-8.6-8.6-10.5
	C1065.4,1484.5,1070.9,1478.1,1078.8,1466.4L1078.8,1466.4z"/>
<path class="st0" d="M1747,1587.4c-6.9,2.5-14,7.2-20.8,6.8c-4.3-0.2-12.5-9-11.6-11.9c1.9-6.9,8.2-12.5,12.7-18.7
	c4.2,4.4,8.3,8.8,12.5,13.2C1742.2,1580.4,1744.6,1583.9,1747,1587.4L1747,1587.4z"/>
<path class="st0" d="M1691.8,1053.1c8.7,19.8,3.9,28.7-10.5,28.9c-3.4,0.1-6.8-6.1-10.2-9.5C1678,1066,1684.9,1059.5,1691.8,1053.1
	L1691.8,1053.1z"/>
<path class="st0" d="M817.8,1186.3c-6.6-10.2-11.8-15.7-13.7-22.2c-0.6-2.3,9.5-10.6,10.7-9.8c6.3,4,12,9.6,16.2,15.8
	C831.7,1171.3,824.9,1177.7,817.8,1186.3L817.8,1186.3z"/>
<path class="st0" d="M1331.2,373.6c-10.9,7.7-16.5,13.5-23.3,15.6c-2.8,0.9-8.1-6.1-12.2-9.5c5.4-5.3,10.1-11.9,16.4-15.3
	C1314.8,363.1,1321.1,368.5,1331.2,373.6L1331.2,373.6z"/>
<path class="st0" d="M1622.4,1264.5c6.9,9.2,13.4,14.9,12.4,17c-3.3,7-9.4,12.7-14.4,18.9c-3.4-3.9-10.1-8.2-9.7-11.5
	C1611.7,1282.3,1616.5,1276.1,1622.4,1264.5L1622.4,1264.5z"/>
<path class="st0" d="M1718.7,1087.6c6.6,10.3,12.7,15.9,12.9,21.7c0.2,4.3-7,9.1-11,13.6c-4.6-5.1-11.5-9.6-13.1-15.5
	C1706.4,1103.4,1712.8,1097.4,1718.7,1087.6L1718.7,1087.6z"/>
<path class="st0" d="M1592,1613.1c-4.9,4.7-9.2,10.9-15,13.2c-2.2,0.8-12.2-9.1-11.3-11.4c2.6-6.9,7.7-14.8,13.9-17.8
	c4-2,11.9,3.8,18,6.1C1595.7,1606.5,1593.8,1609.8,1592,1613.1L1592,1613.1z"/>
<path class="st0" d="M1224.6,512.2c-9.7,4.8-15.9,10.6-19.9,9.3c-5.7-1.8-9.7-8.7-14.5-13.4c4.6-4,9.8-11.8,13.6-11.1
	C1209.8,497.9,1214.8,504.6,1224.6,512.2z"/>
<path class="st0" d="M1521.3,1660c10.6-7,15.2-34.8,40-4.4c-14.5,4.5-26.2,8.1-37.8,11.7C1522.8,1664.9,1522.1,1662.4,1521.3,1660
	L1521.3,1660z"/>
<path class="st0" d="M1305,1081.4h-30.6c-0.8-2.7-1.5-5.3-2.3-8c6.9-4,13.6-10.6,20.7-11.2c4.7-0.4,10,8,15.1,12.4
	C1307,1076.9,1306,1079.2,1305,1081.4L1305,1081.4z"/>
<path class="st0" d="M1448.5,606.9c-6.6-7.2-13.2-14.3-19.8-21.5c6.6-2.1,15.3-7.8,19.4-5.5c5.7,3.2,8,12.5,11.8,19.1
	C1456.1,601.7,1452.3,604.3,1448.5,606.9L1448.5,606.9z"/>
<path class="st0" d="M1540.7,1453c8.3,0.4,17.3-0.9,24.6,1.9c3.6,1.4,4.2,10.6,6.1,16.3c-10.5-1.7-21-3.3-31.5-5
	C1540.2,1461.8,1540.5,1457.4,1540.7,1453L1540.7,1453z"/>
<path class="st0" d="M974.3,779.6c-10.5,7.6-16,12.7-22.5,15.4c-1.5,0.6-10-8.4-9.1-11.1c1.8-5.9,6.7-12.4,12.1-15.1
	C957.5,767.3,964.1,773.6,974.3,779.6L974.3,779.6z"/>
<path class="st0" d="M1386.2,2259.8c-5.7-8.9-12.4-14.9-11.4-18.9c1.5-5.8,8.5-10.1,13.2-15.1c4.3,4.5,12.4,9.2,12.1,13.3
	C1399.6,2244.9,1393,2250.3,1386.2,2259.8L1386.2,2259.8z"/>
<path class="st0" d="M1091.2,2261.9l-5.8-28c5.9-0.6,11.9-1.2,17.8-1.8v28.4L1091.2,2261.9L1091.2,2261.9z"/>
<path class="st0" d="M1224.4,2256.2c-8.6,6.5-13.9,13.6-18,12.9c-5.9-0.9-10.9-7.4-16.3-11.6c5.1-4.5,9.6-11.3,15.4-12.6
	C1209.6,2244,1215.4,2250.5,1224.4,2256.2L1224.4,2256.2z"/>
<path class="st0" d="M1229.4,950.3c7.3-4.4,14.4-11.5,22.1-12.3c4.8-0.5,10.4,8.8,15.7,13.7c-1,1.9-2,3.7-2.9,5.6h-32.1
	C1231.2,955,1230.3,952.6,1229.4,950.3z"/>
<path class="st0" d="M1521.8,1893.8c-8.1-1.6-16.1-3.2-24.2-4.8c1.5-5.9,2.9-11.9,4.4-17.8c8,3.1,16,6.2,24,9.4
	C1524.6,1885,1523.2,1889.4,1521.8,1893.8L1521.8,1893.8z"/>
<path class="st0" d="M931.7,1348.8c-13.7-10.6-20.5-15.8-27.3-21.1c4.2-3.5,10.7-10.7,12.2-9.8c7.2,4.4,13.8,10.4,18.9,17.2
	C937.1,1337.1,933.4,1343.2,931.7,1348.8L931.7,1348.8z"/>
<path class="st0" d="M491.6,821.1c-10.4,6.1-16.2,12-22.1,12c-4.1,0-8.2-8-12.3-12.4c5-3.9,9.7-10.2,15.1-10.8
	C476.9,809.3,482.2,815.4,491.6,821.1L491.6,821.1z"/>
<path class="st0" d="M1834.1,1567.2c-9.4,5.3-14.9,10.9-18,9.7c-6.8-2.5-12.3-8.4-18.3-13c4.2-4.2,9.4-12.4,12.5-11.7
	C1817.2,1553.8,1823,1559.9,1834.1,1567.2L1834.1,1567.2z"/>
<path class="st0" d="M1974.2,1204.1c2.7,6.9,7.5,13.8,7.4,20.6c-0.1,4.6-7,9.1-10.9,13.7c-5.4-5-11.8-9.5-15.7-15.5
	c-1.1-1.7,5.3-8.1,8.2-12.3C1966.8,1208.4,1970.5,1206.3,1974.2,1204.1L1974.2,1204.1z"/>
<path class="st0" d="M770.8,1698.7c-8.3-10.1-14-17-19.7-24c4.7-2.7,11.8-8.8,13.7-7.5c6.1,4.2,11,10.7,14.7,17.3
	C780.5,1686.4,775.3,1691.6,770.8,1698.7L770.8,1698.7z"/>
<path class="st0" d="M516.7,1280.8c7.3-7.8,14.6-15.6,21.9-23.4c2.4,4.3,7.9,10.8,6.6,12.6c-5.3,7.7-12.6,14-19.2,20.8
	C522.9,1287.5,519.8,1284.1,516.7,1280.8L516.7,1280.8z"/>
<path class="st0" d="M1343.5,1223.1H1314c-1-2-2.1-4-3.1-6c6.1-5.1,12.1-13.8,18.4-14.1c5.9-0.3,12.2,8.5,18.3,13.3
	C1346.2,1218.5,1344.9,1220.8,1343.5,1223.1L1343.5,1223.1z"/>
<path class="st0" d="M953.8,1430.1c7,10.3,11.9,16.2,14.8,23.1c0.5,1.3-9.9,9.6-11.3,8.7c-5.8-3.9-11.3-9.4-14.4-15.6
	C941.8,1444.1,948,1438.3,953.8,1430.1L953.8,1430.1z"/>
<path class="st0" d="M535.7,1100.8c-6.6-7.9-11-13.2-15.3-18.5c5.1-3.4,10.8-10.2,15.2-9.4c5.5,1,9.9,8.1,14.8,12.6
	C546.2,1089.6,542.2,1093.9,535.7,1100.8L535.7,1100.8z"/>
<path class="st0" d="M691.1,1119.4c6.3,7.6,12.2,12,13.9,17.7c0.8,2.6-8.8,11.6-10,10.9c-6.4-3.4-11.6-9-17.2-13.9
	C681.4,1130.3,684.9,1126.4,691.1,1119.4L691.1,1119.4z"/>
<path class="st0" d="M1426.4,1422.1c0.4-4.4-0.5-9.7,1.6-13.1c3.5-5.6,8.6-10.5,13.9-14.3c0.9-0.6,10.1,6.4,9.6,8.6
	c-1.4,6.2-5,12.4-9.3,17.2c-2.6,2.9-8.1,3.3-12.3,4.9C1428.8,1424.3,1427.6,1423.2,1426.4,1422.1L1426.4,1422.1z"/>
<path class="st0" d="M1294.1,424.9c-11,6-17.2,10.9-24.1,12.3c-2.5,0.5-6.7-7.3-10.1-11.3c5.8-4.8,11.2-10.8,17.8-13.8
	C1280,411.1,1285.6,418,1294.1,424.9z"/>
<path class="st0" d="M1620.1,1105.6c-8.8-2.8-17.5-5.6-26.3-8.4c4.2-5.6,8.4-11.1,12.6-16.6c6.2,5.3,12.4,10.7,18.7,16.1
	C1623.4,1099.6,1621.7,1102.6,1620.1,1105.6z"/>
<path class="st0" d="M1396.3,1383.5c9-3.9,17.9-7.9,26.9-11.9c0.8,6.1,4,16.5,2.1,17.5c-7.4,4-16.4,5-24.8,7.2
	C1399.1,1392,1397.7,1387.8,1396.3,1383.5L1396.3,1383.5z"/>
<path class="st0" d="M731,1200.3c-7.3,5.2-14.4,10.7-22.2,15c-0.9,0.5-8.2-7.8-7.9-8.2c6.2-7.6,12.4-15.6,20.2-21.2
	c2.8-2,9.9,2.2,15.1,3.6C734.5,1193.2,732.7,1196.8,731,1200.3z"/>
<path class="st0" d="M1278,889.7c-5.2-9.8-11.3-16-10.1-20.2c1.7-5.7,8.2-10.9,13.9-14c1.5-0.8,11.5,7.8,10.8,9.9
	C1290.4,872.5,1285,878.7,1278,889.7L1278,889.7z"/>
<path class="st0" d="M1222.9,138.2c-9.5,4.8-15.8,10-18,8.6c-6-3.7-10.3-10.3-15.2-15.7c4-3.5,9.6-10.7,11.8-9.8
	C1207.9,124.1,1213,130,1222.9,138.2L1222.9,138.2z"/>
<path class="st0" d="M468.5,1018.6c-11.7,6.2-18.7,10.9-26.4,13.4c-1.9,0.6-6.1-6.2-9.3-9.5c6.6-4.9,12.9-10.5,20.2-14.1
	C455.1,1007.4,460.2,1012.9,468.5,1018.6L468.5,1018.6z"/>
<path class="st0" d="M834,882.7c-1.8,1.9-3.6,3.8-5.4,5.6c-2.2-0.2-4.7-0.1-6.7-0.8c-7-2.5-14-5.4-21-8.1c3.7-4.1,8.2-12,10.9-11.5
	c7.4,1.5,14.1,6.6,20.9,10.5C833.6,879.1,833.5,881.3,834,882.7L834,882.7z"/>
<path class="st0" d="M1346.6,656.3c-6.4-8.2-13.4-14.8-12.4-16.4c3.9-6.2,10-11.3,16.1-15.5c1-0.7,10.1,6.7,9.5,8.3
	C1357.3,639.7,1352.7,646,1346.6,656.3L1346.6,656.3z"/>
<path class="st0" d="M1618.8,1200c-7.7,6.5-12.4,13.5-17.7,14c-3.9,0.3-12.8-9.4-11.9-11.9c2.3-6.3,8.8-11.1,13.7-16.5
	C1607.2,1189.5,1611.4,1193.3,1618.8,1200L1618.8,1200z"/>
<path class="st0" d="M1505.8,1560.8c-10.6,5.1-16.8,10.7-20.8,9.4c-5.9-1.9-10.2-8.7-15.3-13.5c4.8-3.5,9.9-10,14.4-9.6
	C1489.9,1547.6,1495.2,1553.7,1505.8,1560.8L1505.8,1560.8z"/>
<path class="st0" d="M1354.5,729.8c-6.6-9.3-12.5-17.6-18.4-25.9c5.9-0.9,12.9-4.3,17.6-2.2C1364.8,706.4,1369.8,714.8,1354.5,729.8
	L1354.5,729.8z"/>
<path class="st0" d="M1991.1,1094.2c5.3,8.9,11.2,14.3,10.6,19c-0.6,4.9-7.3,9.2-11.3,13.7c-4.3-5.2-10.9-9.8-12.2-15.7
	C1977.4,1107.6,1984.6,1102.2,1991.1,1094.2z"/>
<path class="st0" d="M1310.5,137.2c-8.9,7.4-14.2,13.6-20.9,16.6c-2.1,0.9-7.9-6.5-12.1-10.1c6.1-5.4,11.8-11.5,18.6-15.7
	C1297.8,127,1303.3,132.4,1310.5,137.2L1310.5,137.2z"/>
<path class="st0" d="M793.3,1244.9c-7-9.9-13.7-15.3-12.8-18.9c1.4-6.2,7.6-11.3,11.7-16.9c4,4.4,10.7,8.5,11.1,13.2
	C803.8,1227.7,798.6,1233.6,793.3,1244.9L793.3,1244.9z"/>
<path class="st0" d="M1450.2,1326.8c0-3-1.2-6.9,0.3-8.8c4.4-6.2,9.9-11.6,14.9-17.4c3.4,4.2,10.4,10.7,9.4,12.3
	c-3.8,6.4-10,11.5-15.7,16.6c-1.2,1-4.3-0.2-6.6-0.3C1451.8,1328.3,1451,1327.5,1450.2,1326.8L1450.2,1326.8z"/>
<path class="st0" d="M879,1228.3c6.4,7.6,13.3,12.2,13.5,16.9c0.1,4.2-7.2,11.7-11.7,12c-5,0.4-10.4-5.7-15.7-8.9
	C869.1,1242.7,873,1237,879,1228.3L879,1228.3z"/>
<path class="st0" d="M569.5,792c-4.1-8.1-8.2-16.2-12.3-24.2c1.5-2.1,3-4.2,4.5-6.3c6.9,2.9,16.8,4.1,19.8,9.3
	c2.9,5-1.4,14.2-2.5,21.5C575.8,792.2,572.7,792.2,569.5,792L569.5,792z"/>
<path class="st0" d="M1238.5,784.2c-6.4-8.3-13.1-13.2-12.9-17.9c0.2-5.2,6.6-10.2,10.4-15.2c4.9,4.5,12.4,8.4,13.8,13.8
	C1250.9,769,1244.2,775.1,1238.5,784.2L1238.5,784.2z"/>
<path class="st0" d="M712.8,1632.4c6.7-5.7,12.8-12.2,20.4-16.2c1.5-0.8,8.1,8,12.4,12.3c-8.7,4.6-17.4,9.1-26.1,13.7
	C717.2,1638.9,715,1635.7,712.8,1632.4L712.8,1632.4z"/>
<path class="st0" d="M1198.3,857.1c-6.4-5.5-10.7-9.2-15-13c5.3-4.1,10.6-11.6,15.8-11.5c5.7,0.2,11.2,7.3,16.8,11.4
	C1210.7,847.9,1205.5,851.8,1198.3,857.1L1198.3,857.1z"/>
<path class="st0" d="M1903.6,1151.7c-7.4,4.9-14.8,9.8-22.3,14.7c-2.7-4.9-5.4-9.8-8.1-14.7c7.8-4.1,15.5-8.1,23.3-12.2
	C1898.9,1143.6,1901.3,1147.7,1903.6,1151.7L1903.6,1151.7z"/>
<path class="st0" d="M878.6,1098.4c2,2.2,4.1,4.4,6.1,6.7c-14.7,24.2-24.3,3.4-37-3.1C857.6,1084.6,868.4,1094.5,878.6,1098.4
	L878.6,1098.4z"/>
<path class="st0" d="M1709.4,600.5c-10.3,5.4-15.9,10.9-20.7,10.2c-5-0.8-9.1-7.5-13.6-11.6c3.9-4.1,8.2-11.9,11.5-11.5
	C1692.9,588.5,1698.5,594,1709.4,600.5L1709.4,600.5z"/>
<path class="st0" d="M1226.2,1114.4c-12.1-6.8-20.2-11.3-28.2-15.8c3-4.5,5.6-12.4,9.1-12.9
	C1221.8,1083.6,1226.1,1093.1,1226.2,1114.4L1226.2,1114.4z"/>
<path class="st0" d="M1391,1579.2c9.3,1.8,18.6,3.5,27.9,5.3c-2.2,4.8-4.8,13.8-6.4,13.6c-8.7-1-17.1-4.2-25.6-6.7
	C1388.3,1587.4,1389.7,1583.3,1391,1579.2L1391,1579.2z"/>
<path class="st0" d="M800.6,1317.6c4.9,8.5,10.8,15.1,9.5,17.2c-3.8,6.2-10.5,10.6-16,15.8c-2.9-4.5-8.9-9.9-8-13.4
	C787.7,1331.2,793.7,1326.4,800.6,1317.6L800.6,1317.6z"/>
<path class="st0" d="M1418.2,993.3c-6.2,2.5-12.6,7.4-18.5,6.8c-4.5-0.5-11.2-7.9-11.4-12.4c-0.2-4.5,5.8-12,10.4-13.2
	c3.6-1,9.2,5.6,14,8.9C1414.5,986.6,1416.4,990,1418.2,993.3L1418.2,993.3z"/>
<path class="st0" d="M1637.3,1796.2c-4.5-3.7-7.9-6.3-11.1-9.1c-4.8-4.2-9.4-8.6-14.1-12.9c5-2.1,11.9-7.2,14.5-5.6
	c6.7,4.2,11.7,11.1,16.5,17.7C1643.9,1787.3,1639.9,1791.9,1637.3,1796.2z"/>
<path class="st0" d="M1525.7,952.9c-5.8,3.3-11.4,8.3-17.6,9.1c-3.4,0.4-7.8-6.2-11.7-9.7c5.9-5.1,11.2-12,18.1-14.7
	c3.8-1.5,10.4,4,15.7,6.4C1528.7,946.9,1527.2,949.9,1525.7,952.9L1525.7,952.9z"/>
<path class="st0" d="M735.1,1340.8c0.8-9.2,1.5-18.4,2.3-27.6l6.2-3.7c5.2,5.6,15.6,12.7,14.5,16.4c-2.1,7.2-10.7,12.6-16.6,18.8
	C739.4,1343.4,737.2,1342.1,735.1,1340.8L735.1,1340.8z"/>
<path class="st0" d="M1613.2,1922.7c-1.3,7.9-1.3,16.4-4.6,23.4c-0.9,2-11.2-0.4-17.2-0.8c3.2-8.6,6.4-17.2,9.7-25.8
	C1605.1,1920.6,1609.1,1921.7,1613.2,1922.7L1613.2,1922.7z"/>
<path class="st0" d="M1294.6,625.4c-9.8,1.3-19.7,2.5-29.5,3.8c0.9-4.6,0.6-12.5,2.9-13.3c7.8-2.8,16.5-3.2,24.9-4.5
	C1293.4,616,1294,620.7,1294.6,625.4L1294.6,625.4z"/>
<path class="st0" d="M688.6,932.2c-5.1-8.5-10.8-13.9-9.8-17.3c1.8-6.2,7.6-11.3,11.8-16.9c4,5.3,10.4,10.4,11.1,16.1
	C702.2,918.4,695.2,923.5,688.6,932.2L688.6,932.2z"/>
<path class="st0" d="M1420.9,831.9c-10.6,7-16.6,11.8-23.4,14.8c-1.2,0.5-8.9-7.9-8.1-10c2.3-6,6.6-13,12-15.5
	C1404.6,819.8,1411.4,826.3,1420.9,831.9L1420.9,831.9z"/>
<path class="st0" d="M1910.2,1247.4c-4.8-9.4-9.6-18.8-14.4-28.2c3.7-1.2,7.9-4.2,11-3.2c14.9,4.6,16,15.1,12,27.2L1910.2,1247.4
	L1910.2,1247.4z"/>
<path class="st0" d="M1343.4,2118.4c3.3,3,8.4,5.6,9.4,9.2c1.6,5.8,2.4,13.5-0.3,18.1c-1.8,3.1-10.3,2.4-15.8,3.4
	c-1.1-6-2.9-12.1-2.8-18.1c0-3.3,3.3-6.5,5.1-9.8C1340.4,2120.3,1341.9,2119.3,1343.4,2118.4L1343.4,2118.4z"/>
<path class="st0" d="M1136.9,68.7c-12.1,7.2-18.1,12.1-25,14.1c-2.6,0.7-7.1-5.4-10.8-8.4c5.4-5.2,10.2-11.7,16.6-15.2
	C1120.3,57.9,1126.5,63.3,1136.9,68.7L1136.9,68.7z"/>
<path class="st0" d="M1276.7,313.2c6.7,8.8,12.6,13.9,14.2,20c0.8,3.3-6,8.4-9.4,12.8c-4.7-6-10.3-11.7-13.7-18.4
	C1266.8,325.6,1272.1,320.4,1276.7,313.2L1276.7,313.2z"/>
<path class="st0" d="M1287.3,475c-7.8-7.3-15.7-14.5-23.6-21.8c3.2-2.7,6.9-8.2,9.4-7.7C1285.5,448.2,1295.4,454.1,1287.3,475
	L1287.3,475z"/>
<path class="st0" d="M1033.5,792.5c-10.5,4.9-15.5,9.3-19.4,8.5c-6.3-1.2-12-5.9-17.9-9.2c4.3-4.1,8.7-11.5,13-11.5
	C1015.3,780.4,1021.3,786,1033.5,792.5L1033.5,792.5z"/>
<path class="st0" d="M1018.2,1450.5c-8.2-5.1-16.5-10.1-24.2-15.7c-0.4-0.3,5.2-10.1,5.6-9.9c8.8,3.7,17.2,8.2,25.8,12.6
	C1022.9,1441.8,1020.6,1446.2,1018.2,1450.5L1018.2,1450.5z"/>
<path class="st0" d="M556.3,1418.3c-3.2-10.6-7.3-16.8-5.6-20.3c2.8-5.8,9.2-10,14.1-14.8c2.8,4.7,8.7,10.4,7.6,14
	C570.6,1403.3,564.5,1408.2,556.3,1418.3L556.3,1418.3z"/>
<path class="st0" d="M1455.8,1910.6c0.5,7.3,3.9,16.4,0.7,21.3c-3,4.7-12.9,4.9-19.8,7.1c-1.5-1.9-3-3.9-4.5-5.8
	c4.7-8.2,9.5-16.4,14.2-24.6C1449.6,1909.2,1452.7,1909.9,1455.8,1910.6L1455.8,1910.6z"/>
<path class="st0" d="M1584,1665.6c-5.2-7.6-11.2-12.6-10.4-16c1.3-5.4,7.1-9.7,11-14.4c4.4,4.2,11.9,8.2,12.4,12.8
	C1597.4,1652.4,1590.4,1657.5,1584,1665.6z"/>
<path class="st0" d="M857.3,1149.2c-8.1,4.6-13,9-14.6,8c-7.8-4.6-14.6-10.6-21.8-16.2c4-2.7,9.3-8.4,11.9-7.4
	C840.4,1136.6,846.9,1142.3,857.3,1149.2L857.3,1149.2z"/>
<path class="st0" d="M946,1379.6c-1.5-0.2-3.7,0.1-4.4-0.8c-5.6-7-10.8-14.2-16.2-21.4c4.3-2,9.4-6.6,12.7-5.5
	c11.2,3.7,18.7,10.8,11.5,24.1C948.4,1377.2,947.2,1378.4,946,1379.6L946,1379.6z"/>
<path class="st0" d="M647.3,782.7c-15-12.2-16.5-22.5-1-33.3C664.2,759.5,664.3,769.8,647.3,782.7z"/>
<path class="st0" d="M1152.4,1304.5c6.9,8.1,12.3,12.7,15,18.6c0.7,1.6-7.5,10.4-10.1,9.8c-6.1-1.4-12.5-5.8-16.1-10.8
	C1139.9,1320.2,1146.9,1312.8,1152.4,1304.5L1152.4,1304.5z"/>
<path class="st0" d="M1680.4,1847c2.9-7.8,4.8-16.3,9.3-23.2c1.2-1.9,9.7,0.8,14.9,1.5c-4.5,8.8-9,17.6-13.4,26.4
	C1687.5,1850.1,1684,1848.5,1680.4,1847L1680.4,1847z"/>
<path class="st0" d="M1447,881.8c-10.3,5.1-15.5,9.9-18.7,8.8c-6-2-10.9-7.5-16.2-11.5c3.9-3.5,8.2-10.1,11.6-9.7
	C1429.8,870.1,1435.3,875.2,1447,881.8z"/>
<path class="st0" d="M759.4,1719c8.7-5.1,15-10.6,16.8-9.4c5.3,3.6,10.5,9.2,12.5,15.2c0.9,2.7-5.8,7.9-9.1,12
	C774.1,1732,768.7,1727.2,759.4,1719L759.4,1719z"/>
<path class="st0" d="M486.8,793.5c8.9-2.7,17.7-6.5,26.8-7.3c2.6-0.2,6,8,9.1,12.4c-10.6,2.1-21.2,4.1-31.9,6.2
	C489.4,801.1,488.1,797.3,486.8,793.5L486.8,793.5z"/>
<path class="st0" d="M805.9,642.2c7.7,2.6,15.4,5.2,23.2,7.8c-2.1,6-4.2,12-6.3,17.9c-7.1-5.1-14.2-10.2-21.4-15.2
	C802.8,649.2,804.4,645.7,805.9,642.2z"/>
<path class="st0" d="M845.2,1617.8c5.7,9.6,11.7,15.8,10.4,18.3c-2.9,5.6-9.1,9.8-14.6,13.4c-0.6,0.4-9-7.1-8.4-9.5
	C834.2,1633.8,838.9,1628.4,845.2,1617.8z"/>
<path class="st0" d="M794.7,1175.8c-1.4,7.9-2.8,15.9-4.2,23.8c-5.8-1.8-11.5-3.6-17.3-5.4c3.8-7.4,7.5-14.7,11.3-22.1
	C787.9,1173.4,791.3,1174.6,794.7,1175.8z"/>
<path class="st0" d="M1140.7,65.2c8.4-6.3,16.8-12.6,25.2-18.9c1.1,4.5,4.7,11.1,3,13c-5.9,6.6-13.6,11.4-20.7,17
	C1145.7,72.6,1143.2,68.9,1140.7,65.2L1140.7,65.2z"/>
<path class="st0" d="M1229.9,499.6c8.3,3,17.1,5.2,24.4,9.7c1.9,1.1-1.1,10-1.8,15.3c-9-4.4-17.9-8.9-26.9-13.3
	C1227,507.4,1228.4,503.5,1229.9,499.6L1229.9,499.6z"/>
<path class="st0" d="M1343.9,507.5c-6.1-8.5-12.3-13.6-11.4-16.8c1.9-6.9,7.4-12.8,11.4-19.1c3.6,5.2,9.5,10.1,10.1,15.6
	C1354.5,492.1,1349.1,497.7,1343.9,507.5z"/>
<path class="st0" d="M1057.6,1355.8c-9,5-14.6,10-20.9,10.9c-3.2,0.4-7.4-6.6-11.1-10.2c6.3-4.3,12.3-9.4,19.3-12.2
	C1046.6,1343.6,1051.3,1350,1057.6,1355.8L1057.6,1355.8z"/>
<path class="st0" d="M1714.6,1135.4c5,8.1,10.1,16.2,15.1,24.3c-4.4,1.5-11.9,5.2-12.7,4.2c-5-7-8.5-15.1-12.5-22.8
	C1707.8,1139.2,1711.2,1137.3,1714.6,1135.4z"/>
<path class="st0" d="M1235.3,1413.3c-8.2,5.6-13.4,11.7-16.4,10.8c-5.9-1.9-10.5-7.6-15.7-11.8c3.5-4.2,7.8-12.2,10.5-11.7
	C1219.9,1401.7,1225.3,1407,1235.3,1413.3L1235.3,1413.3z"/>
<path class="st0" d="M1222.8,1027.4c3.8-8.2,7.3-16.7,12-24.4c0.6-0.9,8.5,2.8,13,4.3c-4.4,8.6-8.8,17.2-13.2,25.8
	C1230.6,1031.2,1226.7,1029.3,1222.8,1027.4z"/>
<path class="st0" d="M1297.2,1276.1c-5.8-8.2-12.1-13.6-11.1-16.3c2.6-6.9,8.4-12.5,12.9-18.7c3.8,4.7,10.7,9.6,10.5,14.2
	C1309.3,1261.1,1303.3,1266.6,1297.2,1276.1z"/>
<path class="st0" d="M949.5,1376c7.1,3.1,14.2,6.2,21.3,9.3c-7,7.5-14.1,15-21.2,22.6c-2.2-1.2-4.5-2.5-6.8-3.7c1-8.2,2-16.4,3-24.5
	C947.1,1378.4,948.3,1377.2,949.5,1376L949.5,1376z"/>
<path class="st0" d="M1354.6,2026c-9.2,7.1-14.5,11.2-19.7,15.2c-3.1-5.5-8.2-10.9-8.4-16.5c-0.2-3.6,6.8-10.6,10.5-10.6
	C1341.5,2014.1,1346.1,2019.9,1354.6,2026L1354.6,2026z"/>
<path class="st0" d="M1827.2,1498.3c2.6-9.1,4.7-18.4,8.4-27c0.5-1.2,8.8,0.9,13.5,1.5c-3.1,9.7-6.2,19.4-9.4,29.1
	C1835.6,1500.7,1831.4,1499.5,1827.2,1498.3L1827.2,1498.3z"/>
<path class="st0" d="M1118.8,2049.1c9.2-1.5,18.3-3.1,27.5-4.6c-1,6.1-1,17.1-3.1,17.5c-8.2,1.6-17-0.1-25.6-0.6
	C1118.1,2057.3,1118.4,2053.2,1118.8,2049.1L1118.8,2049.1z"/>
<path class="st0" d="M578.6,1099c1.3-8.9,2.1-18,4.5-26.5c0.4-1.2,8.9-0.1,13.7-0.1c-2.2,9.6-4.4,19.2-6.6,28.9
	C586.4,1100.5,582.5,1099.7,578.6,1099L578.6,1099z"/>
<path class="st0" d="M812.2,747.1c2.3-8,4.5-16,6.8-23.9c5,1.8,9.9,3.6,14.9,5.3c-3,7.8-6.1,15.7-9.1,23.5
	C820.5,750.4,816.4,748.8,812.2,747.1L812.2,747.1z"/>
<path class="st0" d="M476.3,730.7c-6.2-9.4-12-14.5-12.2-19.8c-0.1-4,6.9-8.3,10.7-12.5c4.1,3.8,11.2,7.4,11.4,11.3
	C486.5,715.1,481.4,720.8,476.3,730.7L476.3,730.7z"/>
<path class="st0" d="M1415,544.1c-9.9,5.5-15,10.8-18.5,9.9c-6.3-1.8-11.6-7.2-17.4-11.1c5-3.4,9.8-9.1,14.9-9.4
	C1399.1,533.2,1404.4,538.4,1415,544.1L1415,544.1z"/>
<path class="st0" d="M1197.7,1055.5c-9.8-1.9-19.6-3.7-29.5-5.6c2.3-4.1,5.1-11.8,6.8-11.6c8.7,1.2,17,4.5,25.5,7
	C1199.6,1048.8,1198.7,1052.2,1197.7,1055.5L1197.7,1055.5z"/>
<path class="st0" d="M1169.7,199.1c2.4-9,4.7-18,7.1-27c4.1,1.9,12,4.3,11.8,5.5c-1.4,8.4-4.4,16.6-6.9,24.9
	C1177.7,201.4,1173.7,200.3,1169.7,199.1z"/>
<path class="st0" d="M1318.6,136.8c6.9-7.6,13.9-15.2,20.8-22.8c2.4,4.8,8.1,12.3,6.8,13.9c-5.7,6.8-13.5,11.8-20.5,17.5
	C1323.3,142.6,1321,139.7,1318.6,136.8L1318.6,136.8z"/>
<path class="st0" d="M1513.3,896.1c5.9,5.4,9.5,8.8,13.1,12.1c-5.4,4.2-10.3,10.1-16.5,11.8c-3.3,0.9-8.6-5.4-13-8.5
	C1501.7,907.1,1506.5,902.6,1513.3,896.1L1513.3,896.1z"/>
<path class="st0" d="M1210.7,1557.1l-14.3-20.7c4.5-2.8,9-5.6,13.6-8.3c3.6,7.7,7.3,15.4,10.9,23.1
	C1217.5,1553.1,1214.1,1555.1,1210.7,1557.1L1210.7,1557.1z"/>
<path class="st0" d="M1710,1552.8c0-7.9-2.2-16.7,0.8-23.3c1.9-4.2,11.3-4.9,17.4-7.2c1.4,1.7,2.7,3.3,4.1,4.9
	c-4.5,8.7-9,17.5-13.4,26.2C1715.9,1553.2,1712.9,1553,1710,1552.8L1710,1552.8z"/>
<path class="st0" d="M1754.2,1719.5c3.1,6.5,7.6,12.9,8.4,19.7c0.3,2.6-8.4,9.2-12.2,8.7c-5.5-0.8-10.3-6.5-15.4-10.2
	c3.3-4.3,6.6-8.5,9.9-12.8C1748,1723.1,1751.1,1721.3,1754.2,1719.5L1754.2,1719.5z"/>
<path class="st0" d="M779.9,895.2c-8.2-3-16.3-6.1-24.5-9.1c3.2-4.5,7.5-13.1,9.4-12.6c7.4,2,14,6.9,21,10.7
	C783.8,887.9,781.8,891.5,779.9,895.2L779.9,895.2z"/>
<path class="st0" d="M1361.8,2199.7c-8-5.6-13.6-9.4-19.1-13.2c5.9-3.1,11.9-8.7,17.7-8.6c4.6,0.1,9.1,7.2,13.6,11.2
	C1370.5,2192.3,1366.9,2195.4,1361.8,2199.7L1361.8,2199.7z"/>
<path class="st0" d="M1572.9,598.2c-4-8.4-8.6-14-7.3-16.2c3.6-6.1,9.6-10.8,14.7-16c3,3.3,9.1,8.1,8.3,9.6
	C1585.3,582.5,1580.1,588.3,1572.9,598.2L1572.9,598.2z"/>
<path class="st0" d="M1333.1,2265c-3.6-3.8-7.1-7.6-10.7-11.4c5.4-4.2,10.3-10,16.4-12c2.5-0.8,10.8,6.4,10.8,10.1
	c0,6.2-4.4,12.4-6.9,18.5C1339.5,2268.4,1336.3,2266.7,1333.1,2265L1333.1,2265z"/>
<path class="st0" d="M1367.4,986.7c-10.6,5.9-16.2,11.6-20.9,11c-5.2-0.7-9.6-7.3-14.3-11.3c4.9-3.6,9.5-9.7,14.8-10.2
	C1351.7,975.6,1357,981,1367.4,986.7z"/>
<path class="st0" d="M1491.6,2163.4c5.1,9,11.2,15.6,9.8,18.2c-3,5.7-9.7,9.3-15,13.8c-2.8-3.4-8.7-7.9-8-10.2
	C1480.6,2178.8,1485.4,2173.3,1491.6,2163.4z"/>
<path class="st0" d="M1112.3,2340.2c9.9-2,19.8-4.1,29.6-6.1c-0.8,6-0.9,17-2.5,17.3c-8.6,1.2-17.7-0.2-26.5-0.8
	C1112.7,2347.1,1112.4,2343.6,1112.3,2340.2L1112.3,2340.2z"/>
<path class="st0" d="M1309.3,760.2c-8.1,2.7-16.2,5.5-24.4,8.2c-1.7-1.2-3.5-2.5-5.2-3.7c2.8-6.1,4.4-16,8.8-17.5
	c6.1-2.1,14.4,2,21.7,3.5C1309.9,753.9,1309.6,757,1309.3,760.2L1309.3,760.2z"/>
<path class="st0" d="M1544.5,1529.6c0.8,8.8,2.2,17.6,1.7,26.3c-0.1,1.5-8.4,2.6-12.9,3.8c-0.4-9.6-0.9-19.2-1.3-28.8L1544.5,1529.6
	L1544.5,1529.6z"/>
</svg>
