<?xml version="1.0" encoding="utf-8"?>
<!-- Generator: Adobe Illustrator 26.5.1, SVG Export Plug-In . SVG Version: 6.00 Build 0)  -->
<svg version="1.1" id="Layer_1" xmlns="http://www.w3.org/2000/svg" xmlns:xlink="http://www.w3.org/1999/xlink" x="0px" y="0px"
	 viewBox="0 0 2066 1050.9" style="enable-background:new 0 0 2066 1050.9;" xml:space="preserve">
<style type="text/css">
	.st0{fill:#FFFFFF;}
</style>
<path class="st0" d="M1466,1c200,0,400,0,600,0v1049.9H1C1,700.9,1,351,1,1c67,0,134,0,201,0v45.8c42.2,5.9,83.8,11.7,125.7,17.5
	c2.5-11.4,4.9-22.2,7.3-32.9c2.3-10.1,4.7-20.3,7-30.4c18,0,36,0,54,0c-5.6,5.3-11.2,10.7-16.9,16c-7.4,6.7-14.9,13.3-23,20.6
	c20.8,20.8,41.2,41.2,61.9,61.9c-50,17.4-100,34.8-150.2,52.3c0.7,2.2,1.2,3.8,1.7,5.2c10.5,28.2,21,56.4,31.5,84.6
	c9,24.1,18,48.2,26.8,72.3c1.1,3.2,2.1,3.2,5,2.1c26.7-10.5,53.4-20.7,80.1-31.2c29.4-11.5,58.7-23.1,88-34.6
	c-16.4-38.6-32.7-77.1-49.1-115.6c0.5-0.3,1-0.6,1.4-1c1.1,1.4,2.1,3,3.4,4.3c24.8,25.1,49.4,50.4,74.4,75.2
	c7.9,7.8,17,14.2,25.7,21.3c11.5-12.2,22.4-23.9,33.4-35.3c11.4-11.9,22.9-23.6,34.4-35.4c11.2-11.6,22.4-23.1,33.7-34.7
	c15.2-15.6,30.5-31.1,45.7-46.7c0.8-0.8,1.5-1.7,2.2-2.5c-3.4-3.9-6.6-7.6-10-11.6c3.3-0.6,5.9-1.3,8.6-1.4
	c14.3-0.4,28.5-0.8,42.8-1c21.3-0.4,42.5-0.7,63.8-1c0.8,0,1.6-0.2,2.4-0.3c-0.2-3.1-0.5-6-0.7-8.9c-0.7-7-1.4-14.1-2.2-21.1
	c-1.2-11.2-2.6-22.5-3.8-33.7c40,0,80,0,120,0c0.7,1.7,1.2,3.4,2,4.9c5.6,11,11.3,22.1,17,33.1c1,2,2.1,3.7,4.9,2.1
	c4.6-2.7,9.4-5.2,14.2-7.7c14.7-7.5,29.4-15,44-22.5c6.3-3.2,12.6-6.6,18.8-9.9c5,0,10,0,15,0c-0.5,5.7-1.1,11.3-1.4,17
	c-0.3,6.8-0.3,13.6-0.6,20.5c-0.2,4.6-0.9,9.2-0.8,13.8c0,1.2,1.8,3.5,2.8,3.5c2.9-0.1,6,0.7,8.3,0.6c5.5-0.2,10.7,0.6,16.2,1
	c12,1,24.2,0.6,36.2,0.9c6.2,0.2,12.4,0.5,18.6,0.8c3.7,0.2,7.3,0.5,11,0.7c0,0.3,0,0.6,0,0.9c-65.3,18.6-130.5,37.2-196.1,55.8
	c-0.4-2.5-0.6-5.3-1.3-7.9c-2.1-7.6-4.6-15.1-6.7-22.6c-2.4-8.7-4.7-17.5-7-26.2c-1-3.9-2.7-7.7-2.9-11.7c-0.2-5-3.3-4.6-6.1-4
	c-6.7,1.5-13.3,3.6-20,5.3c-11.4,2.9-22.9,5.8-34.4,8.6c-12.8,3.1-25.6,6.1-38.3,9.3c-9,2.3-17.9,5.2-26.9,7.6
	c-9.5,2.5-19.2,4.4-28.8,6.8c-10.7,2.7-21.4,5.6-32.1,8.2c-12.7,3.1-25.5,6.1-39.3,9.4c13.7,44.1,27.2,87.7,41.2,132.7
	c-24.1-11.7-46.8-22.8-69.1-33.7c-5,7.3-10.3,14.2-14.7,21.6c-6.6,11.3-12.5,22.9-18.8,34.4c-13.6,24.8-27.4,49.4-40.8,74.3
	c-11.3,20.9-21.6,42.4-36.5,61.7c71,34.9,141.5,69.4,212.3,103.9c15.2-29.9,30.2-59.3,45.6-89.6c0.5,2.7,0.6,4.2,1.1,5.6
	c2.2,6.2,4.5,12.5,6.8,18.7c2.2,5.8,4.3,11.6,6.7,17.3c2.1,5.1,4.9,9.9,6.8,15c2.4,6.5,4.1,13.2,6.5,19.7c3,8,6.7,15.8,9.8,23.8
	c3.4,8.7,6.4,17.5,10,26.2c0.6,1.3,3.4,3,4.6,2.6c6-1.8,11.7-4.2,18-6.5c15.3,51.6,30.4,102.9,45.5,153.8
	c69.9-19.5,139.3-38.8,209.3-58.3c-15.5-56.5-30.9-112.8-46.3-168.9c-5.9,1.8-11.9,3.6-17.9,5.4c-2.5,0.7-4.5,0.2-5.3-2.7
	c-1-3.2-1.9-6.5-3.1-9.7c-2.9-8-6.1-16-8.9-24.1c-1.9-5.3-3.4-10.7-5.3-16c-1.3-3.7-3.3-7.1-4.6-10.8c-2.9-8-5.4-16.2-8.4-24.2
	c-2.9-7.8-6.5-15.3-9.3-23c-2.8-7.5-4.8-15.4-7.5-22.9c-4.3-11.5-9-23-13.8-34.9c65-19,129.3-37.7,193.6-56.5
	c-1.2-6.3-2.2-12.9-3.6-19.4c-1.8-8.1-3.8-16.1-6.1-24.1c-2-6.8-4.8-13.4-6.7-20.2c-3.6-12.8-6.6-25.7-10.2-38.4
	c-3.4-12.1-7.3-24.1-10.8-36.2c-3-10.6-5.8-21.3-8.7-31.9c-0.6-2.4-0.8-3.6,2.6-3.1c4.2,0.6,8.5,0.1,12.4,0.1
	c0.9-20.5,1.7-40.2,2.6-60c15.3,0,30.7,0,46,0c-0.2,13.6-0.3,27.3-0.6,41c-0.2,10.8-0.4,21.7-0.8,32.5c-0.6,17.5-1.5,35-2.1,52.5
	c-0.1,1.3,1.1,3.7,1.8,3.8c6.1,0.8,12.3,1.1,18.4,1.6c4.1,0.3,8.2,0.9,12.3,0.9c4,0,8.1-1.2,12.1-1c8.2,0.3,16.4,1.2,24.7,1.7
	c2.1,0.1,4.3-0.9,6.4-0.8c7.8,0.4,15.7,1.1,23.5,1.4c6.7,0.2,13.3-0.2,20,0c6.9,0.3,13.8,1.1,20.7,1.5c3.8,0.2,7.6-0.2,11.4-0.1
	c3.9,0.1,7.7,0.5,11.6,0.3c1.2-0.1,3.2-1.4,3.2-2.3c0.3-5,0.3-10,0.2-15c-0.1-4.8-0.8-9.6-0.8-14.3c0-3.5,1.3-7,1.3-10.5
	c0.1-7.9-0.3-15.7-0.3-23.6c-0.1-9.1-0.3-18.2,0.2-27.2c0.1-1.9-1.3-5.8,3.3-6.4c10.7-1.4,21.4-3.2,32.1-4.9
	c2.7-0.4,5.3-1.5,8.1-1.9c8.3-1.2,16.6-2.2,24.8-3.4c4.2-0.6,8.5-1.4,12.7-1.9c3.7-0.5,6.8-5,6.1-8.8C1467.5,11,1466.8,6,1466,1
	L1466,1z M1193.5,807.9c-5.2,1.5-8.9,2.5-12.6,3.7c-11.1,3.7-22.2,7.4-33.2,11.1c-1.8,0.6-4.2,0.6-5.4,1.7c-3.6,3.4-5.2,0.8-6-2
	c-2.3-7.9-4.3-15.9-6.2-23.9c-2.3-9.5-4.3-19-6.6-28.5c-1.6-6.6-3.7-13.1-5.4-19.7c-2.4-9.8-4.4-19.7-6.9-29.4
	c-2.2-8.9-4.8-17.7-7.1-26.6c-2-7.7-3.7-15.4-5.6-23.5c-7.1,1.8-13.9,3.4-20.6,5.3c-6.9,1.9-13.6,4.2-20.5,6
	c-11.5,3-23.1,5.7-34.7,8.7c-15.5,4-30.9,8.2-46.3,12.3c-8.5,2.3-17,4.6-25.4,6.9c-5.6,1.6-11,3.6-16.7,4.8
	c-5.2,1.2-10.7,1.3-15.8,2.5c-8.4,2-16.6,4.8-25,7c-3.7,1-5.3,2.4-4.2,6.5c2.6,9.2,5,18.5,7.5,27.7c2.3,8.4,4.9,16.8,7.1,25.3
	c2.5,9.6,4.5,19.3,7,28.9c1.7,6.6,4.2,13,6,19.7c3.2,11.4,6.1,22.8,9.1,34.2c2.2,8.3,4.3,16.6,6.7,25.8c3.4-1.1,6.7-2.2,10-3.2
	c5.7-1.7,11.4-3.6,17.1-5.1c7.8-2,15.6-4,23.5-5.7c1.9-0.4,5.4-0.3,5.8,0.5c2.9,7.5,5.5,15.1,7.8,22.7c1.4,4.7,2,9.6,3.5,14.2
	c4.5,13.7,9.4,27.3,13.9,41c2,6.1,2.9,12.6,5,18.7c3.2,9.7,7.3,19.2,10.5,28.9c2.5,7.6,4.2,15.5,6.4,24.3
	c68.1-19.7,135.8-39.3,203.7-59C1224.4,915.5,1209,861.7,1193.5,807.9L1193.5,807.9z M1365.7,478.5
	c-68.1,18.3-136.9,36.7-205.6,55.1c14.8,56,29.4,111.2,43.9,166.1c25.6-6.5,50.2-12.8,74.8-19c0.1,0.3,0.2,0.6,0.3,0.9
	c-33.9,23.3-67.9,46.5-102.2,70.1c31.6,45.6,63.2,91.2,94.8,136.9c57.3-40.2,113.8-80,171-120.1c-6.2-9.3-12.3-18.5-18.4-27.8
	c-3-4.5-6.1-9-9.1-13.5c-3.3-5.1-6.5-10.2-9.7-15.3c-4.8-7.4-9.5-14.9-14.4-22.2c-3.4-5-7.2-9.8-10.4-14.9
	c-4-6.3-7.6-12.8-11.1-18.7c5.3-1.8,10-3.5,14.8-5c5.5-1.6,11.2-2.5,16.5-4.5c7.9-2.9,7.8-3.2,6.3-11.6c-0.1-0.5-0.1-1-0.2-1.5
	c-3.2-11.6-6.6-23.1-9.7-34.8c-1.3-5-1.9-10.2-3.3-15.2c-4.1-15.4-8.7-30.6-12.7-46c-3.4-13.3-6.1-26.8-9.4-40.1
	C1370.1,491.3,1367.9,485.5,1365.7,478.5L1365.7,478.5z M1146.7,487.8c6.1-2,11.3-3.6,16.5-5.5c12.9-4.7,25.8-9.6,38.7-14.2
	c6.9-2.5,14-4.5,20.9-7c9.3-3.3,18.6-7,27.9-10.3c12.3-4.4,24.6-8.5,37-12.8c5.1-1.7,10.2-3.4,15.3-5c3.3-1,5-4.5,3.8-7.7
	c-3.6-9.4-7.3-18.8-10.6-28.4c-4.5-13-8.6-26.2-12.9-39.3c-0.2-0.5-0.1-1-0.3-1.4c-2.1-5.6-4.1-11.2-6.2-16.8
	c-2.2-5.9-4.7-11.7-6.6-17.7c-2.6-7.9-4.8-15.9-7.2-24c-55.4,19.2-110.1,38.2-165,57.3C1114.4,399.8,1130.5,443.8,1146.7,487.8
	L1146.7,487.8z"/>
<path class="st0" d="M1424.4,494.1c3.8,57.9,5.6,86.9,5.4,133.4c-0.3,78.6,46.7,81,40.2,147.7c-5.8,59.2-46.8,96.9-55.8,104.8
	c-32.4,28.4-92.3,57.8-135.5,36.1c-16.9-8.5-28-26.7-50.4-63.3c-20.8-34-23.5-50.7-49-85.1c-18.5-25-19.9-19.9-25.9-32
	c-18.1-36.3,4.1-62.1,6.8-125.9c2.4-57.3-14.4-61.4-3.4-84.4c17.9-37.6,71.2-44.4,155.2-55.1c37.1-4.7,96.1-11.7,109.6,13.6
	C1424,488.2,1424.3,492.3,1424.4,494.1z"/>
</svg>
