<?xml version="1.0" encoding="utf-8"?>
<!-- Generator: Adobe Illustrator 26.5.1, SVG Export Plug-In . SVG Version: 6.00 Build 0)  -->
<svg version="1.1" id="Layer_1" xmlns="http://www.w3.org/2000/svg" xmlns:xlink="http://www.w3.org/1999/xlink" x="0px" y="0px"
	 viewBox="0 0 1983 2999.2" style="enable-background:new 0 0 1983 2999.2;" xml:space="preserve">
<style type="text/css">
	.st0{fill:#FFFFFF;}
</style>
<path class="st0" d="M507.4,1133.6c-6,8.2-11.4,15.6-19.1,26.2c-7.8,0.6-21.3,0.9-26-13.2c-1.6-4.7,7.4-12.9,13-17.7
	c0.9-5.3,0.1-13.7,3-15.3c9.8-5.6,18.8-21.3,33.3-3.9c0.9-1.1,1.7-2.2,2.6-3.4c-1.6-4.8-1.9-10.9-5.1-14.2
	c-8.6-8.6-18.6-15.8-27.5-24.1c-3-2.8-4.4-7.4-6.5-11.2c5.3-1.2,12.8-5.2,15.5-3.1c11,8.5,21.1,18.3,30.2,28.8
	c5.1,5.9,8.3,7.2,15.8,4.2c7.2-2.9,17.3-5.6,23.3-2.7c5,2.4,6,13.2,7.7,17.3c-14.9,7.6-26.8,13.7-38.6,19.8c0.2,1.3,0.3,2.5,0.5,3.8
	c11.7,1.9,24.4,1.4,34.7,6.2c11.8,5.6,24,14,31.3,24.6c6.6,9.6-11.4,24.3-27.3,23c-6.4-18.4-7.1-16.3-26.1-10.4
	c-10.6,3.3-26.7-0.8-36.2-7.4c-7.7-5.4,0.8-11.4,10.1-10.9C513.3,1144.9,510.9,1140.3,507.4,1133.6L507.4,1133.6z"/>
<path class="st0" d="M759.6,1450.8c7.1-12.1,12-20.7,16.7-28.6v-20.3c-1.6-1.7-2.2-3-3.1-3.2c-9.2-2.1-17.7-5.9-14.9-17
	c1.1-4.3,10.2-10.8,12.1-9.8c7.5,4.1,17.7,9.9,19.2,16.8c2.8,12.6,11.5,14.6,20.2,19c5.7,2.8,10.3,7.6,15.5,11.5
	c-0.8,1.4-1.7,2.7-2.5,4.1c-7,0.4-14,0.9-21.4,1.3c5.8,24-16.7,15.8-25.5,24.8c3,3.9,6.8,8.8,11.5,14.9c6.2-10.8,15.3-20.8,25.9-9.6
	c3.8,4-2.7,17.7-4.4,27c17.4-2.5,31.7,8,41,28.7c-4.8,1.6-5.2,16.9-15.1,3.3c-0.5-0.7-2.2-0.9-3.1-0.6
	c-20.2,5.8-28.3-13.9-42.8-20.2c-2.4-1-5.2-3.7-6.9-3.1c-16.4,5.7-25.7-8.3-37.6-14.1c-1.9-0.9,0.6-11,1.3-18.9
	c-5-6.9-12.7-17.5-20.7-28.6C744.7,1417.3,756,1424.7,759.6,1450.8L759.6,1450.8z"/>
<path class="st0" d="M970.5,1520.2c12-0.5,17.9-0.8,23.7-1.1c-4.2-4.6-10.5-8.6-11.7-13.8c-0.9-4.2,5.5-14.3,7-13.9
	c8.2,1.6,19.5,3.7,22.7,9.6c4.2,7.5,4.4,16.5,14.2,20.8c1.3,0.6-0.4,10.9-2.6,15.9c-1.5,3.4-6.2,5.4-9.3,7.9
	c10.9,19.1,9.6,22.7-14.1,38.3c13.5,9.1,13.5,21.8,7,34.2c-2.7,5.2-10.1,8-15.3,11.9c-3.5-5.9-7.3-11.5-10.2-17.7
	c-1.1-2.4,1-6.5-0.3-8.5c-8.2-12.1-0.5-17.6,8.6-23c-2.3-3.7-4-8.4-7.3-11.3c-2.6-2.3-8.8-4.5-10.6-3.1c-12.6,9.6-22.8,7.5-28.1-6.9
	c-4.2-11.3-8.3-22.7-12.3-33.9c15.2-8.2,27.4-2.5,30.2,13c2.4,13.2,10.1,16.4,21.9,9.4c4.2-2.5,8.8-4.2,15.2-7.1
	c-5.7-2.7-11.4-4.8-16.3-8C979.1,1530.5,976.5,1526.6,970.5,1520.2L970.5,1520.2z"/>
<path class="st0" d="M1314,1492.7c2.2,2.3,4.3,6.3,6.8,6.6c13.4,1.6,17.8,11.2,14.8,21.2c-1,3.2-15.5,3-23.9,3.3
	c-9.3,0.3-21.1-4.1-27.1,0.2c-5.7,4-5.5,16.6-8.3,27.2h-13c-1,9.6-0.4,20.7-4,30.4c-1.6,4.4-11.4,5.8-19.2,9.4
	c-1-7.6-1.6-12.3-2.1-16.4c-9.8,3.6-20.5,5.9-29.5,11.2c-18.2,10.8-26.3,7.8-32.2-14.2c8.5-1.3,16.9-2.6,22.7-3.4
	c-1.5-6.7-6-15.8-3.6-18.2c8.8-9.1,20.2-1.7,22.3,5.3c4.6,15.3,16.5,0.7,21.9,7.8c2.3-6,4-12.2,6.9-17.9c6-11.6,11.4-24,19.7-33.8
	c2.7-3.2,13.6,0.4,20.9,0.8c2.9-21.8,8.5-26.2,27.3-19L1314,1492.7L1314,1492.7z"/>
<path class="st0" d="M793.5,1324.8c0.8-4.3,1.8-9.4,3.1-15.9c-13.8,2.8-26.8,6.1-40.1,7.6c-3.5,0.4-9.4-3.8-11-7.4
	c-1.7-3.8-1-10,1.1-13.9c6.6-12.4,22.2-14.7,35.5-8c9.8,4.9,20.8,7.4,26.8,9.4c9.5-7,16.5-13,24.5-17.5c1.6-0.9,7.7,3.2,9.2,6.3
	c1,1.9-2,7.1-4.5,9.2c-6.5,5.4-13.7,9.8-20.6,14.7c1.6,2,3.3,4,4.9,6.1c4.9-1.2,9.9-3.7,14.6-3.2c5.4,0.5,12.4,2.3,15.2,6.2
	c2.1,2.8-0.4,10.3-2.8,14.7c-5.9,10.9-12.6,21.4-19.8,31.4c-2.7,3.8-8.9,9.2-11.5,8.2c-5.5-2-12-6.9-13.8-12
	c-2.1-5.9-3-12.2,3.3-20.3C817,1328.7,798.4,1331.5,793.5,1324.8L793.5,1324.8z"/>
<path class="st0" d="M894.5,2453.8c-5.7,7-10.7,14.6-17.2,20.6c-2.4,2.2-8.2,0.7-12.5,0.8c0.5-4.3,0.9-8.5,1.5-14.3
	c-6.1-2.4-13.9-5.4-21.8-8.4c-11.5-4.5-10.8-5.5-3.5-15.1c4.7-6.2,6.1-15.2,8.1-23.2c4-16.6,11.7-15.8,23.6-3.2
	c-2.5-16.5-7.2-34.5,13.2-36.7c9.9-1.1,21,8.1,31.5,12.7c-0.5,1.9-1,3.8-1.6,5.7c-7.3,3.5-14.6,6.9-22.7,10.8
	c2.3,4.8,5.2,11,8.1,17.2c-1.2-0.1-2.4-0.2-3.6-0.3c-1.1,11.2-2.2,22.5-3.3,33.8L894.5,2453.8L894.5,2453.8z"/>
<path class="st0" d="M620.6,1232.2c23.1,1,28.8,6.3,26,24.2c-21.2-12.3-32.2,5.5-45.4,15c-20.3,1-17.6-15-21.3-27.5
	c7.3-2.6,14.6-5.2,20.8-7.4c-6-5.8-11.8-11.2-14.3-13.6c-8.8,4.2-17.6,8.4-26.4,12.6c-2-1.9-3.9-3.8-5.9-5.7
	c4.8-12,8.5-24.8,15.3-35.6c1.6-2.6,14.6-0.5,20.7,2.6C604.4,1204.1,619.3,1212,620.6,1232.2L620.6,1232.2z"/>
<path class="st0" d="M822.5,2535.5c5.5,2.6,9.2,4.4,13.4,6.4c1.1-1.5,1.6-2.9,2.5-3.4c6.1-3.5,12.3-6.9,18.5-10.3
	c2.2,5.9,8.1,14.4,6.1,17.4c-9.1,13.4-20.4,25.2-30.9,37.6c-0.7-1.8-1.5-3.5-2.2-5.3c-6.9-4.6-13.5-9.7-20.8-13.6
	c-8.4-4.5-8.8-8-1.6-14.9c1.9-1.8,1.5-6.5,1.4-9.8c-0.4-14.5-2.7-29.2-0.7-43.4c0.6-4.2,12.9-8.6,20.1-9.3
	c4.7-0.5,12.8,4.7,14.2,9.1c1.7,5.4-0.6,13.2-3.6,18.7C834.9,2522,828.5,2528,822.5,2535.5L822.5,2535.5z"/>
<path class="st0" d="M1117.1,1649c7.5-1.3,19.4-4.8,20-3.3c3.4,7.8,5.3,16.9,5,25.5c-0.1,3.3-9,9.9-11,8.9
	c-6.7-3.2-12.1-9.2-19.1-15c-4.2,0.7-12.1,1.9-23.9,3.8c3.2-12.4,5.5-21.4,8.5-33.2c-2.4-1.6-7.7-7.6-13.4-8.2
	c-11.6-1.1-12.5,7.6-13.2,17.4c-0.4,5.7-5.7,11.7-10.3,15.9c-1.6,1.5-10.1-0.7-11.2-3.1c-2.2-4.9-3.6-12-1.6-16.6
	c3.5-8.1,10.9-14.5,14.6-22.5c4.3-9.3,10.5-11.4,19.5-9.9c2.3,0.4,4.8,0.1,7.1,0.1c6.9,0,15.4-2.4,20,0.8c3.6,2.5,2.5,12,3.4,18.4
	c0.6,3.8,0.5,7.9,1.6,11.6C1114.4,1643.9,1116.7,1648,1117.1,1649L1117.1,1649z"/>
<path class="st0" d="M945.8,2327.1c-4.4-1.7-11.7-3.7-18-7.4c-4.7-2.7-8-7.6-11.9-11.6c5.9-4.7,11.3-12.7,17.7-13.6
	c19.8-2.6,33.4,12,35.1,33.2c1.1,13.3,7.6,24.3,22.2,24.7c13.3,0.4,18.8,8,24,18.1c-5.1,5.4-8.9,12.9-14.6,14.9
	c-12.4,4.3-22.1-2.6-24.5-14.6c-3-14.7-10.7-15.8-26.1-10.3C948.4,2349.4,947.2,2339.2,945.8,2327.1L945.8,2327.1z"/>
<path class="st0" d="M1008.1,1651.7c-11.3,4.3-22.6,8.5-33.3,12.6c-3.1-5.1-5.7-9.5-8.3-13.9c-1.8,0.8-3.7,1.6-5.5,2.4
	c1.6,5.8,4.2,11.5,4.6,17.3c0.6,8.6,1.4,18-1.4,25.8c-2.1,5.9-10.5,11.1-16.2,2.2c-3-4.7-4.3-11.8-3.3-17.3c0.9-4.7,6.2-8.6,9-12.2
	c-2.3-0.8-7.7-1.4-11.5-4.2c-5-3.7-11.3-8.6-12.3-13.9c-0.6-3.2,7.5-8.1,11.6-12.4c2.3-2.4,4-5.4,6.5-7.6
	c4.9-4.3,9.7-10.2,15.3-11.4c3.3-0.7,8,7,12.4,10.3c3.3,2.5,7.2,4.2,11,5.9c7.5,3.4,15,6.5,22.6,9.8
	C1008.9,1647.3,1008.5,1649.5,1008.1,1651.7L1008.1,1651.7z"/>
<path class="st0" d="M978,2208.4c-5,1.7-9.9,3.4-14.9,5.1c-4.1-3.1-8.6-6.4-13.7-10.2c2.5,9.1,7.3,17.1,5.5,23.2
	c-1.9,6.4-10.1,10.9-15.3,15.9c-10.1-10.8-18.5-19.6-25.4-26.9c-6.8-0.6-12-1.1-17.2-1.6c3-7.9,5.5-16,9.5-23.2
	c0.5-0.8,10,3.6,15.6,5.6c6.2-12.6,20.6-16.6,41.8-8.3c0.8-4.1,1.6-8.2,2.6-13.1c18.3,2.1,8.4,19.1,15.2,26.4
	C980.5,2203.6,979.2,2206,978,2208.4L978,2208.4z"/>
<path class="st0" d="M1302.7,2001.8c-3.9,7.9-7.7,15.9-13.7,28.1c-4.4-9.2-8.9-14.5-7.7-16.9c4.2-8,8.9-17.8,16.2-21.5
	c7.4-3.7,16-1.4,12.3-14.7c-1-3.7,5.9-13.2,10-13.8c5.4-0.7,12.2,4.2,17.3,8.1c3,2.3,3.9,7.4,6.1,11.8c-3.3,3.1-6.8,6.4-9.2,8.8
	c3.6,25.5,31.2,13.7,43.1,27.2c-10.2,14.3-17.7,15.2-29.9,5c-7-5.9-14.2-12.1-24.4-4.6c-2.9,2.2-10.1,3.7-11.1,2.3
	c-2.6-3.5-2.9-8.8-4.1-13.3C1306,2006.2,1304.3,2004,1302.7,2001.8L1302.7,2001.8z"/>
<path class="st0" d="M1281.4,1804.9c-17.9,6.8-30.6,18.4-47.8,7.6c-2.5-1.6-9.1,0.3-11.6,2.8c-2,2-1.5,7.5-0.7,11.2
	c2.1,10.3,6.8,20.5,6.7,30.7c-0.1,6.3-6.3,13.3-11.5,18.3c-1.4,1.3-13.1-4.2-13-5.9c0.7-6.8,3.7-13.6,6.8-20
	c1.2-2.6,4.8-4.1,8.5-7.2c-9.3-2.7-17.7-5.1-30.9-8.9c12.5-14.9,21.4-35.8,34.2-38.5C1238.8,1791.5,1262.4,1781.4,1281.4,1804.9
	L1281.4,1804.9z"/>
<path class="st0" d="M445.4,1031c-0.5-6.6-1-13-1.4-19.3c-0.6,0-1.2,0-1.9,0c-0.4,5.8-0.8,11.7-1.3,18.9c-3.2,0.6-6.7,1.3-8.2,1.6
	c2.1,5.5,4.4,11.4,7.5,19.5c-16.8-4.8-37.1,6.8-42.2-18.7c5.9-0.9,10.6-1.6,16.4-2.4c0-3.5,1.2-7.7-0.2-10.6c-3.6-7.5-3-12.2,5.7-15
	c2.2-0.7,4-3.9,5.4-6.3c8.9-15.4,24.9-16.2,35.6-2.3c2.9,3.8,8.5,5.5,12.1,9c3.1,3,7.4,7.3,7.1,10.7c-0.3,3.2-5.4,7.2-9.2,8.6
	C462.8,1027.5,454.4,1028.9,445.4,1031L445.4,1031z"/>
<path class="st0" d="M1064.5,1793.4c-0.3-7.8,7.1-15.9,16.4-19.2c4.9-1.8,12.6,4.6,20.4,7.8c-0.2,0.6,2.7-3.5,1.6-5.8
	c-3.8-8.6-4.7-15,7.1-16.1c11.1-1,21.2,1.6,19.4,15.2c-1.3,9.2-5,19.3-10.7,26.5c-12.5,15.8-19.4,14.7-29.6-1.2
	c-11.3,7.6-22.4,15.4-33.9,22.7c-2,1.3-6.7,1.2-8.1-0.2c-1.8-1.8-3.1-6.9-1.9-8.5C1050.2,1808,1056.3,1802.2,1064.5,1793.4
	L1064.5,1793.4z"/>
<path class="st0" d="M949.2,1485c3.5,2.7,7.8,4.8,10.5,8.1c3.5,4.3,7.9,9.6,8,14.5c0.1,3.7-6.9,11.2-9.2,10.7
	c-5.9-1.5-11.8-5.6-16.2-10.2c-5.5-5.9-8-16.5-14.4-19.5c-14.2-6.7-11.2-11.3-1.3-18.4c1.7-1.2,1.8-4.7,3-8.4
	c-5.9-1-11-1.9-15.8-2.7c-2.3-19.7,2.3-29.8,14.3-28c7.1,1.1,14,7.3,19.6,12.6c10,9.3,12.8,21.7,10.3,34.8
	C957.5,1481,952.3,1482.8,949.2,1485L949.2,1485z"/>
<path class="st0" d="M448.7,1249c4-8.8,8-17.7,13.3-29.5c-4.8-7-0.2-12.8,8.6-14.2c1.9-8.2,1.4-16.9,5.5-20.9
	c3.4-3.3,12.1-1,18.5-1.1c7.8-0.1,15.8-1.2,23.3,0.1c4.9,0.9,9.2,5.4,12.8,7.7c-7.5,18.6-38.3,6.5-35.8,34.1c-2.4,0.4-6,1.1-8.2,1.5
	c0.2,25.1-22.8,16.8-32.5,26.2C452.3,1251.6,450.5,1250.3,448.7,1249L448.7,1249z"/>
<path class="st0" d="M915,2053.3c3.9,11.4,9.7,22.4,10.8,33.9c0.5,5.9-6.5,13.5-11.9,18.3c-1.9,1.7-12.7-1.8-13.3-4.4
	c-1.6-6.2,0.5-13.3,1.1-20.8c-2.8-0.4-8.5-1.1-13.7-1.7c-1.7,22.5-26,17.8-35.6,30.9c-20.5-15.2,9.1-25.6,0.3-39.2
	c11.3-0.8,26.1,14.1,28.7-8.6C891.5,2059.1,902.5,2056.4,915,2053.3L915,2053.3z"/>
<path class="st0" d="M1028.8,1978.9c3.2-8.9,5.2-18.7,10.1-26.6c5.1-8.1,5.9-12.7-1.2-20.5c-3.5-3.9-0.6-13.7-0.6-18.9
	c5.6-4.3,9.4-8,13.9-10.4c4.9-2.5,12.2-6.6,15.4-4.8c7.2,4.2,18.7,8,13.6,20.9c-3.4,8.6-9.6,10.6-17.9,6.4c-0.9-0.5-2.8,0.8-3.4,0.9
	c6.3,7.3,12.5,14.5,21.3,24.6c-8.5,3.1-13.9,5.1-21.4,7.8c-1.8,4.2-3.2,13.6-8.7,18.4c-4.8,4.2-13.7,11.8-21.6,1.7L1028.8,1978.9
	L1028.8,1978.9z"/>
<path class="st0" d="M1000.8,2687.4c1,13.5,4.8,26.2-5.9,36.7c-9,8.8-16.9,9.4-27.2,0.7c-7.3-6.1-19.6-6.7-18.6-20.4
	c0.7-9.5,0.8-19.2,2.2-28.6c0.3-2.3,6.8-6.1,7.3-5.6c8.9,7.6,25.3-1,30.9,14.4C990.2,2686.4,996.3,2686.3,1000.8,2687.4
	L1000.8,2687.4z"/>
<path class="st0" d="M935.5,2039.3c5.7,7,11.2,13.8,16.7,20.6c7,3,18.9-1.3,22.1,13.6c0.4,1.9,4.7,3.1,7.2,4.4
	c6.3,3.3,12.7,6.4,19.1,9.7c-3.7,6.2-6,15.3-11.4,18c-6.1,3-16.1,2.3-22.4-0.8c-6.4-3.2-10.5-11.2-15.5-17.2
	c-4.5-5.4-7-10.8-16.4-12.3C918.6,2072.6,918.3,2055.4,935.5,2039.3L935.5,2039.3z"/>
<path class="st0" d="M1053.6,2494.1c-4.3,4.6-8.6,9.2-12.7,13.9c-1.4,1.6-2.3,3.8-3.8,5.3c-4.9,4.9-9.3,11.9-15.3,14
	c-7.2,2.5-16.5,2.4-18.1-10c-0.3-2.3-7.1-4.8-11-5.2c-7-0.7-14.2,0.6-21.3,0.1c-1-0.1-3.2-7-2.1-8.1c6.5-6.6,13.5-17.1,21-17.7
	c19.6-1.5,39.6,1.5,59.4,2.7C1051,2490.8,1052.3,2492.4,1053.6,2494.1L1053.6,2494.1z"/>
<path class="st0" d="M538.2,1024.7c-6.6-25.6,13.2-17.3,24.2-20.6v15.5c9.1-9.3,10-27.6,26.9-23.3c4.4,1.1,6.7,10.4,10.9,13.5
	c5.2,4.2,13.6,7.4,15.1,12.6c3,10.8-2.4,22.2-14.8,18.5c-15.9-4.8-36.9,4.7-48-15.8C551.5,1023.1,543.9,1024.7,538.2,1024.7
	L538.2,1024.7z"/>
<path class="st0" d="M501.8,907.9c-8,5.2-12.8,8.4-19.4,12.7c-2.8-6.2-5.5-11.6-7.8-17.2c-3.1-7.4,4.2-19-9.3-22.5
	c-0.8-0.2-1-6.4,0.1-9.1c3.4-7.7,7.6-15.1,11.4-22.4c-6.7-7.9-13.1-15.5-20.2-24c14.4-8.2,25.4-8.4,35.3,1.5c2.5,2.5,6,7.6,5.1,9.2
	c-9,15.3,10.1,37.2-11.1,46.2C491.8,891.9,496.5,899.5,501.8,907.9L501.8,907.9z"/>
<path class="st0" d="M894.5,2454c3.8-5.1,7.5-10.2,12.4-16.8c-4.6-14.6-1.1-21.1,13.1-21.8c14.7-0.7,14.5,11.4,16.7,19.6
	c1.6,6-4.8,17.5-2.4,19.3c7.3,5.4,17.2,7.1,26.1,10.3c3.9,1.4,7.8,3,12,4.6c-10.4,16.2-19.9,16.9-36.1,4.1c-2.5-2-5.9-6.1-7.6-5.5
	c-15.8,5.5-24.3-5.7-34.1-14C894.5,2453.8,894.5,2454,894.5,2454L894.5,2454z"/>
<path class="st0" d="M1212,1486.1c0.7-0.6,3.6-3.3,6.6-6c2.4,3.9,6.4,7.6,7,11.7c1.8,14.7-4.5,23.6-23.9,24.3
	c0.7-6.8,1.2-13,1.9-19.5c-21.1-13.4-37.5,11.2-58.4,12.4c-4.6-22.6-1.2-26.2,23-25.9c2.6,0,7-1.8,7.4-3.7c2.6-9.6,9-15.8,17.6-11.6
	C1200.9,1471.4,1206.2,1480.2,1212,1486.1L1212,1486.1z"/>
<path class="st0" d="M364.5,1042.3c8.9,3.1,16.9,6,29.1,10.3c-11.5,7.8-18.1,14.6-25.9,16.8c-5,1.4-14.5-2.5-17.3-7
	c-4.9-7.7-7.7-17.6-8.5-26.8c-0.5-6.4,3.8-13.3,6.6-22c-0.6-0.6-4.7-3.8-7.8-7.7c-2.9-3.7-4.8-8.1-7.1-12.2
	c5.7-0.5,12.6-3.3,16.9-1.1C363.8,999.3,370.4,1026.6,364.5,1042.3L364.5,1042.3z"/>
<path class="st0" d="M305.2,1089c-6,2.3-11.9,4.6-18.7,7.2c2.5,7.6,5,15.1,8.5,25.7c-12.7-4.6-21.8-7.8-34.3-12.3
	c-0.1-0.2-1.7-4.5-2.4-6.4c6.4-9.6,10.8-18.8,17.6-25.7c8.7-9,18.3-5,27.9,0.9c5.2,3.2,12,4.6,18.2,5.2c12.2,1.3,12.4,9.7,9.9,17.7
	c-1.1,3.6-7.6,7.8-11.6,7.7c-10-0.2-15.8-6-14.1-17C306.3,1091.1,305.6,1090,305.2,1089L305.2,1089z"/>
<path class="st0" d="M732.9,1247.8c7-7.4,12.5-18.6,19.8-20c20.5-3.8,24.7,14.5,31.5,29.8c-2.5,2.8-5.4,5.9-8.8,9.5
	c-4.3-4.8-7.3-8.2-10.9-12.2c-3.2,4.1-5.8,7.3-9,11.5c-5-3.7-9.6-7-15.7-11.5c-1.2,6-2.1,10.9-3.9,20.4c-8.7-3.9-17.4-6.4-23.9-11.6
	c-2.7-2.2-0.5-10.3-0.5-15.8H732.9z"/>
<path class="st0" d="M1039.9,1488.3c8.6,0.8,12.5,0.5,15.7,1.8c3.1,1.2,6.6,3.8,7.8,6.6c0.8,2-1.5,6.1-3.5,8.2
	c-5.8,6-12.2,11.5-19.1,17.9c-5.2-3.5-11.9-5.4-4.5-15c2.3-3.1,3.6-14.5-9.4-13.4c-4.8,0.4-10.2-5.3-15.4-8.3
	c3.9-3.6,8-6.9,11.5-10.7c5.4-5.8,9.7-12.8,15.8-17.6c5.3-4.2,12.4-6,18.6-8.9c-0.3,9,0.6,18.3-1.5,26.9
	C1055,1479.7,1048.1,1482.1,1039.9,1488.3L1039.9,1488.3z"/>
<path class="st0" d="M1015.9,1445.6c-3.3-19.7,0.1-31.1,18.4-34.1c-3.8-0.5-7.6-1-12.1-1.5c-2.2-12.2-3.2-24.7,12.2-28.1
	c4.6-1,10.9,6.3,16.5,9.8c-0.8,1.6-1.6,3.3-2.4,4.9c4.2,0.4,10.3-0.7,12.3,1.6c2.7,3.2,4.8,11.1,2.9,13.5
	c-7.8,9.8-16.6,19.1-26.4,26.8C1032,1442.6,1023.9,1443.1,1015.9,1445.6L1015.9,1445.6z"/>
<path class="st0" d="M1024.4,1697.9c9.3,5.2,18.6,7.5,22.2,13.3c3.4,5.4,15.7,15.8-1.9,21.5c-4.1-4.4-8.9-9.6-14.2-15.3
	c-4.5,3.7-8.1,6.6-11,8.9c-7.8-5.6-18.2-9.4-21.6-16.5c-4.4-9.4-4.1-21.4-3.9-32.3c0-2.2,10.4-7.3,13.1-5.8
	c6.7,3.7,12.6,9.8,16.9,16.3C1026.2,1691.3,1024.4,1697.3,1024.4,1697.9L1024.4,1697.9z"/>
<path class="st0" d="M451.1,1079.9c-4.6,0.9-8.3,1.5-11.9,2.2c4.6,21,1.3,29.6-12.4,27.8c-7.7-1-15.3-8.6-21.4-14.8
	c-6.4-6.5-2-12.9,3.3-18.7c5.2-5.6,8.8-13.1,14.7-17.6c4.1-3.2,11.2-4.6,16.3-3.5c4.3,0.9,8.8,5.8,11,10.1
	C452.5,1068.9,451.1,1074,451.1,1079.9L451.1,1079.9z"/>
<path class="st0" d="M652.8,1506c-0.5-7.2-0.8-12.4-1.4-20.4c-2.9,4.1-4,6.5-5.8,8c-3.7,3.1-8.8,8.7-11.4,7.8
	c-4.7-1.7-10-6.8-11.3-11.5c-4.6-16.6,9.5-25.8,17.8-36.4c5.5-7,12.4-1.6,10.9,5.6c-3.3,16.7,1,22.5,18.2,18.1
	c1.9-0.5,8.7,7.5,8.1,10.4c-1.4,6.5-5.1,13.4-9.8,18C665.6,1508,658.8,1506,652.8,1506L652.8,1506z"/>
<path class="st0" d="M527.5,1368.7c1.4,6.4,2.4,11,4.4,20.6c-9.3-2.3-19.9-2.2-21.4-5.8c-2.8-6.8-0.7-15.8,0.1-23.7
	c0.5-4.6,1.4-9.9,4.1-13.1c3.1-3.7,8.6-5.4,13-8.1c5.9,10.2,11.2,3.7,18.1,0.7c4.1-1.8,13,0.7,15.6,4.2c2.3,3.3,1,12.1-2.1,15.9
	C552,1368.6,542.3,1375.2,527.5,1368.7L527.5,1368.7z"/>
<path class="st0" d="M680.2,1303.8c-7.1,2.3-14.2,4.6-20.9,6.8c-5.5-2.9-12.1-4.9-16.6-9.2c-7.3-7-9.1-14.2-0.5-23.6
	c15.4-16.8,32.7-21.1,42.3-7.2c2.2,3.2-0.5,9.8-1.2,14.8c-0.2,1.4-1.9,2.5-2.1,3.9c-0.6,4.9-0.8,9.9-1.2,14.8
	C679.9,1304.1,680.2,1303.8,680.2,1303.8L680.2,1303.8z"/>
<path class="st0" d="M882,1956c-4.5-9-7.9-15.7-11.8-23.5c4.8-5.1,9.8-10.3,14.7-15.6c1.3,1,2.6,2.1,3.9,3.1
	c0.2-2.6,0.2-5.2,0.5-7.7c0.6-4.5,1.4-8.9,2.2-13.3c4,2.6,7.8,5.5,11.9,7.8c3.5,2,7.8,3,11,5.4c6.7,5,18.1,10.6,18.2,16
	c0.1,13.8-17,13-22,10.5c-12.7-6.6-14.3,0.4-18.3,8.6C890.7,1950.5,886.3,1952.4,882,1956L882,1956z"/>
<path class="st0" d="M946.7,2272.8c10.5-2.7,21.1-5.3,32.9-8.3c2.9,7.2,5.8,14.8,8.8,22.3c1.3-0.3,2.5-0.6,3.8-0.9
	c1.4-4.9,2.9-9.8,5.8-19.9c4.7,7.3,9.4,11.2,9.4,15.3c0.1,7.6,0.2,18.3-4.4,22.1c-10.2,8.5-21.8,10.1-33.2-2.4
	c-8.1-8.9-19.9-14.5-30-21.5C942.2,2277.3,944.4,2275.1,946.7,2272.8L946.7,2272.8z"/>
<path class="st0" d="M631.8,887.1c-9.2,3.7-18.4,7.4-27.7,11.1c5.4,10.9,4.8,21.6-6.5,27.3c-5.3,2.7-15.4,2.4-19.6-1.1
	c-5.6-4.7-7.7-13.7-14.1-18.3c-3.7-13.3,10.9-6.2,16.3-5.3c12.2,2.2,13-4.2,16.6-12.2c3.1-7,9.3-15.8,15.6-17.2
	c6.2-1.4,14.3,5.5,21.6,8.8C633.2,882.5,632.5,884.8,631.8,887.1L631.8,887.1z"/>
<path class="st0" d="M1336.1,1713.4c8.7,10.4,10,21.6,3.9,33.6c-4.9-21.3-35.8-15.8-32.7-42c-6.5,0.9-12.1,1.7-21.5,3.1
	c2.8-8.3,3.6-17.7,6.8-18.6c6.6-1.9,14.5,0.6,21.8,1.6c5.6,0.8,11.4,1.2,16.7,3.2c4.4,1.6,9.4,4.4,11.6,8.2
	C1343.8,1704,1338.7,1709.3,1336.1,1713.4L1336.1,1713.4z"/>
<path class="st0" d="M1371,1812.6c9.6-6.7,17.9-12.4,27.5-19.1c21.2,7.5,17.3,29.7,24.1,49.4c-12.4-1.7-23.4-3.6-34.6-4.6
	C1370.7,1836.9,1374.9,1821.9,1371,1812.6z"/>
<path class="st0" d="M879,2350.8c-2.3,8.6-2.2,18.1-7,22.7c-4,3.9-16.2,5.2-20,2c-11.9-10-2.3-40.4,13.1-42.3
	c13-1.6,26.5-0.3,39.6-0.3C906.2,2353.8,904.5,2354.9,879,2350.8L879,2350.8z"/>
<path class="st0" d="M650.1,1051.9c-9.2-8.5-18.8-13.2-19.3-18.8c-0.9-9.2,15.4-11.8,24.1-3.7c9,8.3,15.3,23,31.5,9.5
	c2.2-1.9,9.6,2.4,14.5,3.8c0.7,7.2,1.3,13.6,1.9,20C672,1068.7,648.8,1061.4,650.1,1051.9L650.1,1051.9z"/>
<path class="st0" d="M1693.8,1613.4c11.6-12.8,17.8-27.8,37.9-24c1.9,12.4,5.6,23.7,17.8,31.8c9.1,6.1,4.4,15.3-3.3,21.1
	c-7.6,5.8-14.3,2.1-16.1-5.5C1725.8,1618.8,1710.4,1618.1,1693.8,1613.4L1693.8,1613.4z"/>
<path class="st0" d="M661.8,1163.3c3.4,20.3,6.8,40.6,10.9,65c-11.1-3-21.8-3-27.2-8.3c-4.5-4.5-1.2-15.8-3.9-23.1
	c-7.6-20.7,3-28.8,20.6-33.1L661.8,1163.3L661.8,1163.3z"/>
<path class="st0" d="M994.4,2907.4c1.2,4.3,3,8.5,3.4,12.9c0.5,5.9,1.7,12.8-0.8,17.6c-4,7.7-10.3,14.4-16.5,20.6
	c-3.5,3.4-9.4,7.7-13,6.8c-3.8-1-7.8-7.4-8.6-12c-4.2-25.4,7.1-40.1,29.3-39.6C990.2,2911.5,992.3,2909.5,994.4,2907.4L994.4,2907.4
	z"/>
<path class="st0" d="M1021.3,1783.2c-3.1-5.1-7.2-9.8-9.1-15.3c-2.1-5.9-2.1-12.5-3.8-23.9c7.1,2.2,12.7,4.1,18.3,5.6
	c9.4,2.5,18.8,5.1,28.3,6.8c11.6,2.1,10.3,10.8,8.1,17.6c-2.3,7.2-7.6,9.2-16.6,6.4c-7.6-2.3-17,1.2-25.6,2.2L1021.3,1783.2
	L1021.3,1783.2z"/>
<path class="st0" d="M1131.7,1568.3c11.9,2,13.2,12.6,10.3,25.8c-15.1,3.5-23.8-0.1-29.4-16.1c-3-8.5-14.7-13.9-22.5-20.7
	c6.3-8.9,29.9-15.7,35.9-9.4C1129.9,1552,1129.6,1560,1131.7,1568.3L1131.7,1568.3z"/>
<path class="st0" d="M389.2,1247.9c2.6-8.7,3.5-17.3,7.5-23.9c5.1-8.3,14.1-13,19.4-22.5c7.2-13.1,24.6-8.9,32.2,7.2
	c-4.6,2.4-9,6-13.9,7.1c-8.4,1.9-11.5,5.3-13.5,14.6C418.1,1242.5,408.8,1251.1,389.2,1247.9L389.2,1247.9z"/>
<path class="st0" d="M999.1,1914.3c12.2,13.4,12.9,25.7,3.8,35.7c-4,4.4-14,3.3-24.2,5.2c-4.6,13.8-17.6,10.3-30.3,5.3
	c-2.9-1.1-4-6.5-6-10c3.3-1.3,6.6-3.7,10-3.8c15.4-0.7,29.4-2.7,36.1-19.8C990.2,1922.3,995.2,1918.8,999.1,1914.3L999.1,1914.3z"/>
<path class="st0" d="M833.8,2166.8c22.6,3.9,15.8-19.2,25.6-27.5c4.3-3.6,6.9-9.1,10.8-14.4c12.6,17.3,6.5,50.2-8.9,59.4
	C851.6,2190.1,840.2,2183,833.8,2166.8L833.8,2166.8z"/>
<path class="st0" d="M703.7,2272.5c11.6,10.1-2.5,20.9-6.3,22.1c-14.3,4.3-29.9,5.9-44.9,5.3c-4.6-0.2-8.8-10.8-13.1-16.6
	c5.5-1.3,11-3,16.7-3.9C671.6,2276.9,687.2,2274.8,703.7,2272.5z"/>
<path class="st0" d="M1391.9,1982.6c-15.5,6.4-25.1-3.2-32.2-12.5c-9.6-12.6,3-21.7,10.4-29.2c3.7-3.8,12.8-2.5,19.4-2.7
	c1.2,0,3.6,3.8,3.6,5.9C1393,1956.9,1392.4,1969.6,1391.9,1982.6L1391.9,1982.6z"/>
<path class="st0" d="M978,2208.4c1.3-2.4,2.5-4.7,3.8-7.1c8.9-1,18.8-4.7,23,7.7c1.5,4.5,4.6,11.4,2.7,13.5c-2.8,3.2-9.3,3.2-15.5,5
	c4.5,13.7,0.9,25.8-14.6,34.2c-4-7.8-7.7-14.8-11.6-22.2C973.6,2230.7,981.4,2221.7,978,2208.4L978,2208.4z"/>
<path class="st0" d="M891.8,2326.9c-15.3-0.3-19.5-8.6-15-18.8c3.1-7.1,3.4-15.5,6.3-22.8c2.4-6,6.1-12.1,10.7-16.4
	c1.8-1.6,11,0.6,11.5,2.6c1.8,6.2,1.5,13.1,1.2,19.8c-0.2,4.4-1.3,8.7-2.4,13C901.6,2313.9,902.4,2326.4,891.8,2326.9L891.8,2326.9z
	"/>
<path class="st0" d="M1009.3,2128.2c8.2,3.5,13.6,5.9,19.1,8.3c0.1,2.1,0.2,4.2,0.2,6.3c-6.9,2.1-14.1,6.4-20.6,5.5
	c-6.1-0.9-13-6.1-16.7-11.4c-4.8-7,9-31.3,18.1-33.9c4.6-1.3,9.5-3.5,13.8-2.8c3,0.5,7.1,5.1,7.4,8.3c0.5,4.1-1.1,9.9-4,12.4
	C1022.6,2124.3,1016.5,2125.3,1009.3,2128.2L1009.3,2128.2z"/>
<path class="st0" d="M353.9,1159.1c5.7-8.5,13.7-11.7,20.5-3.7c2.9,3.4,1.3,12.9-1.4,17.9c-2.9,5.4-9.5,8.8-14.5,13.1
	c-3.2-4.8-5.6-10.4-9.7-14.2c-7.1-6.7-15.6-11.9-22.7-18.7c-2.9-2.8-3.8-7.7-5.7-11.6c5.3-0.9,12.5-4.3,15.6-2.1
	C343.1,1144.7,348.1,1152.5,353.9,1159.1L353.9,1159.1z"/>
<path class="st0" d="M1245.3,754.2c9.7,6.8,17.8,12.5,27.2,19.1c5.8-5.7,12.5-17.5,25.4-8.4c3,2.1,5.6,6.5,5.8,10
	c0.1,1.9-4.8,4.8-8,6.1c-6.9,2.9-14.2,5.1-23.6,8.4c-1.1-1.6-3.5-5.3-6.4-9.6c-0.7,12.9-8.5,11.5-16.5,7.8
	C1234.8,781,1238.8,770.1,1245.3,754.2L1245.3,754.2z"/>
<path class="st0" d="M886.3,2573.3c9,19.5,7.3,23.6-13.6,33.3c-12.6-18.7-12.2-21.4,5.6-34.1c-4-9.9-11-20.6,2.5-28
	c3.8-2.1,12.8-1.1,15.4,1.9C907.6,2559.9,895.4,2566.6,886.3,2573.3L886.3,2573.3z"/>
<path class="st0" d="M873.7,1229.4c-6.6-0.5-13.6,0.1-19.9-1.7c-5-1.4-9.2-5.8-13.7-8.8c3.1-4.2,6.3-8.3,9.4-12.5
	c-1,0.1-2,0.3-3,0.4c1.1-7.6,0.4-16.1,3.8-22.5c2.2-4.1,10.4-5.1,15.8-7.5c2.2,5.4,7.7,12.3,6.1,16
	C866.7,1205.5,875.3,1215.9,873.7,1229.4L873.7,1229.4z"/>
<path class="st0" d="M850.5,2262.6c-3.8,13.2-6.1,24.9-10.7,35.7c-1.7,3.9-8.6,8.1-13,8c-13.2-0.2-16.2-10.3-16.4-21.4
	C810.3,2270.1,825.1,2260.4,850.5,2262.6z"/>
<path class="st0" d="M1274.1,1669.8c-2.7-4.5-5.1-8.8-7.7-13c-5.7-9.2,0-28,10.4-30.9c4.5-1.2,12.6-0.2,14.9,2.9
	c6.6,8.8,11,19.2,17.1,30.5C1296.3,1663.1,1284.7,1666.6,1274.1,1669.8L1274.1,1669.8z"/>
<path class="st0" d="M699.8,2459.6c13.3-4.2,26.6-4.8,35.8,8.2c3.8,5.3,7.1,17.5,5,19.1c-5.7,4.4-15.6,8.2-21.9,6.2
	C704.9,2488.6,694.1,2479.3,699.8,2459.6L699.8,2459.6z"/>
<path class="st0" d="M854.4,2884.7c13.9-4.3,27.4-4.6,36.4,8.6c3.7,5.4,7,16.5,4.4,19.3c-4.3,4.7-14.7,8-20.6,6.1
	C860.2,2914,848.8,2904.7,854.4,2884.7L854.4,2884.7z"/>
<path class="st0" d="M754.2,1181.5c-18.7,5.1-34.5,9.4-51.2,14c-3.3-11.8-1.9-21,11.1-27.1c9.2-4.3,17.4-10.8,26.8-16.8
	C746.7,1164.9,751.1,1174.7,754.2,1181.5L754.2,1181.5z"/>
<path class="st0" d="M878.5,1554.1c-4.7,5.1-8.5,12.3-14.4,14.8c-10.5,4.6-22.1,6.8-33.4,8.8c-1.3,0.2-5.9-7.6-5.6-11.4
	c0.6-7.7,2-16.1,6-22.4c2.2-3.5,11.1-6.1,15.2-4.5c9,3.4,17,9.7,25.4,14.8L878.5,1554.1L878.5,1554.1z"/>
<path class="st0" d="M1203.1,1601.4c6.5-2.8,10.7-6.4,14.1-5.7c9.8,2.1,21.8,3.3,28.1,9.7c4.6,4.7,5,19.4,1,25.2
	c-6,8.6-18.2,11.3-26.3-0.1C1213.6,1621.9,1209,1611.9,1203.1,1601.4L1203.1,1601.4z"/>
<path class="st0" d="M778.5,2707.6c-5.7,9.9-7.8,18.4-11.7,19.4c-12.7,3.1-23.8,7.2-32.2,17.9c-1,1.3-5.2,0.2-7.8,0.2
	c-8.2-15.1,0.2-30,9.2-36.2C744.6,2703,760.4,2707.6,778.5,2707.6L778.5,2707.6z"/>
<path class="st0" d="M890,1986.5c4.2-6.8,8.5-13.6,15-24c4.2,8.6,8.2,16.6,12.3,24.9c2-0.7,3.6-1,5-1.8c5.9-3.4,12-13.4,18.3-3.6
	c2.8,4.3,0.9,15.5-3,19.2c-4.5,4.2-15.1,6.7-20.3,4.3c-6.7-3.2-11.2-9.3-19-3.1c-2.6-5.4-5.2-10.9-7.8-16.4L890,1986.5L890,1986.5z"
	/>
<path class="st0" d="M938.5,2167.4c-3.4,0-7.6,1.3-10.1-0.3c-5.4-3.4-9.9-8.2-14.7-12.5c5.1-4.2,2.8-16.2,15.3-13.1
	c3.7,0.9,8.7-4.7,13.3-6.6c4.7-1.9,11.2-5.7,14.3-3.9c4.1,2.3,9.2,11.4,7.8,13.6c-6.2,9.8-14.6,18.1-22.2,26.9
	C940.9,2170.2,939.7,2168.8,938.5,2167.4L938.5,2167.4z"/>
<path class="st0" d="M1110.5,611.1c-6.8-6.5-12.7-12.2-18.5-18c-1.4-1.5-1.8-4.8-3.2-5.2c-6.9-2-18.5-1.6-14.1-12.2
	c3.5-8.5,13.2-14.6,20.8-20.9c1.6-1.3,8.8,0.8,9.4,2.7c2,6,2.4,12.6,2.7,19c0.1,1.7-3,3.4-5.6,6.1
	C1111.8,589.2,1128.4,593.1,1110.5,611.1L1110.5,611.1z"/>
<path class="st0" d="M1182.5,1912.3c-12.7,7.8-23.8,14.7-36.9,22.8c-2.5-9.2-6.5-15.5-5-20.1c2.9-9.1,8.1-17.9,13.9-25.6
	c2.1-2.8,9.9-4.7,12.8-3.1c5.9,3.4,10.9,9,15,14.7C1184,1903.6,1182.5,1908.4,1182.5,1912.3L1182.5,1912.3z"/>
<path class="st0" d="M640.2,1555.8c-6.6,9.7-15.3,13.2-23.1,4.7c-4.4-4.7-4.7-13.2-6.8-20.1c6.1,0,12.3-0.3,18.4,0.1
	c5.1,0.3,11.5,3.6,14.8,1.5c8.2-5.2,15.6-9.6,22.5-0.1c2.7,3.7,4.4,11,2.5,14.6c-5.5,10.5-14.8,6.8-23.3,3.4
	C643.9,1559.5,642.8,1558,640.2,1555.8L640.2,1555.8z"/>
<path class="st0" d="M570.9,2320.1c-3.1-38.5,10-47.5,50.5-33.1c-3.4,5.6-5.7,14.1-9.6,15c-12.9,2.8-23.6,7.7-32.2,17.9
	C578.5,2321.2,574.4,2320,570.9,2320.1L570.9,2320.1z"/>
<path class="st0" d="M203,1071.1c-8.1-10.9-6.8-19.9,2.2-28.6c2-1.9,2.3-5.4,3.8-7.9c3.4-5.7,6.3-12,10.9-16.6
	c1.9-2,10.5-1.3,10.8-0.3c1.9,6.5,3.7,13.6,3,20.3C231.8,1055.7,218.1,1063.6,203,1071.1L203,1071.1z"/>
<path class="st0" d="M912.5,1388.4c-16.7,5.9-33.4,11.8-50.1,17.7c-5.1-15-0.1-30.6,9-34.3C884.4,1366.4,907.5,1374.6,912.5,1388.4
	L912.5,1388.4z"/>
<path class="st0" d="M1477,1852.3c-4.5-1.1-9.1-2.1-13.5-3.2c-5.1,4.5-9.9,9.4-15.3,13.3c-4.6,3.3-9.9,5.5-14.5,7.9
	c-10.5-13.4-5.8-22.9,3.3-30c8.8-6.7,18.7-16.3,30.8-9.8c6,3.2,8.9,12,13.3,18.2C1479.7,1850,1478.3,1851.2,1477,1852.3L1477,1852.3
	z"/>
<path class="st0" d="M411.8,1408.1c-17.9,10.7-27.4,6-27.9-15.2c0-0.9-1-1.8-1-2.7c0.4-6.6-0.2-13.6,2.2-19.4
	c0.8-1.9,11.4-2.7,13.9-0.3c5.5,5.1,9.6,12.3,12.4,19.4C413.2,1394.6,411.8,1400.6,411.8,1408.1L411.8,1408.1z"/>
<path class="st0" d="M1502.6,1718.8c-7.2-1-14.4-2-22.2-3.1c-3,14.3-13,16.9-30.8,12.4c4.1-8.8,6-21.7,11.7-23.6
	c10.5-3.6,20.7-18.6,34.6-5.5C1501.6,1704.6,1509.4,1708.3,1502.6,1718.8L1502.6,1718.8z"/>
<path class="st0" d="M904.4,1542.6c-9.8-5.7-21.1-10.1-28.8-17.8c-2.9-2.9,0.9-14.6,4.3-20.9c2.1-3.9,9.3-7.5,13.8-7.1
	c7.9,0.6,13.1,4,10.1,15.4c-1.8,7,4.5,16.2,7.1,24.4L904.4,1542.6L904.4,1542.6z"/>
<path class="st0" d="M750.4,1657.3c3.3,1.8,6.5,3.7,12.2,6.9c-8.4,4.9-15.2,11.4-22.7,12.2c-4.2,0.5-13.3-8.4-13.5-13.2
	c-0.3-10.1,2.8-20.8,6.9-30.2c1.4-3.1,10.6-4.2,15.9-3.5c2.3,0.3,4.7,7.8,4.8,12.1C754.2,1646.4,751.9,1651.4,750.4,1657.3
	L750.4,1657.3z"/>
<path class="st0" d="M460.9,1275.3c-0.2,5.2,1.5,11.7-0.9,15.3c-6.3,9.3-14.2,17.6-21.9,25.8c-3.6,3.9-8.2,7-15.2,12.8
	c-2.4-14.9-4-24.8-5.9-37.2c20.9,6.7,24.1-24.2,44.4-16.3L460.9,1275.3z"/>
<path class="st0" d="M1116.8,2286.2c-3.6,6.6-5.7,15-11.1,19.4c-5.5,4.6-14,6.1-21.4,7.4c-1.7,0.3-7.2-7-6.4-8.6
	c4.9-10.1,9.7-20.9,17.2-28.9c9.9-10.5,22.2-3.4,28,14.9C1121,2289.1,1118.9,2287.6,1116.8,2286.2L1116.8,2286.2z"/>
<path class="st0" d="M1856.3,1610c-14.8-5.9-25.2-9.9-35.4-14.2c-1.1-0.5-2.5-3.6-2.2-3.9c6.9-6.4,13.6-13.2,21.3-18.4
	c2-1.4,7.6,2,11.2,3.7c2.5,1.2,4.8,3,6.8,4.9c4.4,4.1,12.8,10.8,12.1,12.2C1866.5,1600.8,1860.3,1605.8,1856.3,1610L1856.3,1610z"/>
<path class="st0" d="M276.7,970.2c-2.9,20.2-23.2,13.2-33.2,22.5c-6.5-22.7-1.5-28.5,21.1-27.3c2.8,0.2,5.6-3.3,8.7-4.2
	c7.5-2,15.4-5.3,22.7-4.5c4.4,0.5,8,7.6,12,11.8c-0.9,1.4-1.8,2.8-2.6,4.1C296.1,971.8,286.6,971,276.7,970.2L276.7,970.2z"/>
<path class="st0" d="M1242.6,1094.3c3.6,6.4,4.9,8.2,5.6,10.1c0.8,1.9,1.1,4,1.9,7.2c3.1-2.1,5.1-4.6,7.3-4.8
	c4.1-0.4,8.4,0.6,12.6,1c-1.3,4.1-1.3,10.3-4.1,12c-9.9,6.1-20.6,11.3-31.5,15.4c-3.1,1.2-9.2-1.7-11.9-4.6
	c-2.1-2.2-2.8-8.6-1.1-11.1C1227.3,1111.4,1234.4,1104.1,1242.6,1094.3L1242.6,1094.3z"/>
<path class="st0" d="M1546,1949.5c-15.4-4.2-31-8-46.2-13.1c-1.8-0.6-3.4-9.3-1.6-11.9c5.5-8.1,28.9-10.1,41.3-1.7
	c5.9,4,7.6,14.3,11.1,21.7C1549.1,1946.2,1547.5,1947.8,1546,1949.5L1546,1949.5z"/>
<path class="st0" d="M1262.8,2112c-34.5,0.8-53.1-2.1-55.8-8.8c8.7-6.4,16.3-13.5,25.3-18.1c4.2-2.1,13.1-1.3,16,1.8
	C1254,2092.9,1257,2101.4,1262.8,2112z"/>
<path class="st0" d="M400.9,1099.5c-12.8,17.4-8.8,43.7-37.6,40.4c-1.3-5.7-5.1-12.3-3.4-16.6c4-9.9,9.2-20.4,17-27.1
	C380.7,1092.9,391.4,1097.9,400.9,1099.5L400.9,1099.5z"/>
<path class="st0" d="M1191.4,1437.6c-17.5-3.2-17.9-3.6-17.3-15c18.9-10.3,30.4,5.7,43.3,13.2c9.7,5.6-0.9,24.1-18.9,30.7
	C1196.3,1457.4,1194.1,1448.6,1191.4,1437.6L1191.4,1437.6z"/>
<path class="st0" d="M990.4,1290.7c8.7,1.6,17.4,3.7,26.2,4.5c3.3,0.3,6.8-2.8,10.3-3.9c4.7-1.5,9.4-2.6,14.1-3.9
	c0.4,8.2,2.2,16.8,0.4,24.4c-0.8,3.5-12.4,8.2-13.3,7.3c-9.3-10.6-22.8-9.7-34.2-14.2c-3.1-1.2-4.8-6.3-7.1-9.6
	C988.1,1293.8,989.2,1292.2,990.4,1290.7L990.4,1290.7z"/>
<path class="st0" d="M461.3,906.4c5.5,11,4.1,19.6-5.5,26.4c-1.3,0.9-1.3,4.1-1.3,6.2c-0.1,22.7-2.1,24.5-24.5,22.3
	C426.7,941.3,437.2,922.6,461.3,906.4L461.3,906.4z"/>
<path class="st0" d="M914.1,1250.4c-7.4,6.2-12.1,12.8-18.3,14.7c-9,2.9-19.1,3.2-28.7,2.8c-2.2-0.1-6.4-8-5.7-11.4
	c1.9-8.2,31.8-23.2,40.1-20.1C905.5,1237.9,907.9,1243.3,914.1,1250.4L914.1,1250.4z"/>
<path class="st0" d="M918.8,1582.9c1.8,12.6-5.6,23-22,26.4c-2.9,0.6-7.8,0.1-9.2-1.8c-5.6-7.8,3.9-36.7,12.8-40.9
	C909,1562.3,919.5,1569.3,918.8,1582.9L918.8,1582.9z"/>
<path class="st0" d="M1043.3,2225.9c0,11.3,1.3,22.9-0.8,33.8c-0.7,3.5-11,8.3-15.7,7.2c-7.2-1.7-13.4-7.9-20-12.2
	c3-4.2,5.5-9,9.1-12.6c6.6-6.5,13.9-12.3,20.9-18.4C1038.9,2224.4,1041.1,2225.2,1043.3,2225.9z"/>
<path class="st0" d="M1136.6,1825.8c-2.2,0-4.8,0.8-6.4-0.1c-5.2-2.9-10-6.4-15-9.6c3.8-4.8,7.3-10.1,11.6-14.4
	c3.1-3.2,7.1-6,11.2-7.5c5.3-2,11.7-4.4,16.4-2.9c2.9,0.9,4.8,8.9,4.8,13.7C1159.3,1816,1147.7,1826.2,1136.6,1825.8L1136.6,1825.8z
	"/>
<path class="st0" d="M295.2,923.9c4.1,0.5,8.1,1,7.9,0.9c10.4-7.6,18.2-13.3,26.8-19.5c4.8,24.6-3.6,33.1-44.6,46.9
	c-5.9-13.1-0.1-21.8,10.5-28.8L295.2,923.9L295.2,923.9z"/>
<path class="st0" d="M775.8,1614c-10.1-8.2-16.4-13.2-22.6-18.3c-11.3-9.5-3.5-19.8-0.3-29.4c0.6-1.9,7.4-4.2,8.2-3.4
	c7.9,8.1,17.3,15.8,21.7,25.7C785.3,1594.1,779.1,1603.5,775.8,1614L775.8,1614z"/>
<path class="st0" d="M1114.1,1434.9c-8.1-2.2-12.6-3.5-18.7-5.2c-0.2,3.5-0.4,6.1-0.7,10.9c-8.9-1.2-18.6-1.9-27.9-4.3
	c-2.6-0.7-5.8-9.4-5.6-9.5c9-5.7,17.8-13.3,27.8-15.3c6.6-1.3,15.3,4.8,22.1,9.1C1113.4,1422.1,1112.8,1428.2,1114.1,1434.9
	L1114.1,1434.9z"/>
<path class="st0" d="M647.8,1734.7c5.3,1.5,10.5,3.2,15.9,4.5c6.7,1.7,13.8,2.3,20.2,4.8c3.2,1.3,6.3,5.3,7.4,8.7
	c0.6,1.7-3.2,5.1-5.3,7.4c-1,1.1-2.8,1.4-4.3,2c-6.7,2.4-8.7,19.2-20.8,5.9c-5.7-6.2-14.1-9.7-12.2-20.5c0.4-2.2-1.7-4.9-2.7-7.3
	L647.8,1734.7L647.8,1734.7z"/>
<path class="st0" d="M763.4,2699.6c-13.8-25.9-10.6-37.8,12.5-48.7C792.7,2682.6,792.1,2685.5,763.4,2699.6z"/>
<path class="st0" d="M1330.5,1217c-15.2-3.3-23.6-8.9-21.9-23.2c0.2-1.4,0.8-3.4,0.2-4.1c-4.9-5.1-11.7-11.1-3.6-16.9
	c3.2-2.3,11.6,2.6,17.7,4.4c4.5,1.3,9,2.8,15.9,5C1336.1,1193.6,1333.4,1205.1,1330.5,1217L1330.5,1217z"/>
<path class="st0" d="M1244.4,1374.5c24-0.7,12.5,17.2,20.4,23c-4.8,5.4-8.9,14.2-14.6,15.3c-10.2,2-24.4-12.6-20.9-20.9
	C1232.6,1383.9,1241.1,1378.2,1244.4,1374.5L1244.4,1374.5z"/>
<path class="st0" d="M1181.7,1693.5c-10.7-3.7-21.4-7.3-33.1-11.4c1.7-4.4,2.2-10,4.6-10.8c5.5-2.1,14.6-4.9,17.3-2.3
	c11.3,10.7,40.3-3,37.8,28c-9.5-1.4-18.3-2.7-27.1-4L1181.7,1693.5L1181.7,1693.5z"/>
<path class="st0" d="M655.4,2389.2c34.2-11.6,39.7-10.8,50.7,6.8c4.7,7.5,10.2,15.9-2.3,24.5c-7-17.1-19.9-22.4-36.7-21.6
	C663.9,2399,660.5,2393.5,655.4,2389.2L655.4,2389.2z"/>
<path class="st0" d="M1257.3,1925.7c-8.2-1.3-16.5-3.2-24.8-3.8c-7.5-0.5-15.2,0.9-22.7,0.4c-3.6-0.2-7.1-2.9-10.6-4.5
	c3.3-6,5.5-13.2,10.4-17.4c3.1-2.6,10.4-1.6,15.3-0.4c7.4,1.9,14.7,4.8,21.4,8.5c5.2,2.9,9.3,7.7,13.9,11.6
	C1259.3,1922,1258.3,1923.9,1257.3,1925.7L1257.3,1925.7z"/>
<path class="st0" d="M858.2,2845.9c-6.6-17-18.4-22.3-34.4-21.8c-3.7,0.1-7.6-5.2-12.2-8.7c30.4-14.3,34.1-14,46,1.8
	C868.7,2831.9,868.9,2833.9,858.2,2845.9L858.2,2845.9z"/>
<path class="st0" d="M1154.3,1367.1c-11.6,1.4-22.6,2.7-34,4.1c2.9-26.3,16.9-36.6,42.7-33.2
	C1160.3,1346.7,1157.5,1356.3,1154.3,1367.1z"/>
<path class="st0" d="M662.3,1163.7c-2.7-21.6-0.2-30.7,40.8-38.2c1.7,17.9-20.3,38-41.3,37.7L662.3,1163.7L662.3,1163.7z"/>
<path class="st0" d="M1283,1715c-6.2,8.6-12.3,17.2-20.2,28.2c-0.8,0-5.9,0.8-10.1-0.8c-7.2-2.6-13.8-6.8-20.6-10.2
	c6.6-5,12.5-11.7,19.9-14.7c8.6-3.5,18.5-3.8,27.9-5.5C1280.9,1713.1,1282,1714,1283,1715z"/>
<path class="st0" d="M1115.4,2748.9c-11.8-1.3-22.7-1.7-33-4.1c-4.4-1.1-7.8-6.5-11.7-9.9c5.4-5.2,10-13.1,16.3-15
	C1100.7,2715.8,1116,2731.5,1115.4,2748.9L1115.4,2748.9z"/>
<path class="st0" d="M1208,860.1c-9.2-5.5-19.2-9.5-25.9-16.6c-2.8-3,0.7-13.1,3.3-19.1c1.3-3,7.3-3.9,11.3-5.8
	C1218.6,835.1,1218.7,841.9,1208,860.1L1208,860.1z"/>
<path class="st0" d="M1020.8,1782.7c6.8,11.6-1.7,20.2-7.1,28.2c-2.4,3.6-14.8,5.8-16.5,3.7c-4.7-5.8-9.4-15-7.9-21.4
	c1.3-5.3,11.1-9.3,17.9-11.9c3.9-1.5,9.3,1.1,14,1.9L1020.8,1782.7L1020.8,1782.7z"/>
<path class="st0" d="M318,1057.4c-12.8-2.7-21-3.9-28.9-6.3c-5.5-1.7-10.5-5.2-15.7-7.9c3.2-4.3,5.5-10.8,9.7-12.6
	c16.4-6.8,26.4-2.5,34.5,14.5C319.8,1049.4,318,1055.6,318,1057.4L318,1057.4z"/>
<path class="st0" d="M1347.2,1942.7c-15-2.2-27-0.8-33.7-6c-6-4.7-6.3-16.8-9-25.2c11.1-13.5,20.2-1.4,26.7,3.5
	C1337.8,1919.8,1340.4,1930.3,1347.2,1942.7L1347.2,1942.7z"/>
<path class="st0" d="M936.9,2340.4c2.4,11.5,5.9,23,6.2,34.6c0.1,2-13.4,6.8-19.9,5.8c-4.8-0.7-13-10.9-11.9-13.3
	c4.8-10.4,12.4-19.4,18.9-28.9C932.5,2339.2,934.7,2339.8,936.9,2340.4L936.9,2340.4z"/>
<path class="st0" d="M671.3,968.7c-9.5-6.3-16.8-11.1-25.6-16.9c0-4.9-0.7-12.1,0.3-19c0.5-3.5,3.7-8.2,6.7-9.2
	c2.6-0.9,8.2,1.8,9.9,4.5c5.8,9.4,11.2,19.3,15,29.6C678.6,960.4,673.3,965.4,671.3,968.7L671.3,968.7z"/>
<path class="st0" d="M825.8,2386.8c10.1,16.4,10.1,32.9-0.1,37.7c-10.1,4.8-18-0.7-23.5-8.8C796.9,2407.7,805.1,2397.7,825.8,2386.8
	z"/>
<path class="st0" d="M369.7,1512.3c-11.6-5.2-24,14.7-25.5-4.3c-0.7-8.5-0.5-26.7,15.3-27c6.7-0.1,21,3.8,18.9,17.5
	C377.5,1503.9,372.2,1508.6,369.7,1512.3L369.7,1512.3z"/>
<path class="st0" d="M1602.7,1612.9c-5.2,28.5-7.6,31.1-25.2,30.7c-3.2-8.3-7.1-15.8-8.6-23.8c-0.6-3,4.6-10.1,7.2-10.1
	C1584.6,1609.3,1593.1,1611.5,1602.7,1612.9L1602.7,1612.9z"/>
<path class="st0" d="M809.1,1182.7c-33.6,0.4-35.3-1.2-30.9-27.5C795.3,1152.4,805.5,1161.6,809.1,1182.7z"/>
<path class="st0" d="M1151.1,2565.8c-2.3-32.2,3.3-36.6,21.7-39.3c3.9-0.6,11.2,1,11.8,3.1c1.2,4.2,0.6,11.5-2.2,13.9
	C1173.2,2551.4,1162.7,2557.7,1151.1,2565.8L1151.1,2565.8z"/>
<path class="st0" d="M710.6,948.3c-1.9-18.6,15.8-10,26.5-14c3.4,18.3-12.7,18-22.5,24.1c1.2,4.6,2.5,9.2,4.9,18.1
	c-7.3-1.7-14.5-1.3-17.2-4.6c-3.8-4.6-5.2-11.9-5.6-18.1C696.5,952.5,704.8,950.5,710.6,948.3L710.6,948.3z"/>
<path class="st0" d="M1085.7,2165.6c3.9,11.2,16,23,1.4,33.5c-7.3,5.3-18.7,6.9-24.1-6.2C1058.7,2182.5,1065.7,2173.6,1085.7,2165.6
	L1085.7,2165.6z"/>
<path class="st0" d="M944.6,1231.1c-14-3-26.2-5.6-38.8-8.3c1.3-19.2,13.9-20.4,26.2-19.5C948,1204.4,945.7,1216.6,944.6,1231.1
	L944.6,1231.1z"/>
<path class="st0" d="M532.2,895.4c1.3,4.4,2.7,9.3,4.4,14.1c1.5,4.4,3.4,8.8,5.2,13.1c-7.7,0.9-16.9,4.7-22.8,1.8
	c-5.6-2.7-8.7-12.2-11-19.3c-0.5-1.6,6.3-6.7,10.5-8.4C522.5,895.1,527.6,895.7,532.2,895.4L532.2,895.4z"/>
<path class="st0" d="M580.3,754.6c-5.3,7.3-7.6,13.8-11.5,15.1c-7.8,2.6-16.6,2.4-24.9,3.3c-0.4,0-1.1-0.7-1.1-1
	c-0.3-3.4-0.8-9.6-0.6-9.7c12.8-1.5,0.2-26.7,19-21C567.7,743.2,573,749.3,580.3,754.6L580.3,754.6z"/>
<path class="st0" d="M246.5,1378.1c9.6,3.5,19.8,6.2,28.6,11.1c2.9,1.7,4.6,10.1,3.1,13.9c-1.8,4.4-7.8,10-11.9,9.9
	c-4.3-0.1-9.1-5.8-12.4-10.1c-4.5-5.9-7.7-12.8-11.5-19.2C243.8,1381.9,245.1,1380,246.5,1378.1L246.5,1378.1z"/>
<path class="st0" d="M1143.7,540.3c-6.9-8.1-13.8-15.3-13.3-15.8c7.5-8.3,16-15.8,24.3-23.4c3.8,5.2,11.9,12.8,10.6,15.2
	C1160.9,524.3,1153.1,530.4,1143.7,540.3z"/>
<path class="st0" d="M714.2,1473.5c4.4,13.6-5.4,16.9-14.3,18.3c-3,0.5-10.9-8-10.1-10.3c3.4-10.1-3.9-26,11.1-29
	c4.3-0.9,11.3,12.1,17.1,18.7C716.7,1472,715.5,1472.8,714.2,1473.5L714.2,1473.5z"/>
<path class="st0" d="M9.2,1418c9.3,3.1,19.2,5.1,27.5,9.9c3.4,1.9,5.5,10.6,4.2,14.9c-1.3,4.3-7.8,9.9-11.9,9.8
	c-4.3-0.2-9-5.9-12.3-10.2c-4.4-5.9-7.7-12.7-11.4-19.1C6.6,1421.6,7.9,1419.8,9.2,1418L9.2,1418z"/>
<path class="st0" d="M1067.2,111.1c20.8-5.7,30.2,2,34.6,14.9c1.6,4.6-2.9,11.3-4.6,17c-4.6-1.8-10.7-2.4-13.4-5.7
	C1077.6,129.7,1073.2,120.8,1067.2,111.1L1067.2,111.1z"/>
<path class="st0" d="M586.8,1317.4c-2.7,2.3-8.7,10.5-11.7,9.5c-8.6-2.8-22.5-3.4-20.9-16.9c0.6-5.4,9.2-13.1,15-13.9
	C579.4,1294.6,585.7,1302.2,586.8,1317.4L586.8,1317.4z"/>
<path class="st0" d="M1261.6,242.5c21.2-2.5,33.5,3.9,35.4,17.1c0.7,4.8-2.8,11.1-6.3,15.1c-1.2,1.3-10-1.3-12.3-4.3
	C1272.3,262.2,1267.7,252.9,1261.6,242.5L1261.6,242.5z"/>
<path class="st0" d="M295.7,923.4c-4.1-3.2-11.9-6.6-11.7-9.6c0.4-9.7,3.4-19.3,6.6-28.6c0.3-0.8,9-0.2,12.8,1.7
	c8.7,4.5,8.4,20.4,0,29.2c-2.6,2.7-5.4,5.2-8.1,7.8C295.2,923.9,295.7,923.4,295.7,923.4L295.7,923.4z"/>
<path class="st0" d="M116.8,786.5c-2.6,8.8-2.7,15.3-6,18.7c-4.1,4.2-10.8,5.8-16.3,8.6c-1.6-5.2-3.5-10.2-4.5-15.5
	c-0.6-3.3-1.1-7.7,0.5-10.2c3-4.9,8.4-13.1,11.2-12.4C107.6,776.8,112.4,783,116.8,786.5z"/>
<path class="st0" d="M1541.9,1754.2c-10-8.4-31.6,3.2-32.9-19.2c-1.2-19,16.9-6.8,23.8-13.1c4.6,9.9,9,19.4,13.4,28.8
	C1544.7,1751.9,1543.3,1753,1541.9,1754.2L1541.9,1754.2z"/>
<path class="st0" d="M702.4,2079.4c8.4,6.5,19,10.7,20.9,17.3c2,6.9-5.7,14.6-16.2,12.6c-11.2-2.1-20.6-7-21-19.4
	C686,2087.2,694.8,2084.1,702.4,2079.4L702.4,2079.4z"/>
<path class="st0" d="M883.5,2612.6c0,9.7,1.9,19.9-0.8,28.7c-1.3,4.1-12.5,8.7-17.5,7.2c-8.4-2.4-8.8-10.8-3.8-18.2
	c4.7-6.9,9.7-13.6,14.6-20.4L883.5,2612.6L883.5,2612.6z"/>
<path class="st0" d="M1265.4,1946.7c12.5,13.6,13,25.3,5.2,35.3c-3,3.8-12.2,2.8-18.5,4c-1-5.7-4.3-12.3-2.4-16.8
	C1253,1961.2,1259.5,1954.7,1265.4,1946.7L1265.4,1946.7z"/>
<path class="st0" d="M583.4,2659.3c-9.7-10-16.5-16.9-23.3-23.8c4.3-2.8,8.8-8.3,12.8-7.9c9.8,1,24.2-2.5,25.5,12.8
	C598.8,2645,590.7,2650.4,583.4,2659.3L583.4,2659.3z"/>
<path class="st0" d="M865.2,1828.4c-5.1-2.5-10.6-4.5-15.2-7.8c-2-1.5-3.3-8-3-8.1c9.8-4.5,19.7-9.2,30-11.8
	c1.8-0.4,8.9,8.8,8.4,13.1C884.4,1824,877,1828.7,865.2,1828.4L865.2,1828.4z"/>
<path class="st0" d="M1077.3,2338.9c11.6,12.2,14.4,23.4,5.9,33.9c-3.3,4.1-11.7,4.1-17.8,6.1c-1.3-6-5.2-12.9-3.4-17.6
	C1065.1,2353.3,1071.8,2346.7,1077.3,2338.9z"/>
<path class="st0" d="M1378.1,345.7c1.5,11.1,4.7,19.4,3.2,26.8c-1.9,8.9-2.4,22.2-19.2,19.1C1356.7,375.8,1356.2,361.1,1378.1,345.7
	z"/>
<path class="st0" d="M678.9,1365c-12.5,13.7-27.6,17.8-34.9,8.5c-3-3.9-3.3-13.5-0.5-17.6C649.1,1347.7,668.8,1353.1,678.9,1365z"/>
<path class="st0" d="M1015.2,2205.1c-10-10.9-16.8-18.3-23.5-25.7c4.1-2.5,8.6-7.4,12.2-6.9c9.8,1.5,24.1-2.5,26.1,12.4
	C1030.6,2189.6,1022.7,2195.4,1015.2,2205.1L1015.2,2205.1z"/>
<path class="st0" d="M598.7,1822.6c14.1,0.2,25.2,11.7,23.4,21.9c-0.7,4.1-6.7,7.4-10.2,11.1c-7.4-7.4-15.2-14.6-21.6-22.8
	C589.5,1831.9,596.9,1824.7,598.7,1822.6z"/>
<path class="st0" d="M890.5,1986c-12.3,15.4-29.9,15-37.9-1.5c-1.6-3.2,0.4-11.4,3-12.8c11.5-6.1,28.6,2,34.3,14.8
	C890,1986.5,890.5,1986,890.5,1986L890.5,1986z"/>
<path class="st0" d="M1705.4,876.7c-10.7-0.9-20.6-0.8-29.8-3c-3.5-0.9-8.8-8.8-7.8-10.9c2.4-5,7.8-11.4,12.5-11.9
	C1694.3,849.6,1702.8,857.6,1705.4,876.7L1705.4,876.7z"/>
<path class="st0" d="M919.7,1898c-9.9-9.9-16.8-16.8-23.6-23.7c4.2-2.9,8.7-8.5,12.5-8.2c9.9,0.9,24-2.4,25.8,12.6
	C935,1883.4,926.9,1889,919.7,1898L919.7,1898z"/>
<path class="st0" d="M840.2,1940.8c3.8-5.3,7.6-10.6,11.5-15.8c5.7,7.2,14.2,13.8,16.1,21.9c1.5,6.3-1.5,18.2-13.7,17.2
	C840.3,1962.8,843.5,1951.7,840.2,1940.8L840.2,1940.8z"/>
<path class="st0" d="M871.3,1435.4c-3.4-14.7-2.3-24.7,11-29.4c10.6-3.7,20.1-4.2,28.6,10.7C898,1422.9,885.4,1428.8,871.3,1435.4
	L871.3,1435.4z"/>
<path class="st0" d="M723.7,1051.3c-14-17.4-5.2-26.2,3.8-33.1c3.3-2.6,11.5-1.8,15.6,0.7c3,1.8,5.5,11.1,3.8,12.9
	C740.1,1039.1,731.6,1044.9,723.7,1051.3L723.7,1051.3z"/>
<path class="st0" d="M1340.9,1042.3c6.4,8.2,13.7,15.8,18.4,24.8c1.3,2.5-4.4,12.2-8.4,13.3c-11.6,3.2-17.2-6.8-19.5-15.4
	c-1.7-6.1,2-13.6,3.3-20.5C1336.8,1043.8,1338.8,1043,1340.9,1042.3L1340.9,1042.3z"/>
<path class="st0" d="M578.2,1403.8c-12.2-16.1-5.8-25.6,3.8-32.4c3.9-2.8,12.2-2,17,0.3c2.6,1.2,4.7,11.3,2.7,13.4
	C594.9,1392.3,586.2,1397.8,578.2,1403.8L578.2,1403.8z"/>
<path class="st0" d="M1116.5,1104.4c-9.4-15.7-8.6-27.9,1.9-33.8c7.6-4.3,13.9-5.1,18.3,4.7
	C1141.1,1085.1,1132.9,1098,1116.5,1104.4z"/>
<path class="st0" d="M634.8,1647.8c-14-17.5-5.1-26.2,3.8-33.2c3.3-2.6,11.5-1.8,15.6,0.7c3,1.8,5.5,11.1,3.8,12.9
	C651.2,1635.7,642.7,1641.5,634.8,1647.8L634.8,1647.8z"/>
<path class="st0" d="M618.6,1357.3c-10.9-13.4-2.7-22.4,6.7-29.1c3.8-2.7,12.3-1.6,17.1,0.8c2.6,1.3,4.2,11.2,2,13.8
	C637.7,1350.8,631.2,1361.3,618.6,1357.3L618.6,1357.3z"/>
<path class="st0" d="M707,1795.5c-10.3-14.7-0.5-22.9,8.1-29.9c3.1-2.5,11.8-1.1,15.8,1.6c2.8,2,4.5,11.1,2.5,13.7
	C726.9,1789.1,720.4,1799.6,707,1795.5L707,1795.5z"/>
<path class="st0" d="M1114.7,1961.2c-11.9-18.2-3.8-27.1,5.3-33.9c3.3-2.5,11.7-1.3,15.8,1.3c2.9,1.9,4.9,11.4,2.9,13.4
	C1131.9,1949.2,1123.2,1954.7,1114.7,1961.2L1114.7,1961.2z"/>
<path class="st0" d="M371.9,2026.9c-12.4,7-20.3,12.5-29.1,15.7c-1.8,0.7-9-6.7-9.6-11c-1.5-10,11.8-23,21-20.5
	C359.5,2012.6,363.5,2019.1,371.9,2026.9L371.9,2026.9z"/>
<path class="st0" d="M413.4,1546c-11.9-17.8-4.5-26.9,4.8-33.7c3.4-2.5,11.6-1.6,15.7,1c2.9,1.8,5.2,11.2,3.4,13.1
	C430.4,1533.7,421.8,1539.4,413.4,1546L413.4,1546z"/>
<path class="st0" d="M1487.9,1530.9c-5.2,16.4-16.4,25.4-27.2,20.2c-4.7-2.2-10.7-9.8-9.9-13.6
	C1453.6,1524.5,1471.1,1522,1487.9,1530.9L1487.9,1530.9z"/>
<path class="st0" d="M1252.3,935.4c-8.1-9.7-15.5-17.5-21.4-26.4c-1.5-2.2,0.6-10.2,2.8-11c4.8-1.9,11.6-2.8,16.1-0.8
	C1261.4,902.4,1262.7,915.2,1252.3,935.4L1252.3,935.4z"/>
<path class="st0" d="M1581.3,1426.3c-8.6,16.8-23,25.8-31.6,19.3c-3.8-2.9-6.7-11.3-5.4-15.8
	C1547.5,1418.9,1564.8,1417.6,1581.3,1426.3L1581.3,1426.3z"/>
<path class="st0" d="M1599.4,2077c-13-2.6-28.4,0.4-30.6-17.1c-0.5-3.7,8.8-12,14.1-12.5C1594.3,2046.5,1601.3,2059.4,1599.4,2077z"
	/>
<path class="st0" d="M996.8,1358.5c-13-2.5-28.2,0.4-30.8-16.7c-0.6-3.7,8.5-12.2,13.8-12.8C991.1,1327.7,998.4,1340.7,996.8,1358.5
	L996.8,1358.5z"/>
<path class="st0" d="M920.9,1740.8c-13-2.5-28.3,0.4-30.7-16.9c-0.5-3.7,8.7-12.1,14-12.7C915.5,1710.1,922.7,1723.2,920.9,1740.8
	L920.9,1740.8z"/>
<path class="st0" d="M1181.2,1693.1c7.8,7.9,19.3,14.1,13.4,28.6c-15.1,3.3-30.4-2-31.5-11.8c-1.6-13.7,8-15.9,18.7-16.2
	C1181.7,1693.5,1181.2,1693.1,1181.2,1693.1L1181.2,1693.1z"/>
<path class="st0" d="M1444.7,2111.2c-18.4,2.2-32.9-4.3-30.9-14.9c0.9-5,7.9-11.9,12.9-12.6
	C1438.8,2081.8,1446.7,2095,1444.7,2111.2L1444.7,2111.2z"/>
<path class="st0" d="M697.2,1325.9c20.9-1.3,28.7,6.8,25.5,32c-10.6-4.9-20.8-8.3-29-14.4c-2-1.5,2.5-11.8,4.1-18.1L697.2,1325.9
	L697.2,1325.9z"/>
<path class="st0" d="M1392.1,1625.5c-13.1-2.5-28.2,0.4-30.8-16.7c-0.6-3.7,8.5-12.2,13.8-12.8
	C1386.4,1594.6,1393.7,1607.7,1392.1,1625.5L1392.1,1625.5z"/>
<path class="st0" d="M1376.4,2337.6c5.1,6.9,14.1,14.8,12.6,18.1c-5.1,11.7-15.2,19.2-30,16.8
	C1351.1,2355.3,1365.6,2349.1,1376.4,2337.6z"/>
<path class="st0" d="M787.3,1559.3c-14.3-13.2-16.7-24-6.2-32.8c3.5-2.9,12.8-3.3,16.5-0.7C806.7,1532.1,802.4,1545.6,787.3,1559.3
	L787.3,1559.3z"/>
<path class="st0" d="M671.8,1447.3c-14.3-13.5-16.7-24.2-6-32.9c3.5-2.9,12.8-3.2,16.5-0.5C691.5,1420.3,687.1,1433.6,671.8,1447.3z
	"/>
<path class="st0" d="M251.9,1161.9c-10,9.8-17.4,17.2-24.8,24.5c-3.2-4.1-10-9.8-9-12.1c3.7-8.5,9.5-16.3,15.8-23.2
	C234.7,1150.3,243.4,1156.7,251.9,1161.9L251.9,1161.9z"/>
<path class="st0" d="M323.6,1338.9c-12.4,7-9.7,28.6-29.1,19.1c-7.3-3.6-10.6-9.7-4.8-18.3C299.1,1325.7,309,1331.6,323.6,1338.9z"
	/>
<path class="st0" d="M1058.3,1092.9c-4.7-7.3-9.7-14.5-13.5-22.3c-0.3-0.7,7.8-8,11.6-7.7c9.3,0.8,20.6,3.1,19.8,15.7
	c-0.3,4.9-7,9.5-10.7,14.2C1063.1,1092.9,1060.7,1092.9,1058.3,1092.9z"/>
<path class="st0" d="M955.2,1003c-11.7-21.2-6.1-32.9,14.7-33c3.2,0,7.5,2.6,9.2,5.3c1.2,2,0.1,7.3-1.8,9.2
	C970.8,990.7,963.4,996.2,955.2,1003z"/>
<path class="st0" d="M619.3,1635.3c-11.2,4.2-22.4,8.4-34.6,13.1c-4.2-13.9-1.8-25.2,12.3-28.2
	C605.6,1618.2,617,1619.5,619.3,1635.3L619.3,1635.3z"/>
<path class="st0" d="M323.4,1381c-11.5,4.5-22.7,8.9-34.9,13.7c-3.7-12.8-3.8-23.5,10.4-27.7C309.5,1363.9,319.2,1365.9,323.4,1381z
	"/>
<path class="st0" d="M697.7,1325.4c-10.1,3-20.3,5.9-30.5,8.9c-7.2-15.2,2.8-22.8,13-30.4c0,0-0.3,0.3-0.3,0.3
	c3.4,1.4,6.7,3.8,10.2,4.2c13.9,1.5,12.5,8.6,7,17.6C697.2,1325.9,697.7,1325.4,697.7,1325.4L697.7,1325.4z"/>
<path class="st0" d="M846.1,2716.2c-12.7,10.4-24.2,13.3-37.9-3c4.3-4.1,8.7-12,14.6-13.2C834.9,2697.4,843.3,2704.2,846.1,2716.2z"
	/>
<path class="st0" d="M508.9,1496.9c-4.2-14.5-1.4-25.5,12.2-28.4c8.8-1.8,19.8-0.3,22.7,14.8
	C532.4,1487.8,521.3,1492.1,508.9,1496.9L508.9,1496.9z"/>
<path class="st0" d="M86.5,1378.5c-12.7,6.5-9.4,28.5-29,19.1c-7.6-3.6-10.6-9.7-5-18.3C61.6,1365.2,71.6,1370.9,86.5,1378.5
	L86.5,1378.5z"/>
<path class="st0" d="M1214.5,718.1c-23.1-6.9-24.5-9.5-17.5-31.2C1219.1,685.7,1225.4,696.1,1214.5,718.1z"/>
<path class="st0" d="M1284.7,2206.9c-12.1,3.6-23.3,6.9-35.1,10.3c-2.9-12.8-0.1-24.1,12.8-26.9
	C1271.8,2188.3,1284,2190.1,1284.7,2206.9L1284.7,2206.9z"/>
<path class="st0" d="M1134,1744.9c5.8-4.6,11.1-10.9,17.7-13.4c5.1-2,12,0.6,18.2,1.2c-3,6.9-4.2,16.2-9.4,20.3
	C1149.8,1761.4,1140.5,1755.9,1134,1744.9z"/>
<path class="st0" d="M1305.5,2311c13.5-1.4,25.2,0.8,27.8,15.3c0.7,3.7-8.1,13.2-12,12.9C1305.5,2338,1302.1,2326.7,1305.5,2311z"/>
<path class="st0" d="M654.9,1826.2c-1.8-7.3-6.9-16.3-4.3-21.6c2.7-5.7,12.4-8.5,19.6-11.2c1.7-0.6,8.4,6.1,7.9,7.3
	c-3.8,9.2-8.9,17.9-13.6,26.8C661.2,1827.2,658,1826.7,654.9,1826.2L654.9,1826.2z"/>
<path class="st0" d="M1177.2,1144.6c8.8,8,17.5,16,26.1,23.9c-6.9,13.6-19.1,11.4-25.3,7.2
	C1166.1,1167.7,1166.1,1155.6,1177.2,1144.6L1177.2,1144.6z"/>
<path class="st0" d="M1356.8,1773c1.1,10.1-0.3,20.5-13,19.3c-15.8-1.5-18.8-13.2-14.3-31.7c9.8,4.5,18.8,8.7,27.8,12.8L1356.8,1773
	L1356.8,1773z"/>
<path class="st0" d="M1614.1,765.8c-23.5,12.6-27.9,11-34.9-12C1600.1,740.4,1602.6,741.1,1614.1,765.8z"/>
<path class="st0" d="M521.3,762.9c-3.7,11.7-0.7,27-18.5,27.4c-3.8,0.1-11.5-8.5-11.1-12.4C493.3,762.1,504.5,759,521.3,762.9z"/>
<path class="st0" d="M1717.6,829.3c-3.9-5.8-11.2-11.9-10.5-16.8c1.2-8.1,7.6-15.5,12.9-25.2C1736.9,812,1736.9,812.6,1717.6,829.3
	L1717.6,829.3z"/>
<path class="st0" d="M1278.3,813.9c-5.9,18.2-16.7,28-24.4,22.3c-4-3-7.3-11.6-6-16.1C1251.1,809.5,1266.5,806.9,1278.3,813.9
	L1278.3,813.9z"/>
<path class="st0" d="M1324.5,886.6c-3.3,9.8-3,23-18.5,22.2c-4.7-0.2-11.3-3.8-13.2-7.7c-1.6-3.3,1.1-12,4.3-13.6
	C1305.3,883.4,1314.6,875.5,1324.5,886.6L1324.5,886.6z"/>
<path class="st0" d="M1062.3,1554.6c-7.4,7.7-13.1,13.5-18.7,19.3c-4.2-4.3-12.7-11.4-11.9-12.6c5-8,12-14.7,18.3-21.8
	C1053.3,1543.5,1056.5,1547.4,1062.3,1554.6L1062.3,1554.6z"/>
<path class="st0" d="M1250.3,1424.4c7.9,13.4,6.8,27.5-4.1,31.5c-4.5,1.6-13.6-1.3-16.5-5.2
	C1223.2,1441.8,1232.3,1430.9,1250.3,1424.4L1250.3,1424.4z"/>
<path class="st0" d="M1444.6,1569.4c-7.9,7.3-13.9,12.9-19.8,18.4c-3.9-5-12-12.3-10.8-14.5c4.2-7.8,11.7-13.7,17.9-20.4
	C1435.2,1557.2,1438.5,1561.6,1444.6,1569.4L1444.6,1569.4z"/>
<path class="st0" d="M1191.1,589.5c-13.6,1.2-26.4,1.3-27.6-15c-0.3-4.4,6.8-12.5,11.6-13.4C1185.9,559,1192.8,571.8,1191.1,589.5
	L1191.1,589.5z"/>
<path class="st0" d="M452.8,1325.5c8.2,12.7,7.4,27.3-3.4,31.5c-4.5,1.7-13.7-1-16.7-4.8C425.8,1343.5,434.6,1332.5,452.8,1325.5
	L452.8,1325.5z"/>
<path class="st0" d="M1084,1874.2c13.3-10.6,21.7-0.4,27.9,6.9c2.3,2.8-2.6,17.6-6.1,18.4C1085.4,1904.3,1087.9,1886.4,1084,1874.2
	L1084,1874.2z"/>
<path class="st0" d="M474.6,1313.9c13.4-10.6,21.7-0.2,28,7.1c2.3,2.7-2.7,17.6-6.3,18.4C475.9,1343.9,478.4,1326.1,474.6,1313.9
	L474.6,1313.9z"/>
<path class="st0" d="M570.1,1587.6c13.2-11.1,21.5-0.6,27.9,6.6c2.4,2.6-2.3,17.7-5.9,18.5C571.8,1617.6,574.1,1599.8,570.1,1587.6
	L570.1,1587.6z"/>
<path class="st0" d="M1304.1,1073c-13.4,6.3-21.7,10.9-30.5,13.7c-1.7,0.5-8.6-7.6-7.9-8.9c4.5-8.1,4.2-22.6,18.8-19.4
	C1290,1059.6,1294.4,1065.6,1304.1,1073L1304.1,1073z"/>
<path class="st0" d="M98.3,1037.2c1.6,25.3-17.6,24.3-29.2,33.8c-0.6-7.4-4.5-18.6-1.3-21.3C75.2,1043.6,86,1041.8,98.3,1037.2z"/>
<path class="st0" d="M659.1,991c13.3-10.7,21.7-0.6,27.9,6.8c2.3,2.8-2.5,17.6-6.1,18.5C660.5,1021,663,1003.1,659.1,991L659.1,991z
	"/>
<path class="st0" d="M1497,2056.1c-7.4,7.4-13.1,13.2-18.8,19c-4.1-4.5-12.6-11.7-11.7-13c5-7.9,12.2-14.5,18.6-21.5
	C1488.2,2044.6,1491.4,2048.7,1497,2056.1L1497,2056.1z"/>
<path class="st0" d="M1299.5,2040.7c8.1,13,7.1,27.4-3.7,31.5c-4.5,1.7-13.7-1.1-16.7-5C1272.5,2058.5,1281.4,2047.5,1299.5,2040.7
	L1299.5,2040.7z"/>
<path class="st0" d="M1237,1651.8c8,13.2,6.9,27.5-3.9,31.5c-4.5,1.7-13.7-1.2-16.6-5.1C1209.9,1669.4,1219,1658.4,1237,1651.8
	L1237,1651.8z"/>
<path class="st0" d="M1135.6,642c-13.5,1.4-26.4,2.1-28-14.2c-0.4-4.4,8.8-14.4,12.1-13.8C1133.6,616.5,1138.2,627.1,1135.6,642
	L1135.6,642z"/>
<path class="st0" d="M333.7,1191.4c12.8-10,21,0.3,27.3,7.6c2.3,2.7-3.8,12.6-6.1,19.2c-6-2.3-14-3.1-17.6-7.5
	C333.8,1206.6,334.8,1198.7,333.7,1191.4L333.7,1191.4z"/>
<path class="st0" d="M1642.2,2003.3c8.1,16.9,6.4,29.4-4.9,32.8c-4.4,1.3-14.8-2.9-15.7-6.2
	C1617.7,2014.3,1629.9,2009.1,1642.2,2003.3L1642.2,2003.3z"/>
<path class="st0" d="M577.7,2814.9c10.7,13.6-1.8,22.2-8,24.9c-12.8,5.6-22.6-1.8-25.7-16.4C555.1,2820.6,566.1,2817.9,577.7,2814.9
	L577.7,2814.9z"/>
<path class="st0" d="M656.5,2465.6c12.3,13.4-1.8,22.1-7.3,24.7c-12.7,6-22.6-1.4-26.2-16.1C633.8,2471.4,644.8,2468.6,656.5,2465.6
	z"/>
<path class="st0" d="M432.4,1403.5c-1.4-20.7,3.4-29.1,15.4-29.1c10.6,0,10.3,7.4,10,14.7C457.1,1406.5,444.9,1404.3,432.4,1403.5
	L432.4,1403.5z"/>
<path class="st0" d="M887.7,2514.9c-8.3-10.2-12.4-20.2-1.8-29.3c5.1-4.4,13-8.6,18.3,2.5C910.1,2500.3,907.5,2505.6,887.7,2514.9
	L887.7,2514.9z"/>
<path class="st0" d="M1598.7,1505.7c-14.5-6-22.8-18.8-16.3-27.3c2.9-3.8,12.5-7.1,15.8-5.2
	C1614.6,1483,1605.7,1494.7,1598.7,1505.7L1598.7,1505.7z"/>
<path class="st0" d="M742.6,909.2c-2.4-20.1,1.9-29.5,14-28.5c3.9,0.3,9.9,7.2,10.4,11.7C768.8,906.6,763.4,910,742.6,909.2
	L742.6,909.2z"/>
<path class="st0" d="M1098.4,2514.9c-8.5-10.2-12.2-20.3-1.7-29.3c5.2-4.5,13-8.4,18.3,2.6
	C1120.9,2500.4,1118.2,2505.8,1098.4,2514.9z"/>
<path class="st0" d="M631.7,859.6c-13.1,1-26.8,5.5-28.8-13.5c-1-9.3,3.7-13.7,12.6-12.1C628.9,836.4,634.2,844.9,631.7,859.6
	L631.7,859.6z"/>
<path class="st0" d="M1167.1,1792c-1.6-20.3,2.9-28.5,15.1-28.7c10.6-0.2,10.5,7.1,10.2,14.5C1191.9,1791,1187.5,1793.6,1167.1,1792
	z"/>
<path class="st0" d="M158.2,838c-5.4-8.3-11.3-14-12.5-20.5c-0.6-3.3,8.9-12.3,11-11.5c7.6,2.9,14.1,8.9,21,13.8
	C172.1,825.1,166.5,830.3,158.2,838L158.2,838z"/>
<path class="st0" d="M1105.8,1502.3c1,12.9,1.4,19.2,2.2,29c-11.3-3.1-22-5.7-32.5-9.2c-0.7-0.2-0.5-8.8,1-9.5
	C1085.3,1508.6,1094.7,1506,1105.8,1502.3L1105.8,1502.3z"/>
<path class="st0" d="M1015.7,2089.6c-0.9-8.7-3.6-17.7-2-25.8c0.7-3.3,11.1-7.1,16.4-6.3c3.8,0.6,10.2,10.3,9,12.9
	c-3.8,7.9-10.6,14.3-16.3,21.3C1020.4,2091,1018,2090.4,1015.7,2089.6L1015.7,2089.6z"/>
<path class="st0" d="M1228,193.3c-22,1.8-26.5-3.1-24.9-26.3C1225.3,162.3,1229.4,166.4,1228,193.3z"/>
<path class="st0" d="M382.8,817.1c-7.3-12-15.5-22.3,0.8-32.8c6.9-4.5,9.8-3.6,13.5,3.4C404.5,801.5,402.6,806.3,382.8,817.1z"/>
<path class="st0" d="M1290.2,1299.3c0.9,10.9,1.4,17.3,2.2,26c-9.1-1.2-19.1-1.3-28.1-4.2c-7.9-2.6-9.2-10.5-1.4-14.4
	C1270.9,1302.6,1280.5,1301.8,1290.2,1299.3L1290.2,1299.3z"/>
<path class="st0" d="M575.4,961.8c1,12.9,1.5,19.2,2.3,29c-11.5-3.1-22.2-5.8-32.7-9.4c-0.7-0.2-0.4-8.8,1.2-9.5
	C555,968.1,564.4,965.5,575.4,961.8L575.4,961.8z"/>
<path class="st0" d="M1107.4,931.9c7.7,12.4,14.3,22.9-2.6,31.3c-8.8,4.4-11.9,2.1-14.9-6.9C1084.2,939.4,1095.4,936.5,1107.4,931.9
	L1107.4,931.9z"/>
<path class="st0" d="M1282.3,2122.5c-0.8-8.7-3.4-17.7-1.7-25.8c0.7-3.4,11.2-7,16.5-6.1c3.9,0.7,10.2,10.4,8.9,13
	c-3.8,7.8-10.8,14.1-16.6,21.1C1287.1,2123.9,1284.7,2123.2,1282.3,2122.5L1282.3,2122.5z"/>
<path class="st0" d="M1145.3,68.3c0.1,13.8-7.9,25.4-18.6,23.4c-4.9-0.9-12.9-8.7-12.2-11.7C1118.1,63.9,1129.7,61.3,1145.3,68.3z"
	/>
<path class="st0" d="M954.2,2645.1c-7.5,11.9-17.5,6.7-26.2,4.1c-3.5-1.1-8.3-8.4-7.4-10.8c1.9-5.1,6.7-11.4,11.5-12.7
	C947,2621.8,949.4,2635,954.2,2645.1z"/>
<path class="st0" d="M179.9,1333.5c14.9-4.2,26.1-2.9,25.6,11.8c-0.3,8.4-3.8,20.5-20.3,19C183.5,1354.4,181.8,1344.4,179.9,1333.5z
	"/>
<path class="st0" d="M671.4,2171.3c-10.1-12.3-15.1-24.2-1-34.4c2.2-1.6,12,3.4,14.9,7.6C691.1,2153,683.6,2165.8,671.4,2171.3
	L671.4,2171.3z"/>
<path class="st0" d="M1476.8,1454.2c-9.4-1.4-18.2-2.3-26.6-4.4c-2.8-0.7-6.6-4.6-6.8-7.2c-0.2-2.8,2.9-7.5,5.5-8.4
	c8.1-2.7,16.7-4,25.9-6C1475.6,1438.9,1476.1,1445.2,1476.8,1454.2L1476.8,1454.2z"/>
<path class="st0" d="M188.1,708.2c-7.5-12.4-14.7-22.8,1.4-33c7.6-4.8,10.2-2.1,13.4,4.2C208.8,690.6,211,697.9,188.1,708.2
	L188.1,708.2z"/>
<path class="st0" d="M1312.6,1146.4c-12.4,5.7-28.3,2.4-29.8-7.7c-0.8-5.3,4.4-16.6,7.5-16.8
	C1306.6,1120.6,1311.4,1132.4,1312.6,1146.4L1312.6,1146.4z"/>
<path class="st0" d="M546.5,2716.7c-8.4-12.9-16.8-24.6-2-35.3c2.5-1.8,13.3,2.2,15.3,6C566.8,2701.1,557.3,2708.9,546.5,2716.7
	L546.5,2716.7z"/>
<path class="st0" d="M1755.9,1676.7c-21.5,1.4-30.7-3.6-29-16c0.7-4.8,8.9-12.6,12.8-12C1755.2,1650.8,1754.1,1664.3,1755.9,1676.7z
	"/>
<path class="st0" d="M626.7,2371.2c-6.3-12.5-9.6-19.1-14.6-29c6.6-3.4,13.2-8.1,20.4-9.6c2.3-0.5,10,8.6,9.1,11.2
	C638.7,2352.4,633.1,2360,626.7,2371.2L626.7,2371.2z"/>
<path class="st0" d="M1394.5,2237.1c-2-21.6,1.8-29.4,14.6-28.2c3.9,0.4,9.7,7.6,10.1,12.1
	C1420.7,2234.7,1414.4,2238.4,1394.5,2237.1L1394.5,2237.1z"/>
<path class="st0" d="M373.5,930.6c-6.5,4-13.2,11.2-19.5,10.9c-5.1-0.3-9.9-9.5-14.8-14.8c4.4-3.9,9.2-11.4,13.2-11
	c7.3,0.7,14.2,6,21.3,9.4C373.7,926.9,373.6,928.7,373.5,930.6L373.5,930.6z"/>
<path class="st0" d="M837.6,2064.9c-6.3-12.5-9.7-19.1-14.7-29.1c6.6-3.4,13-8.2,20.1-9.7c2.4-0.5,10.1,8.3,9.3,10.9
	C849.6,2045.7,844,2053.4,837.6,2064.9L837.6,2064.9z"/>
<path class="st0" d="M1216.1,563c-0.6-12.3-3.5-25.2,13.9-25.3c5,0,13.6,5.1,14.5,9.2C1246.8,558.3,1236.9,563.9,1216.1,563z"/>
<path class="st0" d="M897.7,2785.7c-8.4-11.2-12.7-21.2-1.5-30.2c7.2-5.8,15.2-6.1,19.1,4.6C921,2776.2,908.8,2779.9,897.7,2785.7
	L897.7,2785.7z"/>
<path class="st0" d="M1684.5,1905.7c-9.2-1.4-17.9-2.2-26.4-4.3c-2.9-0.7-6.9-4.3-7.2-6.9c-0.3-2.7,2.5-7.7,5.1-8.6
	c8.1-2.9,16.7-4.3,26.1-6.5C1683.1,1890.1,1683.7,1896.4,1684.5,1905.7L1684.5,1905.7z"/>
<path class="st0" d="M1272.9,509.4c-2.5-19.5,0.6-24.5,14.6-24.9c8-0.2,14.3,1,13.6,11.1C1300.3,507.7,1291.7,511.9,1272.9,509.4z"
	/>
<path class="st0" d="M1417.5,1689.8c-4.6-24.7,2.9-26.4,15-27.9c2.9-0.3,9.3,7.7,9.8,12.3
	C1443.6,1687.8,1437.4,1691.4,1417.5,1689.8L1417.5,1689.8z"/>
<path class="st0" d="M1398.1,297.1c23-0.9,26.2,3,23.8,27.3C1400.7,327.7,1395.2,321.7,1398.1,297.1z"/>
<path class="st0" d="M1081.6,1186.1c-2.6,0.1-5.4,1-7.8,0.3c-8.7-2.6-17.2-5.5-25.6-8.8c-0.4-0.2,0.4-7.3,2.2-8.2
	c9-4.7,17.6-14.6,29.5-2.9C1080.3,1171.8,1080.9,1178.5,1081.6,1186.1L1081.6,1186.1z"/>
<path class="st0" d="M1155.1,2374.9c-7.4,11.8-17.5,6.9-26,4c-3.4-1.2-7.5-8.7-6.7-12.2c1-4.5,6.2-10.3,10.6-11.4
	C1147.7,2351.7,1150.4,2364.5,1155.1,2374.9L1155.1,2374.9z"/>
<path class="st0" d="M1339.6,198.7c0.1,15.3-7.9,26.8-18.6,24.9c-4.9-0.9-12.8-8.5-12.2-11.7
	C1311.9,194.6,1325.2,195.8,1339.6,198.7z"/>
<path class="st0" d="M1027.8,2440.1c-8.4,0.4-17.3,2.6-25,0.4c-3.8-1.1-8.2-11.7-6.6-15.8c1.6-4.2,11.7-9.4,15.4-7.8
	c7.2,3,12.5,10.5,18.6,16.1L1027.8,2440.1L1027.8,2440.1z"/>
<path class="st0" d="M595,1716.4c-24.6,1.4-26-0.2-24.6-26.4C590,1685.1,597.3,1692.6,595,1716.4z"/>
<path class="st0" d="M386.8,1001.5c-2.4-20.2,2-29.6,14.1-28.5c3.9,0.3,9.8,7.3,10.4,11.7C413,999,407.6,1002.3,386.8,1001.5
	L386.8,1001.5z"/>
<path class="st0" d="M1095.8,1321.7c1.1,11.9,1.6,18.2,2.4,26.7c-8.9-1.2-18.1-2-26.9-4.1c-2.8-0.7-6.5-4.7-6.6-7.4
	c-0.1-2.7,3-7.2,5.7-8.2C1078.1,1325.8,1086.3,1324.2,1095.8,1321.7L1095.8,1321.7z"/>
<path class="st0" d="M1314.4,1493.2c0-1.1-0.1-2.2-0.1-3.3c-0.1-6-2.5-14.9,0.3-17.2c4.1-3.2,13.7-4,17.8-1.1
	c4.6,3.1,5.7,11.4,8.1,17.6c0.5,1.4-0.2,3.2-0.6,7.6c-8.8-1.4-17.4-2.7-26-4.1L1314.4,1493.2z"/>
<path class="st0" d="M614.5,792.1c6.2,11.4,8.7,22-3.8,27.9c-4.2,2-14.5,9.9-17.7-3.7C589.7,802.6,595,796.3,614.5,792.1z"/>
<path class="st0" d="M1802.8,1573.3c-4.1,14.1-10.3,23.7-23.9,21.4c-4-0.7-10.5-11-9.2-14.6
	C1776,1561.8,1789.7,1571.9,1802.8,1573.3L1802.8,1573.3z"/>
<path class="st0" d="M1284.2,1884.2c-16.1,3.4-26.8-0.4-28.2-16c-0.2-2.7,9.3-8.9,14.3-8.8
	C1287.7,1859.5,1284.7,1872.4,1284.2,1884.2L1284.2,1884.2z"/>
<path class="st0" d="M283.7,1142.3c13-2.1,24.9-4.3,31.6,7.9c1.8,3.3-2.3,13.5-6.4,15.8C297.9,1172,290.7,1165.2,283.7,1142.3
	L283.7,1142.3z"/>
<path class="st0" d="M152.2,1142c13-1.5,25-3.9,31.5,8.5c1.7,3.3-2.7,13.4-6.8,15.5C165.6,1171.8,158.8,1165.2,152.2,1142
	L152.2,1142z"/>
<path class="st0" d="M243.8,1870.1c4.1-21.9,17.4-29.9,30.3-20.7c2.9,2.1,5,6.8,5.4,10.5c0.2,1.7-4.4,5-7.2,5.7
	C263.5,1867.5,254.5,1868.4,243.8,1870.1L243.8,1870.1z"/>
<path class="st0" d="M816.7,2206.1c-8.8,0-17.9,1.4-26.1-0.7c-3.1-0.8-6.7-10.9-5.1-14.8c1.6-4.1,10.7-9.3,13.8-7.9
	c7.6,3.4,13.6,10.4,20.3,15.9C818.5,2201.1,817.6,2203.6,816.7,2206.1L816.7,2206.1z"/>
<path class="st0" d="M358.5,1267.9c-15.6,3.1-26.6,0.1-28.6-15.7c-1.4-10.8,7.6-9.9,14.5-9.6
	C361.9,1243.5,359.2,1255.8,358.5,1267.9z"/>
<path class="st0" d="M1850.2,1673.9c8.7,5.2,17.2,8.2,21.9,14.1c2.6,3.2,0,12.1-2.6,17.2c-0.8,1.6-9.8,0.5-14.2-1.4
	C1842.3,1698.3,1846.8,1688.1,1850.2,1673.9L1850.2,1673.9z"/>
<path class="st0" d="M869.1,1610.6c-15.5,3.2-26.5,0.4-28.7-15.5c-1.4-10.8,7.4-10,14.4-9.7C872.3,1586.1,869.8,1598.4,869.1,1610.6
	L869.1,1610.6z"/>
<path class="st0" d="M1835.3,1749.1c4.5-8.9,8-16.7,12.5-23.9c1.5-2.4,5.9-4.7,8.6-4.2c2.9,0.5,7.7,4.4,7.5,6.4
	c-0.7,7.7-1.5,16.3-5.4,22.6c-1.7,2.6-11.1,0.4-17,0.3C1839.8,1750.2,1838.2,1749.7,1835.3,1749.1L1835.3,1749.1z"/>
<path class="st0" d="M1205.1,1983c-15.5,3.2-26.6,0.4-28.7-15.5c-1.4-10.8,7.4-10,14.4-9.7C1208.3,1958.6,1205.8,1970.9,1205.1,1983
	L1205.1,1983z"/>
<path class="st0" d="M1028.3,1978.4c-3.9,10.9-18.2,17.5-26,10.8c-4-3.5-8-13.5-6-16.2c3.2-4.4,11.9-7.9,17.2-6.8
	c5.7,1.2,10.2,8.2,15.2,12.7C1028.8,1978.9,1028.3,1978.4,1028.3,1978.4L1028.3,1978.4z"/>
<path class="st0" d="M692.4,2746.9c-11.6,4.4-22,12.5-31.1-3c-6-10.2,0.2-14.6,7.8-16.5C683.2,2723.8,689,2732.8,692.4,2746.9
	L692.4,2746.9z"/>
<path class="st0" d="M961.2,1389.6c-20.8,2.2-29.7-2.7-28.3-16.2c0.3-3.3,7.5-8.1,11.9-8.5C959.2,1363.6,962.3,1368.6,961.2,1389.6
	L961.2,1389.6z"/>
<path class="st0" d="M771.6,2397.4c-11.7,4.6-22,12.5-31.1-2.8c-6-10.1-0.2-14.5,7.6-16.6C762.3,2374.3,767.9,2383.5,771.6,2397.4
	L771.6,2397.4z"/>
<path class="st0" d="M287.1,1966c10.9,7.4,20.5,11.1,24.6,18c2.4,4-4.3,13.4-6.3,18.8C281.4,1999.1,286.9,1984.8,287.1,1966z"/>
<path class="st0" d="M541,1419.9c6.7,7.7,13.9,12.4,14.6,18.1c0.5,3.9-8.7,13.4-12,12.7c-7.1-1.4-13.2-7.8-19.8-12.2
	C528.7,1433.3,533.5,1428.1,541,1419.9z"/>
<path class="st0" d="M1246.5,1240.4c8.3,15.5,6.6,27.1-5.6,30.2c-4.1,1-12.3-2.8-14.2-6.6C1221.6,1253.7,1230,1244.5,1246.5,1240.4
	L1246.5,1240.4z"/>
<path class="st0" d="M1905.6,1576.5c0.4-8.6,0.9-18.6,1.4-28.6c5.5,0.5,12.2-0.8,16.1,1.9c3.7,2.6,7.3,11.4,5.6,14.1
	C1924.5,1570.6,1922.3,1582.9,1905.6,1576.5L1905.6,1576.5z"/>
<path class="st0" d="M304.8,800.8c-5,3.3-10.3,6.8-17.5,11.6c-3.7-11.2-7-21-10.3-30.7C291.1,770.8,299.7,776.6,304.8,800.8
	L304.8,800.8z"/>
<path class="st0" d="M386,1911c-0.7-12.4-3.5-25.1,13.9-25.3c4.9-0.1,13.8,4.5,14,7.6C415.4,1907.5,407.8,1912,386,1911z"/>
<path class="st0" d="M1317.9,862c-11.4-10.2,1.4-17.1,7.6-23.5c7.1-7.2,16.3-5.3,22.5,2c1.5,1.8-1.9,10.7-5.2,12.6
	C1335.9,857.1,1327.6,858.7,1317.9,862L1317.9,862z"/>
<path class="st0" d="M1244.9,2435.5c4.9,9.7,7.3,14.4,10,19.6c-5,11.3-14,15.8-25.9,13.1c-2.7-0.6-6.8-6.9-6.3-7.5
	C1229.2,2452.5,1236.4,2444.8,1244.9,2435.5L1244.9,2435.5z"/>
<path class="st0" d="M975.9,1870.4c15.4-17.9,19.4-19.3,30.7-8c2.1,2.1,1.4,10.2-0.9,13.1C997.4,1885.4,988.6,1883.5,975.9,1870.4
	L975.9,1870.4z"/>
<path class="st0" d="M301.8,1953.4c-5.8-7.6-9.9-12.6-13.6-17.8c-2.8-3.9-5.1-8.1-7.6-12.2c4.7-1.7,12.2-6.2,13.7-4.6
	c6.4,6.4,11.9,14.1,15.7,22.3C311.1,1943.3,305,1948.8,301.8,1953.4L301.8,1953.4z"/>
<path class="st0" d="M1178.6,2035.3c-10.9,3-19.9,5.9-29.1,7.5c-1.6,0.3-6.4-7-5.9-7.6c6.7-8.1,14.1-15.7,22.4-24.6
	C1170.4,2019.3,1173,2024.5,1178.6,2035.3z"/>
<path class="st0" d="M1056.9,2731.7c-11.9,2.8-20.5,5.4-29.4,6.6c-1.7,0.2-6.4-7-5.8-7.7c6.7-8.1,14.1-15.6,22.5-24.6
	C1048.7,2715.2,1051.5,2720.9,1056.9,2731.7L1056.9,2731.7z"/>
<path class="st0" d="M1432.6,2042.9c5.1,10.2,7.7,15.5,12.4,25c-10.1,3.1-19,6.2-28.1,8c-1.8,0.3-6.9-6.6-6.5-7.1
	C1416.8,2060.5,1423.9,2052.7,1432.6,2042.9z"/>
<path class="st0" d="M607.7,688.9c8.2,4.3,20.1,6.7,23.3,13.4c2.6,5.4-5.1,15.9-8.2,24.2c-1.9-0.4-3.9-0.8-5.8-1.2
	c-4.6-10.5-9.3-21-13.9-31.5C604.6,692.2,606.1,690.5,607.7,688.9L607.7,688.9z"/>
<path class="st0" d="M1073.3,2408.7c-11.9,2.8-20.5,5.4-29.4,6.6c-1.7,0.2-6.4-7-5.8-7.7c6.7-8.1,14.1-15.6,22.5-24.6
	C1065.2,2392.2,1068,2397.9,1073.3,2408.7L1073.3,2408.7z"/>
<path class="st0" d="M1364.8,714.3c-3.5,9.5-5.8,15.9-8.7,23.7c-10.3-8.2-26.8-9.4-24.5-31.8
	C1343.2,709.1,1353.6,711.6,1364.8,714.3L1364.8,714.3z"/>
<path class="st0" d="M1046.6,2459.8c-10.2,3.2-19,6.4-28.1,8.3c-1.8,0.4-7.1-6.4-6.8-6.9c6.4-8.3,13.4-16.2,21.8-25.9
	C1038.5,2444.5,1041.4,2450,1046.6,2459.8z"/>
<path class="st0" d="M1378.2,778.4c11.6,3.1,21.5,5.7,34.7,9.2c-6,8.8-10.1,14.7-14.1,20.6C1390.1,801.2,1374.4,799.8,1378.2,778.4
	L1378.2,778.4z"/>
<path class="st0" d="M1800.7,1700.1c-8.9-0.5-27.4-21.6-24.5-28.1c1.2-2.7,9.8-5.3,12.2-3.7
	C1804.6,1678.9,1804.4,1679.4,1800.7,1700.1z"/>
<path class="st0" d="M403.8,1456.2c-23.6,1.1-25.5-0.8-24.5-23.3C402.6,1426.8,406.6,1430.4,403.8,1456.2z"/>
<path class="st0" d="M143.1,1471.4c24.6-3.3,26.1-1.8,23.9,23C143.9,1498.6,140.1,1494.8,143.1,1471.4z"/>
<path class="st0" d="M334.7,1348.2c6.9-6.1,11.8-11.2,17.4-15.2c3.9-2.8,8.9-4.2,13.4-6.3c0.1,6.4,2.7,14.5-0.2,18.8
	c-3.8,5.7-12,8.5-19.1,13.1C342.5,1355.3,339.1,1352.2,334.7,1348.2L334.7,1348.2z"/>
<path class="st0" d="M878.1,1879.8c-6.4,7.1-10.1,11.1-13.7,15.2c-5.1-5.8-12.4-10.8-14.7-17.5c-2.7-7.9,2.2-16.6,11.9-14.1
	C867.2,1864.9,871.3,1872.7,878.1,1879.8L878.1,1879.8z"/>
<path class="st0" d="M1247.1,30.3h18.9c8.4,22.7,5.1,31.2-13.8,31.5C1250.6,52.1,1249,42.2,1247.1,30.3L1247.1,30.3z"/>
<path class="st0" d="M96.9,1389c7.6-7.2,12.7-12.6,18.3-17.4c3.3-2.8,7.5-4.5,11.2-6.7c1.7,4.2,6.1,10.6,4.8,12.4
	c-5.6,7.1-12.4,13.7-20.1,18.3C108.8,1397,102.3,1391.6,96.9,1389L96.9,1389z"/>
<path class="st0" d="M1446.6,194.5c-1.7-10.6-3.2-20.5-5-31.8h19C1468.4,184,1465.6,191.8,1446.6,194.5L1446.6,194.5z"/>
<path class="st0" d="M735.6,1705.1c-10.2-3.8-20.4-7.5-31-11.4c3.8-15.6,16.1-17.4,24.8-14.2c5.6,2.1,7.6,14.2,11.2,21.8
	C739,1702.5,737.3,1703.8,735.6,1705.1L735.6,1705.1z"/>
<path class="st0" d="M1318.5,2288.7c-8.6-5.2-17.3-9.9-25.2-15.8c-1.9-1.4-2-9.3-0.8-9.9c4.9-2.5,11.3-5.6,16.2-4.4
	C1321.7,2261.9,1325.8,2278.2,1318.5,2288.7z"/>
<path class="st0" d="M1359.9,1241.2c9.6-5.5,18.2-10.5,28.2-16.3c2.7,6.8,4.9,12.6,7.1,18.3
	C1379.2,1256.5,1368.8,1256.4,1359.9,1241.2z"/>
<path class="st0" d="M1224.6,703.1c5.5-10.7,2.6-26.9,20-26.2c2.1,0.1,6.4,15,4.8,21.8C1245.5,715.4,1234.6,706.1,1224.6,703.1
	L1224.6,703.1z"/>
<path class="st0" d="M1278.7,652.7c7.5-13.9,5.8-29,27.3-30.3c-1.2,10.9-1.1,21.1-4.4,30C1300.8,654.6,1288.8,652.7,1278.7,652.7z"
	/>
<path class="st0" d="M692.3,2181.9c14.8,1.6,9.2,14.9,10.1,22.5c0.5,4.4-8.2,10.1-13.3,14.5c-1,0.8-6-1-7.1-2.8
	c-1.7-2.7-2.9-7.1-1.9-9.7C683.2,2198.4,687.6,2190.9,692.3,2181.9L692.3,2181.9z"/>
<path class="st0" d="M562.6,2725.9c18.4-0.1,14.7,12.7,14.1,19c-0.6,7.5-7.1,14.4-11.6,22.6C542.1,2750.1,571.1,2739.9,562.6,2725.9
	z"/>
<path class="st0" d="M1027.3,1268.7c-14.2-6.3-4.8-17-1.8-23.5c2.2-4.8,12-8.9,18.1-8.5c8.2,0.6,9.8,7.6,3.5,13.9
	C1041.3,1256.6,1034.8,1262,1027.3,1268.7L1027.3,1268.7z"/>
<path class="st0" d="M1198.1,64.1c3,20.7-14.1,19.9-23.3,26.3c-1.4,1-8-5.4-11.9-10.6C1179.5,84.1,1178,48.7,1198.1,64.1z"/>
<path class="st0" d="M1628.9,1990.5c-2.2-6.5-5.9-11.6-4.6-14.3c3.6-7.7,8.6-15.3,14.7-21.2c1.7-1.6,9.2,2.7,14,4.3
	c-2.4,4-4.5,8.3-7.3,12C1641.4,1976.8,1636.6,1981.7,1628.9,1990.5L1628.9,1990.5z"/>
<path class="st0" d="M421.5,911.3c-2.5,2.9-5.3,6.1-5.6,6.4c-10.9-2.2-18.6-3.3-26-5.3c-2.7-0.7-7.3-4.4-7-4.9
	c1.8-3.9,4-9.8,7.1-10.5C402.5,894.3,415.5,892.8,421.5,911.3L421.5,911.3z"/>
<path class="st0" d="M227.1,801.5c-5.3,8.9-10.4,11.3-18.1,3.6c-2.3-2.3-7.6-1.4-11.4-2.7c-3.3-1.1-6.4-3-9.6-4.6
	c2.8-3.3,5-8.8,8.4-9.7C209.4,784.7,221.6,785.4,227.1,801.5L227.1,801.5z"/>
<path class="st0" d="M1422.9,1535.6c-13.7-4.8-6.6-15.9-2.6-22.2c3.4-5.3,12.7-10,19-9.6c8.1,0.6,9.3,7.9,2.9,14.2
	C1436.2,1523.8,1429.9,1529.3,1422.9,1535.6L1422.9,1535.6z"/>
<path class="st0" d="M523.6,1070.8c-14.8-5.1-5.4-15.7-2.6-21.7c2.4-5.1,10.8-8,17.2-10.4c1.8-0.7,7.3,3.2,7.9,5.8
	c0.7,2.7-1.8,7-4.1,9.5C536.7,1059.6,530.6,1064.6,523.6,1070.8L523.6,1070.8z"/>
<path class="st0" d="M1054.2,1611.4c-14.3-5.1-6.7-16.2-2.7-22.5c3.4-5.3,12.6-6.8,19.3-10c1.2,4.7,4.9,11.2,3.1,13.6
	C1068.7,1599.6,1061.3,1604.9,1054.2,1611.4L1054.2,1611.4z"/>
<path class="st0" d="M640.4,2414.5c-2.4-2.3-0.8-16.6,4.7-43c5,7.6,8.8,11.4,10.2,15.9C659.4,2400.9,656.4,2411.4,640.4,2414.5z"/>
<path class="st0" d="M1475.8,2023.2c-14.9-4.5-5.8-15.2-2.9-21.3c2.4-5.2,10.7-8.3,16.9-10.8c1.9-0.8,7.5,2.9,8.2,5.5
	c0.8,2.6-1.5,7.1-3.8,9.6C1488.9,2011.9,1482.8,2016.8,1475.8,2023.2L1475.8,2023.2z"/>
<path class="st0" d="M648.1,1149.2c-2.5-5.2-7-10.5-5.8-12.8c4.1-8,9.6-15.6,16-21.8c1.5-1.4,8.8,3.2,13.5,5.1
	c-2.3,3.7-4.3,7.6-7,10.9C660.3,1135.9,655.5,1140.8,648.1,1149.2L648.1,1149.2z"/>
<path class="st0" d="M1014,1035.3c0.7-3.3,0-10.5,2.9-12.7c15-11,22.2,6.2,34.9,9.2c-4.2,9-4.8,18.6-16.9,9.3
	C1030.6,1037.7,1023.7,1037.8,1014,1035.3L1014,1035.3z"/>
<path class="st0" d="M890,2711.7c-12-4.8-20.5-8.3-31.8-12.8c2.5-3.8,5.2-11.7,7.9-11.7c9.5,0.1,22.3-3.8,26.3,9.8
	C893.8,2701.6,890.8,2707.7,890,2711.7L890,2711.7z"/>
<path class="st0" d="M1383.3,191.6c1.8,0.8,5.7,2.5,12.6,5.5c-4.7,6.9-7.5,15.7-13.2,18.4c-7.3,3.5-19.1,16.3-24.1-2.8
	C1365.9,206.4,1373.4,200,1383.3,191.6L1383.3,191.6z"/>
<path class="st0" d="M1367.1,1924.4c-15-4.5-5.7-15.3-2.9-21.3c2.4-5.2,10.7-8.2,17-10.8c1.9-0.8,7.4,3,8.2,5.5
	c0.8,2.7-1.5,7.1-3.8,9.5C1380.2,1913,1374.1,1918,1367.1,1924.4L1367.1,1924.4z"/>
<path class="st0" d="M582.3,1567.1c-8.3-7.6-14.1-12.5-19.5-17.9c-2.5-2.5-6.3-7.8-5.6-8.6c2.8-3.3,9.2-8.3,10.3-7.4
	c7.5,5.8,14.6,12.4,20.2,20.1C589.2,1555.2,584.5,1561.7,582.3,1567.1L582.3,1567.1z"/>
<path class="st0" d="M160.1,1120.6c-10.4-3.6-19.7-6.8-31.2-10.8c-0.2-0.7-1.6-4.7-3.7-10.7c4.4-1.6,9-4.4,13.8-4.6
	C152.5,1094.1,160.7,1104.2,160.1,1120.6L160.1,1120.6z"/>
<path class="st0" d="M370.2,1453c-4,4.9-6.7,8.2-7.4,9c-7.6-5.7-14.1-9.8-19.7-15c-3-2.8-4.3-7.4-6.4-11.2
	c5.2-1.2,12.5-5.2,15.4-3.1C358.9,1437.6,363.7,1445.4,370.2,1453L370.2,1453z"/>
<path class="st0" d="M1113.3,1984.6c-14.9,15.7-30,16.1-38.4,3.6c-1.8-2.7,1.9-9.1,3.1-13.8
	C1088.9,1977.5,1099.8,1980.7,1113.3,1984.6z"/>
<path class="st0" d="M1692.4,675.5c8.9-4.1,17.7-8.1,27.2-12.5c3.9,8,6.4,13.1,8.9,18.1C1706.5,692.3,1699.9,691.6,1692.4,675.5z"/>
<path class="st0" d="M741.7,1407.3c-9.5-9.1-15.2-14.1-20.5-19.6c-2.5-2.5-6.5-7.6-6-8.3c2.7-3.3,8.9-8.5,10-7.7
	c7.1,5.3,14.2,11.3,19.2,18.5C746.5,1392.9,743.2,1399.4,741.7,1407.3z"/>
<path class="st0" d="M665.8,1706.6c-6,10.8-11.2,13.2-17.3,2.2c-1.7-2.9-5.5-4.5-7.6-7.3c-2.9-3.7-5.2-8-7.7-12
	c6-0.4,13.6-3.3,17.8-0.7C657.1,1692.6,660.8,1700.2,665.8,1706.6L665.8,1706.6z"/>
<path class="st0" d="M526.3,1323.2c-8.3-7.7-14.1-12.6-19.5-18c-2.5-2.5-6.3-7.7-5.6-8.5c2.8-3.3,9.2-8.3,10.3-7.5
	c7.5,5.8,14.6,12.4,20.2,20C533.1,1311.3,528.6,1317.7,526.3,1323.2z"/>
<path class="st0" d="M1192,2409.3c-14.3,16.5-30.7,16.7-38.5,3.3c-1.6-2.8,1.9-8.6,3-13C1167.4,2402.6,1178.4,2405.6,1192,2409.3
	L1192,2409.3z"/>
<path class="st0" d="M461.3,1275.8c2.4-5.2,4.8-10.4,7.2-15.6c9.2,5.8,18.5,11.7,30.9,19.6c-7.3,6.9-10.6,10.1-11.9,11.3
	c-10.5-6.2-18.6-11-26.7-15.8L461.3,1275.8L461.3,1275.8z"/>
<path class="st0" d="M569.1,1280.3c-8.3-7.6-14.1-12.5-19.5-17.9c-2.5-2.5-6.3-7.8-5.6-8.6c2.8-3.3,9.2-8.3,10.3-7.4
	c7.5,5.8,14.6,12.4,20.2,20.1C576,1268.5,571.4,1274.9,569.1,1280.3L569.1,1280.3z"/>
<path class="st0" d="M1180.4,661.8c-4.2-4.1-8.5-8.1-12.4-12.5c-2.1-2.3-3.6-5.3-5.1-8.1c-1.9-3.5-3.5-7.2-5.3-10.8
	c5.1,0.2,11-1.2,15,1c14,7.8,13.7,8.2,12.4,25.7L1180.4,661.8L1180.4,661.8z"/>
<path class="st0" d="M1104,1841.7c-6,10.8-11.2,13.2-17.3,2.2c-1.7-2.9-5.5-4.5-7.6-7.3c-2.9-3.7-5.2-8-7.7-12
	c6.1-0.4,13.6-3.3,17.8-0.7C1095.2,1827.7,1098.9,1835.3,1104,1841.7L1104,1841.7z"/>
<path class="st0" d="M1719.2,747.2c-5.2,11.7-9,20-13.9,31c-2.4-1.3-11.1-3.8-11-6c0.4-9.6-4.3-22.5,9.2-27
	C1708.2,743.6,1714.4,746.5,1719.2,747.2L1719.2,747.2z"/>
<path class="st0" d="M1072.2,1868.7c-4.7,4.4-7.8,7.3-8.4,7.9c-7-5.1-13.6-9.2-19.2-14.4c-3-2.8-4.2-7.5-6.2-11.3
	c5.3-1.1,12.5-5,15.4-2.8C1060.6,1853,1065.5,1860.8,1072.2,1868.7L1072.2,1868.7z"/>
<path class="st0" d="M981.5,2409.9c-15,15.6-30.2,15.9-38.5,3.4c-1.8-2.7,2-9.1,3.2-13.8C957.2,2402.7,968.1,2405.9,981.5,2409.9
	L981.5,2409.9z"/>
<path class="st0" d="M1240.5,605.3c-8.8,2.7-15,2-16.8-8.5c-0.6-3.3-4.2-6-6-9.2c-1.7-3.1-2.8-6.5-4.2-9.7c4.2-0.6,9.3-2.9,12.6-1.5
	C1237.9,581.6,1246,589.7,1240.5,605.3L1240.5,605.3z"/>
<path class="st0" d="M1357.3,1773.4c2.4-5.2,4.8-10.4,7.2-15.6c9.2,5.8,18.4,11.7,30.9,19.6c-7.2,6.9-10.6,10.1-11.9,11.3
	c-10.5-6.2-18.6-11-26.7-15.8L1357.3,1773.4L1357.3,1773.4z"/>
<path class="st0" d="M1326,1878.6c-4.9,4.6-8,7.4-9.7,8.9c-6.7-5.5-13-10-18.3-15.4c-2.8-2.9-3.9-7.6-5.8-11.5
	c5.3-1,12.4-4.6,15.5-2.5C1314.5,1863,1319.3,1870.8,1326,1878.6L1326,1878.6z"/>
<path class="st0" d="M1592.6,1549.2c-4.4,8.6-13.9,8.1-18.7-0.3c-4.2-7.3-2.3-18.1-3.2-27.3c4.4,1.1,10.9,0.8,12.8,3.6
	C1587.5,1531.3,1589,1539,1592.6,1549.2L1592.6,1549.2z"/>
<path class="st0" d="M1479.3,2267.4c-8.4-2.8-16.1-4.6-23-7.9c-3-1.4-7-7.5-6.2-8.9c2.3-3.8,6.4-7.9,10.6-8.9
	C1471.1,2239,1482.3,2253.1,1479.3,2267.4L1479.3,2267.4z"/>
<path class="st0" d="M1251.8,424.3c-0.1,0.1,2.2-2.8,4.4-5.6c6.2,6.1,13.4,11.5,17.7,18.7c1.2,1.9-6.6,13.4-10.1,13.2
	C1250.2,450.2,1251.6,438.7,1251.8,424.3L1251.8,424.3z"/>
<path class="st0" d="M1174,214.3c14.9,8.7,20,17.4,12.3,25.2c-4.3,4.4-12.8,18.9-19.9,7.5C1162.5,240.8,1170.6,227.2,1174,214.3z"/>
<path class="st0" d="M1202.6,469.5c5.4,6.8,12.2,12.9,15.3,20.6c1.2,2.8-6.7,13.4-10.1,13.3c-15.1-0.8-11.6-13.8-12.3-23.4
	c-0.2-3,1.3-6.2,2.1-9.3C1199.2,470.3,1200.9,469.9,1202.6,469.5z"/>
<path class="st0" d="M818.1,1681.7c-11.7-3.2-21.3-5.8-30.4-8.2c-0.5-14.5,7.5-18.1,17.6-15.2
	C815.5,1661.1,823.5,1667.5,818.1,1681.7z"/>
<path class="st0" d="M148.7,663.5c-1.7,1.8-7,8.4-7.8,7.9c-8.4-5.5-16.2-12-24.1-18.2c4.1-2.4,7.9-6.2,12.2-6.9
	C139.4,644.6,147.4,647.9,148.7,663.5L148.7,663.5z"/>
<path class="st0" d="M338.3,782.8c-6.3-4-11.5-6-15-9.7c-4.2-4.3-6.9-10-10.3-15c6.6-1,14.2-4.6,19.4-2.3c4.8,2.2,7.5,10.2,9.9,16.1
	C343.1,773.9,340.3,777.5,338.3,782.8z"/>
<path class="st0" d="M832.6,932.7c-9.1-1.6-17.1-2.3-24.6-4.7c-3-1-7.3-6.4-6.8-8.5c1-3.8,5-8.5,8.6-9.4
	C823.1,906.6,832.2,915.5,832.6,932.7L832.6,932.7z"/>
<path class="st0" d="M519.5,986.1c-11.6-2.9-21.7-5.4-31.6-7.9c-0.2-12.5,4.9-18,15.8-15.7C514.6,964.9,522.2,970.7,519.5,986.1z"/>
<path class="st0" d="M730.4,1243.5c-12.1-3.2-22.1-5.8-31.9-8.3c0.1-12.9,5.7-17.8,16.3-15.5C726.2,1222,732.5,1228.7,730.4,1243.5
	L730.4,1243.5z"/>
<path class="st0" d="M974.1,1289.6c-12-3.2-22.1-5.8-31.8-8.3c0.1-12.9,5.7-17.8,16.3-15.5C969.9,1268.2,976.3,1274.8,974.1,1289.6
	L974.1,1289.6z"/>
<path class="st0" d="M900.4,1367.6c-7.8-1.4-15.8-2.1-23.3-4.5c-3-1-6.9-5.8-6.8-8.7c0.2-3.3,3.8-8,7-9.2
	C891,1340.1,902.8,1351.6,900.4,1367.6L900.4,1367.6z"/>
<path class="st0" d="M522.8,1428.1c-12.3-3.3-22.2-6-31.8-8.5c-0.1-13.8,6.5-17.6,16.7-15.4C519,1406.7,525.2,1413.6,522.8,1428.1z"
	/>
<path class="st0" d="M1105.8,1467.4c-11.7-3-21.8-5.6-31.7-8.1c0-12.6,5.2-17.9,16-15.6C1101.2,1446.1,1108.4,1452.2,1105.8,1467.4
	L1105.8,1467.4z"/>
<path class="st0" d="M1376.9,1448.6c12.3,12.3,3,20.9-2.6,26.7c-3.5,3.7-13.1,1.6-20,2.1c-1-2.4-1.9-4.8-2.9-7.3
	C1359.6,1463.2,1367.8,1456.3,1376.9,1448.6L1376.9,1448.6z"/>
<path class="st0" d="M972,1475.8c0.1-13.6,6.3-17.8,16.6-15.6c11.3,2.5,17.3,9.4,15.4,23.7C992.3,1481,981.9,1478.3,972,1475.8
	L972,1475.8z"/>
<path class="st0" d="M743.6,1530.3c-12.2-3.2-22.2-5.9-31.9-8.5c0.1-13.1,6-17.7,16.5-15.4C739.5,1508.8,745.7,1515.6,743.6,1530.3
	L743.6,1530.3z"/>
<path class="st0" d="M1573.1,807.3c-7.4,8.2-14.3,15.7-21.2,23.2c-14.4-6.7-9.5-16.4-3.8-24.8C1554.4,796.5,1562.5,798,1573.1,807.3
	L1573.1,807.3z"/>
<path class="st0" d="M1379.2,1543.2c-11.7-2.9-21.8-5.4-31.7-7.9c-0.2-12.5,4.9-18,15.8-15.7
	C1374.4,1521.9,1381.8,1527.8,1379.2,1543.2L1379.2,1543.2z"/>
<path class="st0" d="M117,1519.1c16.6,11,19.3,19.6,7.8,28.1c-4.6,3.4-11.4,3.8-17.2,5.5C110.5,1542.5,113.4,1532.1,117,1519.1z"/>
<path class="st0" d="M1153.1,2009.7c-7.7,4-15.3,8.2-23.1,11.9c-1.9,0.9-5.9,0.9-6.8-0.3c-1.8-2.2-3.6-6.8-2.5-8.4
	c3.7-5.6,7.9-13.1,13.3-14.7c5.6-1.6,12.9,3.1,19.4,5.1C1153.3,2005.4,1153.2,2007.6,1153.1,2009.7L1153.1,2009.7z"/>
<path class="st0" d="M1426.7,1466.7c6.9,7.5,13.8,15,20.7,22.5c-8.6,10.7-16.7,11.6-23.8,2.4
	C1417.2,1483.3,1411.8,1473.8,1426.7,1466.7L1426.7,1466.7z"/>
<path class="st0" d="M1103.7,1393.4c-7.7,4-15.3,8.2-23.1,11.9c-1.9,0.9-5.9,0.9-6.8-0.3c-1.8-2.2-3.6-6.8-2.5-8.4
	c3.7-5.6,7.9-13.1,13.3-14.7c5.6-1.6,12.9,3.1,19.4,5.1C1103.9,1389.1,1103.8,1391.3,1103.7,1393.4L1103.7,1393.4z"/>
<path class="st0" d="M1374.2,1187.5h31.7c2.9,15.3-7.1,17.9-17.7,18.7C1374.7,1207.1,1373.5,1198,1374.2,1187.5L1374.2,1187.5z"/>
<path class="st0" d="M818.6,1636.3c-8.6,4.5-15.6,8.7-23,11.9c-2.7,1.2-8.3,1.2-9.2-0.3c-1.6-2.4-1.5-7.2-0.2-10
	C794.2,1621.3,803.9,1620.2,818.6,1636.3L818.6,1636.3z"/>
<path class="st0" d="M1184.9,962.2h-32.1c1.6-11.1,2.8-20.7,15.7-19.4C1178.6,943.9,1188.3,946.6,1184.9,962.2L1184.9,962.2z"/>
<path class="st0" d="M307,1293.6c-7.9,4.4-15.6,8.9-23.7,12.9c-1.8,0.9-5.9,0.7-6.8-0.6c-1.7-2.3-3.4-6.8-2.3-8.5
	c3.7-5.6,8-13,13.4-14.5c5.5-1.5,12.8,3.2,19.3,5.2C306.9,1290,307,1291.8,307,1293.6L307,1293.6z"/>
<path class="st0" d="M536.9,1732.8c-10,2.6-20.3,5.2-31.5,8.1c-4.4-16.1,6-20.5,16.3-23.4C531.8,1714.7,536.4,1720.6,536.9,1732.8
	L536.9,1732.8z"/>
<path class="st0" d="M1495.7,1973.5c-7.7,4-15.3,8.2-23.1,11.9c-1.9,0.9-5.9,0.9-6.8-0.3c-1.8-2.2-3.6-6.8-2.5-8.4
	c3.7-5.6,7.9-13.1,13.3-14.7c5.6-1.6,12.9,3.1,19.4,5.1C1495.9,1969.2,1495.8,1971.3,1495.7,1973.5L1495.7,1973.5z"/>
<path class="st0" d="M1190.7,1244.9c-6.5,3.4-13.6,10.4-19.3,9.4c-9-1.5-18.6-7.4-13.7-21.7c10.5,1.6,21,3.2,31.5,4.8
	C1189.7,1239.9,1190.2,1242.4,1190.7,1244.9L1190.7,1244.9z"/>
<path class="st0" d="M1799.4,1752.3c3.9-6.2,7-13.1,11.9-18.2c2.9-3,8.7-3.2,13.2-4.6c0.2,6.8,3.3,16.5,0,19.8
	c-5.2,5.2-14.7,6.1-22.3,8.8C1801.3,1756.2,1800.4,1754.2,1799.4,1752.3L1799.4,1752.3z"/>
<path class="st0" d="M688.2,1609.8c10.2-3.3,20.3-6.5,32.4-10.3c0.8,11.9,2.7,20.4-10.1,22.2C700.8,1623,690.3,1626.7,688.2,1609.8
	L688.2,1609.8z"/>
<path class="st0" d="M847.8,2755.6c4.5,17.1-0.8,24.1-12,22.2c-6.7-1.2-12.3-8.5-18.5-13.1C827.3,2761.6,837.4,2758.7,847.8,2755.6
	L847.8,2755.6z"/>
<path class="st0" d="M856.7,2216.8c11-1,21.2-1.9,30.9-2.8c3.9,12.4,1.2,20.1-10,20.2C868.1,2234.3,857.7,2232.3,856.7,2216.8z"/>
<path class="st0" d="M465.2,1951.6c-9.5-5.3-18.6-10.4-27.7-15.5c0.2-2.3,0.3-4.5,0.5-6.8c7.8-0.8,18.1-4.9,22.8-1.4
	C466.1,1931.7,478.1,1940.6,465.2,1951.6L465.2,1951.6z"/>
<path class="st0" d="M795.8,2533.6c3.1,13.3,0,19.4-10.3,20.6c-9.7,1.1-17.7-5.3-20.5-17.7C775.5,2535.5,785.7,2534.6,795.8,2533.6z
	"/>
<path class="st0" d="M495.1,1510.7c13.6-12.9,17.9-12,34.2,7.2C512.6,1530.6,511.1,1530.3,495.1,1510.7L495.1,1510.7z"/>
<path class="st0" d="M1128.8,2233.5c6.8-7.5,13.6-14.9,21-23c10.9,10.3,7.4,20.3,0.3,27.5c-3.7,3.7-12.4,2.3-18.9,3.1
	C1130.4,2238.6,1129.6,2236,1128.8,2233.5L1128.8,2233.5z"/>
<path class="st0" d="M822.3,2145.3c6.6-7.6,13.2-15.2,20.4-23.5c12.4,8.6,7.8,18.7,2.2,26.6C838.6,2157.1,830.5,2155,822.3,2145.3z"
	/>
<path class="st0" d="M776.2,2339.3c6.7-7.6,13.5-15.1,20.8-23.5c11.4,9.9,7.4,20,0.8,27.3c-3.5,3.8-12.3,2.7-18.8,3.8
	C778.2,2344.4,777.2,2341.9,776.2,2339.3L776.2,2339.3z"/>
<path class="st0" d="M1098.9,2138.6c6.7-7.6,13.4-15.2,20.7-23.5c12.2,9,7.4,19.3,1.4,26.6c-3.2,3.9-12.3,3.1-18.7,4.5
	L1098.9,2138.6L1098.9,2138.6z"/>
<path class="st0" d="M697.7,2689.7c2.9-4.4,5.3-9.1,8.7-13c3.3-3.8,7.7-6.6,12.5-10.5c10.7,8.7,6.3,18.9,0,26.2
	c-3.3,3.9-12.3,2.9-18.7,4.1C699.4,2694.2,698.6,2691.9,697.7,2689.7L697.7,2689.7z"/>
<path class="st0" d="M986.8,2033.2c6.9-7.8,13.9-15.6,21.3-23.9c10.9,10.6,7.3,20.6,0.1,27.7c-3.7,3.6-12.5,2-19,2.8
	C988.4,2037.6,987.6,2035.4,986.8,2033.2L986.8,2033.2z"/>
<path class="st0" d="M1123.8,721.6c0.9-13.1,14.9-23.5,24.1-18.5c3.7,2,6.7,7.1,7.6,11.3c0.4,1.7-5.6,6.3-9.1,6.9
	C1139.4,722.4,1132.2,721.6,1123.8,721.6L1123.8,721.6z"/>
<path class="st0" d="M1832.4,1548c-1.5-8.6-3.1-17.2-4.3-25.8c-0.3-2,0.2-5.6,1.2-5.9c2.6-0.8,7.2-1.4,8.2,0
	c4.1,5.7,9.2,12,9.7,18.4c0.4,4.6-5.8,9.8-9.1,14.8C1836.2,1549,1834.3,1548.5,1832.4,1548L1832.4,1548z"/>
<path class="st0" d="M1305.7,1547.8c7.5-15.4,18.1-16.4,34.6-3.2C1326.7,1563.6,1328.4,1559.6,1305.7,1547.8z"/>
<path class="st0" d="M1171.4,795.8c-5.9-16.2,6.1-18.2,12.8-19.7c5.8-1.3,13.1,3.7,19.7,5.8c-0.3,2.8-0.6,5.6-0.9,8.4
	C1192.7,792.1,1182.4,793.8,1171.4,795.8L1171.4,795.8z"/>
<path class="st0" d="M1170.6,669.7c-6.8,5.6-12.4,11.4-13.2,10.7c-7.4-5.5-14.1-12-20.4-18.8c-0.5-0.5,4.6-7.7,5.1-7.5
	C1150.6,658.4,1158.9,663.2,1170.6,669.7L1170.6,669.7z"/>
<path class="st0" d="M1471.6,751.7c-10.1,4.3-14.9,8.1-19.4,7.9c-6.6-0.4-13-3.6-19.4-5.9c-0.3-0.1,0.3-5.1,1.2-5.4
	c7.9-2.3,16-4.7,24.1-5.5C1461,742.5,1464.3,746.7,1471.6,751.7L1471.6,751.7z"/>
<path class="st0" d="M521.3,1851.9c0.3-19.3,4.8-21.9,28.6-17.5C548.9,1853.1,536.1,1852.8,521.3,1851.9z"/>
<path class="st0" d="M470.5,1633.6c-12.5-2.9-25.1-5.3-26-22.5C475.2,1614.1,477.5,1616.1,470.5,1633.6z"/>
<path class="st0" d="M723,1751.4c-10-16.3-0.5-24.8,9.8-33.3C746.1,1731,745.5,1733.3,723,1751.4z"/>
<path class="st0" d="M316.9,1020.3c-26.9,3-32.4,0.6-32.5-14.4C296.6,1006.5,311.7,999.1,316.9,1020.3z"/>
<path class="st0" d="M735.1,1551.1c-27.2,2.7-32.4,0.3-32.2-14.7C715.1,1537.3,730.3,1529.6,735.1,1551.1z"/>
<path class="st0" d="M995.4,1725.7c-27.1,2.8-32.4,0.4-32.3-14.6C975.2,1711.9,990.4,1704.3,995.4,1725.7z"/>
<path class="st0" d="M224.5,1208.3c-27.2,2.7-32.4,0.2-32.1-14.8C204.5,1194.6,219.8,1186.8,224.5,1208.3z"/>
<path class="st0" d="M1380.6,1872c13.4,1.8,29.4-6.3,32.8,14.9C1388.2,1890.6,1382,1888,1380.6,1872z"/>
<path class="st0" d="M823.2,2606.3c-1.9,6.1-2.5,13.2-6.1,18c-3.2,4.2-9.6,6.2-14.9,8.4c-0.7,0.3-5.1-4.6-4.6-5.6
	c2.7-5.8,5.9-11.6,10-16.6c2.2-2.6,6.5-3.5,9.9-5.1C819.5,2605.6,821.3,2606,823.2,2606.3L823.2,2606.3z"/>
<path class="st0" d="M1034,2606.2c-1.9,6.1-2.4,13.2-6,18c-3.2,4.2-9.6,6.2-14.9,8.4c-0.7,0.3-5.1-4.6-4.6-5.6
	c2.7-5.8,5.9-11.7,10-16.6c2.2-2.6,6.6-3.5,9.9-5.1C1030.2,2605.6,1032.1,2605.9,1034,2606.2L1034,2606.2z"/>
<path class="st0" d="M816.7,2665.7c-1.9,6.1-2.5,13.1-6.2,17.9c-3.2,4.2-9.6,6.1-14.9,8.3c-0.7,0.3-5-4.6-4.6-5.6
	c2.8-5.8,6-11.6,10.1-16.5c2.2-2.6,6.5-3.5,9.9-5.1C812.9,2665,814.8,2665.3,816.7,2665.7L816.7,2665.7z"/>
<path class="st0" d="M1221.8,2214c-1.9,6.1-2.4,13.2-6,18c-3.2,4.2-9.6,6.2-14.9,8.4c-0.7,0.3-5.1-4.6-4.6-5.6
	c2.7-5.8,5.9-11.7,10-16.6c2.2-2.6,6.6-3.5,9.9-5.1C1218,2213.4,1219.9,2213.7,1221.8,2214L1221.8,2214z"/>
<path class="st0" d="M639.5,680.9c4.3-11.7,8.1-22.2,12-32.6C664.4,675.5,662.1,681.7,639.5,680.9z"/>
<path class="st0" d="M373.6,633c15.9,23.8,15.9,24.8,0.8,36.1C367.8,657.4,360.2,646.3,373.6,633z"/>
<path class="st0" d="M833.1,2876.5c-1.9,6.1-2.4,13.2-6,18c-3.2,4.2-9.6,6.2-14.9,8.5c-0.7,0.3-5.1-4.6-4.7-5.6
	c2.7-5.8,5.9-11.7,10-16.6c2.2-2.6,6.5-3.5,9.9-5.1L833.1,2876.5L833.1,2876.5z"/>
<path class="st0" d="M179.3,524c6.7,12.7,21.3,23.7,1.3,37C173.5,549,165.7,538,179.3,524z"/>
<path class="st0" d="M1109,2515.8c13.1-9.1,21.5-12.2,26.3,0.2c1.8,4.5-0.2,10.4-0.5,15.7C1126.9,2526.9,1119.1,2522.1,1109,2515.8
	L1109,2515.8z"/>
<path class="st0" d="M1126.7,2085.8c-10.2,4.8-18.7,15.3-28.3,2.6c-1.3-1.8,1.9-10.5,4.4-11.2
	C1111.5,2074.9,1123.1,2067.8,1126.7,2085.8L1126.7,2085.8z"/>
<path class="st0" d="M1172.5,1983.4c-8.5,1-16.9,2.3-25.4,2.4c-1.2,0-4.2-8.5-3.4-9.1c4.9-3.6,10.6-8,16.2-8.2
	c4.6-0.2,9.4,5,14.2,7.8C1173.5,1978.7,1173,1981.1,1172.5,1983.4L1172.5,1983.4z"/>
<path class="st0" d="M1905.2,1849.3c-14.3-6.6-15.4-9.2-13.1-28.7C1909.8,1819.7,1910.7,1821.6,1905.2,1849.3z"/>
<path class="st0" d="M1417.7,1330.4c-22.7-10.5-23-11.1-14.2-26.7C1423,1310.3,1425.7,1315.3,1417.7,1330.4z"/>
<path class="st0" d="M1268.4,2286.4c-9.9,5.4-18.2,15.3-28.2,3.4c-1.5-1.7,1.4-10.8,3.8-11.4
	C1252.7,2275.8,1264,2269.1,1268.4,2286.4L1268.4,2286.4z"/>
<path class="st0" d="M837.2,2741.2c-10.3,5.2-18.6,15.5-28.5,3.3c-1.5-1.8,1.5-10.7,3.9-11.4
	C821.4,2730.3,832.4,2724.5,837.2,2741.2L837.2,2741.2z"/>
<path class="st0" d="M1239.1,2190.8c-10.3,5.2-18.6,15.5-28.5,3.3c-1.4-1.8,1.5-10.7,3.9-11.4
	C1223.2,2179.9,1234.3,2174.1,1239.1,2190.8L1239.1,2190.8z"/>
<path class="st0" d="M864.3,823.2c-6.7-24.8,13.2-16.7,23.1-20.3C889.3,817.1,883,822.9,864.3,823.2z"/>
<path class="st0" d="M810.5,1056.3c-0.7,17.4-11.6,20.4-24.5,21.7C777.3,1052.8,797.6,1059.8,810.5,1056.3z"/>
<path class="st0" d="M995.2,1098.8c-1.3,17.8-11.9,20.9-25.1,21.6C962.5,1095.2,982.6,1102.8,995.2,1098.8z"/>
<path class="st0" d="M1144.1,1324.4c-0.7-11,7-18,23.1-21.1C1169.5,1317.9,1163.5,1323.6,1144.1,1324.4z"/>
<path class="st0" d="M1031.2,1158.5c-0.7,17.4-11.6,20.4-24.5,21.7C998,1155,1018.3,1161.9,1031.2,1158.5z"/>
<path class="st0" d="M693.1,938.7c-6.9-24.8,13-16.9,23-20.5C718.2,932.3,712.1,938,693.1,938.7z"/>
<path class="st0" d="M219,1631.2c-16.2-2.2-19.7-14-9.1-29.1C225.2,1607.2,223.9,1618.1,219,1631.2z"/>
<path class="st0" d="M762.4,1133.3c-7.2-24.6,12.5-17.3,22.7-20.7C787.6,1126.5,781.7,1132.2,762.4,1133.3z"/>
<path class="st0" d="M958.9,1237.3c-1.3,17.8-11.9,20.9-25.1,21.6C926.2,1233.7,946.3,1241.3,958.9,1237.3z"/>
<path class="st0" d="M551.5,876.2c-7-24.8,12.9-17.1,22.9-20.6C576.6,869.6,570.6,875.3,551.5,876.2z"/>
<path class="st0" d="M1411,1432.3c-6.7-24.2,13.2-16.3,23.7-19.8C1435.4,1427.8,1428.8,1433.3,1411,1432.3z"/>
<path class="st0" d="M1060.4,1352.9c0.3,17.5-10.9,20.3-24.1,21.8C1027.9,1350.6,1047.2,1355.9,1060.4,1352.9z"/>
<path class="st0" d="M1937.9,1492.9c3.3-13.1,7.6-24,23.8-22.4C1956.6,1497.1,1955.1,1498.5,1937.9,1492.9z"/>
<path class="st0" d="M453.6,1561.6c2.2,9.4,4.4,18.8,6.5,28.2c-1.8,1.1-3.6,2.2-5.4,3.4c-3.8-2.4-10.1-4.3-10.8-7.4
	c-1.6-7.4-0.5-15.4-0.5-23.2C446.8,1562.3,450.2,1561.9,453.6,1561.6L453.6,1561.6z"/>
<path class="st0" d="M1305,444.3c-0.8-11.9-2.9-23,11.7-25.3c2.1-0.3,7.1,4.7,7.1,7C1323.4,436.8,1320.9,446.8,1305,444.3
	L1305,444.3z"/>
<path class="st0" d="M1452.9,435.5c19.3,1.1,19.7,1.9,14.3,25.9C1448.7,460.7,1453.4,447.4,1452.9,435.5z"/>
<path class="st0" d="M1357,1577c9.1-1.8,18.3-3.7,27.4-5.5c-2.8,5.4-4.6,11.8-8.6,16.1C1367,1597.5,1362.3,1588.7,1357,1577
	L1357,1577z"/>
<path class="st0" d="M1272.9,329.9c-19-1.5-13.5-14.6-14.4-24.7C1276.9,302.9,1278.2,305,1272.9,329.9z"/>
<path class="st0" d="M1572.5,1598.2c-7.1,4.6-13.9,9.6-21.4,13.3c-2.1,1-6.2-2-9.3-3.1c1.6-3.4,2.3-8.8,4.9-9.9
	c7.1-3,14.9-4.3,22.5-6.2C1570.3,1594.3,1571.4,1596.2,1572.5,1598.2L1572.5,1598.2z"/>
<path class="st0" d="M1523.9,2164.4c-4.9-11.7,2.6-19.7,22.6-24.1c1,1.2,1.9,2.4,2.9,3.6C1541.2,2150.5,1533.1,2157.1,1523.9,2164.4
	L1523.9,2164.4z"/>
</svg>
