<?xml version="1.0" encoding="UTF-8"?><svg id="Layer_1" xmlns="http://www.w3.org/2000/svg" viewBox="0 0 1951.34 2963"><defs><style>.cls-1{fill:#fff;}</style></defs><path class="cls-1" d="M1951.34,2963H0V0H1951.34V2963Zm-657.71-1751.36c0-16.95,.45-33.01-.16-49.03-.41-10.77-2.45-21.47-3.55-32.22-2.17-21.25-4.1-42.53-6.31-63.77-2.45-23.53-5.26-47.01-7.65-70.55-1.63-16.06-2.56-32.19-4.24-48.24-3.09-29.41-6.72-58.76-9.71-88.18-2.36-23.25-4-46.57-6.25-69.83-.2-2.03-2.47-5.51-3.79-5.52-6.54-.04-13.1,.72-19.62,1.47-21.85,2.51-43.66,5.35-65.52,7.67-21.92,2.33-43.92,3.94-65.84,6.3-28.07,3.02-56.07,6.72-84.15,9.67-22.91,2.41-45.93,3.8-68.84,6.25-33.95,3.64-67.82,8.08-101.77,11.72-35.57,3.81-71.19,7.07-106.82,10.57-5.16-57.9-10.33-115.86-15.61-174.96-6.93,.94-13.03,2.1-19.18,2.56-37.15,2.78-74.31,5.39-111.47,8.07-27.29,1.97-54.57,3.98-81.86,5.96-37.16,2.69-74.32,5.35-111.47,8.03-27.62,1.99-55.23,4.14-82.86,5.93-33.6,2.18-67.23,3.97-100.83,6.14-8.46,.55-16.88,1.91-26.92,3.09,19.11,147.22,38.19,294.16,57.34,441.71,13.77-1.39,26.76-2.88,39.78-3.97,33.15-2.77,66.32-5.39,99.48-8.01,34.16-2.7,68.32-5.31,102.48-8.02,24.29-1.93,48.57-4.03,72.87-5.95,34.49-2.73,68.98-5.47,103.48-8,29.6-2.17,59.22-4.13,88.85-5.99,6.49-.41,9.72-2.81,9.13-9.75-.92-10.85-1.22-21.76-2.19-32.6-3.18-35.4-6.5-70.78-9.89-106.15-.97-10.13-2.68-20.18-3.53-30.32-1.14-13.56-1.78-27.17-2.63-40.76,.92-.07,1.84-.14,2.76-.2,14.57,128.38,29.14,256.75,43.57,383.9-32.67,6.48-62.38,12.66-92.2,18.19-30.74,5.7-61.61,10.71-92.41,16.12-29.9,5.25-59.75,10.74-89.66,15.91-20.85,3.61-41.82,6.56-62.62,10.38-26.76,4.92-53.36,10.72-80.13,15.56-14.83,2.68-29.86,4.3-44.83,6.12-8.26,1-10.72,4.57-8.42,12.69,1.41,4.99,2.49,10.08,3.43,15.18,1.54,8.38,2.58,16.86,4.31,25.2,3.73,17.99,7.95,35.88,11.6,53.89,3.25,16.03,5.72,32.23,9.07,48.24,3.29,15.75,7.54,31.3,10.85,47.05,2.67,12.7,4.22,25.64,6.88,38.34,6.18,29.51,13.2,58.85,19,88.43,4.74,24.19,7.95,48.67,12.56,72.89,.62,3.26,5.71,8.38,8.28,8.12,14.81-1.45,29.5-4.27,45.49-6.82,14.29,123.54,28.45,245.96,42.68,369.05,166.61-16.59,333.07-33.17,500.7-49.86-12.94-135.88-25.7-269.87-38.41-403.38-21.26,2.24-43.02,4.52-64.77,6.81-.15-.6-.29-1.2-.44-1.8,4.08-1.46,8.16-2.93,11.92-4.27-24.55-135.49-49.06-270.74-73.76-407.07,2.18-.4,4.6-1.02,7.05-1.27,11.44-1.17,22.91-2.09,34.33-3.36,18.92-2.11,37.81-4.49,56.73-6.65,17.29-1.97,34.6-3.77,51.9-5.68,18.94-2.09,37.86-4.32,56.8-6.29,15.38-1.6,30.82-2.67,46.18-4.42,20.19-2.3,40.33-5.1,60.5-7.59,16.29-2.01,32.6-3.77,48.88-5.84,15.18-1.92,30.29-4.46,45.5-6.07,18.29-1.94,36.66-3.2,55.93-4.83Zm-407.34,957.56c-27.5,1.82-53.54,3.05-79.48,5.37-30.41,2.72-60.69,6.78-91.1,9.49-22.76,2.03-45.67,2.37-68.44,4.28-34.79,2.92-69.52,6.68-104.3,9.79-19.12,1.71-38.34,2.44-57.44,4.32-28.38,2.78-56.7,6.16-85.04,9.34-4.79,.54-12.44-.14-13.69,2.32-2.29,4.53-.85,10.97-.86,16.61,0,.94,.73,1.86,.82,2.82,1.68,16.35,3.57,32.67,4.87,49.05,1.14,14.34,1.15,28.77,2.47,43.09,2.22,24.2,5.24,48.33,7.56,72.52,.77,8.02-.13,16.2,.67,24.21,2.2,21.87,5.09,43.67,7.36,65.53,1.91,18.4,3.46,36.84,4.92,55.29,1.36,17.19,2.7,34.39,3.42,51.61,.39,9.18,8.94,15.61,18.18,14.07,18.66-3.1,37.44-5.57,56.23-7.75,15.02-1.74,30.12-2.8,45.21-3.88,5.79-.42,11.64-.07,17.02-.07,16.58,122.11,32.95,242.68,49.49,364.54,162.59-17.82,324.02-35.52,486.77-53.36-14.01-130.06-27.88-258.92-41.78-387.96-45.76,6.57-89.65,12.86-134.44,19.29-9.46-123.32-18.88-245.93-28.44-370.52Zm688.91-330.49c-15,0-28.99-.88-42.83,.19-24.88,1.92-49.65,5.14-74.49,7.55-11.33,1.1-22.75,1.27-34.08,2.38-16.64,1.64-33.21,3.93-49.85,5.62-20.36,2.08-40.75,3.93-61.14,5.68-18.38,1.58-36.79,2.85-55.18,4.37-15.74,1.31-31.46,2.88-47.2,4.14-4.72,.38-9.53-.34-14.23,.16-16.3,1.72-32.55,3.87-48.84,5.65-21.21,2.32-42.43,4.43-64.45,6.72,11.36,132.17,22.68,263.97,33.99,395.55,60.89-4.68,120.53-9.27,180.18-13.85-5.78,4.72-11.94,7.1-17.92,9.87-20.99,9.73-41.91,19.6-62.86,29.41-30.82,14.43-61.57,29.02-92.5,43.21-27.12,12.44-54.31,24.77-81.82,36.34-5.92,2.49-6.26,6.19-4.59,9.8,8.1,17.56,17.07,34.72,25.31,52.22,10.85,23.05,21.38,46.25,31.89,69.45,14.46,31.94,28.57,64.05,43.23,95.9,10.58,22.98,22.07,45.55,32.7,68.51,8.78,18.96,16.9,38.22,25.41,57.58,146.18-68.87,291.68-137.41,437.93-206.31-41.22-95.33-82.47-190.71-123.82-286.35,32.79-3.73,64.65-7.35,95.39-10.85,0-9.34,.68-17.55-.12-25.62-3.01-30.4-6.86-60.71-9.69-91.13-2.53-27.23-4.25-54.54-6.09-81.83-.99-14.67-1-29.41-2.26-44.05-2.26-26.19-5.5-52.31-7.65-78.51-1.94-23.72-2.98-47.52-4.44-71.81Zm-281.51-1325.09c-41.43-148.29-82.69-295.96-124.12-444.23-172.13,53.63-342.52,106.73-514.11,160.19,46.57,149.28,92.46,296.38,138.54,444.11,166.61-53.37,331.71-106.26,499.69-160.07Zm167.2,1189.44c-17.02-107.14-33.92-213.56-50.8-319.88-5.27,0-8.69-.57-11.86,.1-10.97,2.31-21.75,5.72-32.8,7.49-20.32,3.25-40.84,5.28-61.18,8.47-31.35,4.92-62.63,10.35-93.92,15.66-30.28,5.13-60.52,10.54-90.83,15.51-19.07,3.13-38.24,5.67-57.36,8.51-13.94,2.07-27.9,3.98-41.78,6.4-4.53,.79-8.58,2.56-7.31,9.19,3.02,15.69,5.28,31.52,8.08,47.25,5.24,29.39,10.44,58.79,16.04,88.11,4.95,25.9,10.54,51.67,15.62,77.54,3.57,18.19,6.94,36.43,10.02,54.7,2.55,15.12,4.55,30.33,7.07,47.35,10.49-1.92,20.54-3.95,30.67-5.55,15.85-2.5,31.81-4.34,47.6-7.14,18.32-3.24,36.45-7.59,54.79-10.78,21.61-3.75,43.34-6.81,65.03-10.09,13.87-2.1,27.81-3.78,41.64-6.12,13.75-2.33,27.38-5.36,41.1-7.87,21.22-3.87,42.45-7.66,63.72-11.27,10.76-1.82,21.6-3.11,32.39-4.77,4.12-.63,8.19-1.62,14.06-2.81Z"/><path d="M1293.64,1211.64c-19.27,1.63-37.63,2.89-55.93,4.83-15.21,1.61-30.32,4.15-45.5,6.07-16.28,2.06-32.59,3.83-48.88,5.84-20.17,2.49-40.31,5.29-60.5,7.59-15.36,1.75-30.8,2.82-46.18,4.42-18.95,1.97-37.87,4.2-56.8,6.29-17.3,1.91-34.61,3.71-51.9,5.68-18.92,2.15-37.81,4.53-56.73,6.65-11.43,1.28-22.89,2.2-34.33,3.36-2.45,.25-4.87,.87-7.05,1.27,24.7,136.33,49.21,271.59,73.76,407.07-3.76,1.35-7.84,2.81-11.92,4.27,.15,.6,.29,1.2,.44,1.8,21.76-2.29,43.51-4.58,64.77-6.81,12.71,133.52,25.47,267.5,38.41,403.38-167.62,16.69-334.09,33.27-500.7,49.86-14.24-123.09-28.4-245.51-42.68-369.05-16,2.55-30.68,5.37-45.49,6.82-2.58,.25-7.66-4.86-8.28-8.12-4.61-24.22-7.82-48.7-12.56-72.89-5.8-29.58-12.82-58.92-19-88.43-2.66-12.7-4.21-25.64-6.88-38.34-3.31-15.75-7.55-31.3-10.85-47.05-3.35-16.01-5.81-32.21-9.07-48.24-3.65-18.01-7.87-35.89-11.6-53.89-1.73-8.34-2.77-16.82-4.31-25.2-.94-5.1-2.02-10.2-3.43-15.18-2.3-8.12,.16-11.69,8.42-12.69,14.97-1.82,30-3.44,44.83-6.12,26.77-4.84,53.37-10.64,80.13-15.56,20.81-3.83,41.78-6.77,62.62-10.38,29.91-5.18,59.76-10.66,89.66-15.91,30.8-5.41,61.67-10.42,92.41-16.12,29.82-5.53,59.52-11.71,92.2-18.19-14.43-127.15-29-255.52-43.57-383.9-.92,.07-1.84,.14-2.76,.2,.85,13.59,1.49,27.19,2.63,40.76,.85,10.13,2.56,20.19,3.53,30.32,3.39,35.38,6.71,70.76,9.89,106.15,.98,10.85,1.27,21.75,2.19,32.6,.59,6.94-2.63,9.34-9.13,9.75-29.62,1.85-59.24,3.82-88.85,5.99-34.5,2.53-68.99,5.27-103.48,8-24.29,1.92-48.57,4.02-72.87,5.95-34.16,2.71-68.32,5.32-102.48,8.02-33.16,2.63-66.33,5.24-99.48,8.01-13.02,1.09-26.02,2.58-39.78,3.97-19.15-147.55-38.23-294.49-57.34-441.71,10.05-1.18,18.46-2.54,26.92-3.09,33.6-2.17,67.23-3.96,100.83-6.14,27.63-1.79,55.24-3.95,82.86-5.93,37.16-2.68,74.32-5.34,111.47-8.03,27.29-1.97,54.57-3.98,81.86-5.96,37.16-2.68,74.32-5.29,111.47-8.07,6.15-.46,12.25-1.61,19.18-2.56,5.27,59.11,10.44,117.06,15.61,174.96,35.63-3.5,71.26-6.77,106.82-10.57,33.95-3.64,67.82-8.08,101.77-11.72,22.91-2.46,45.92-3.85,68.84-6.25,28.08-2.95,56.08-6.64,84.15-9.67,21.92-2.36,43.92-3.97,65.84-6.3,21.87-2.32,43.68-5.16,65.52-7.67,6.52-.75,13.08-1.51,19.62-1.47,1.32,0,3.6,3.48,3.79,5.52,2.24,23.26,3.89,46.58,6.25,69.83,2.99,29.42,6.62,58.77,9.71,88.18,1.68,16.05,2.61,32.18,4.24,48.24,2.39,23.53,5.19,47.02,7.65,70.55,2.22,21.25,4.14,42.52,6.31,63.77,1.1,10.75,3.14,21.45,3.55,32.22,.61,16.02,.16,32.08,.16,49.03Z"/><path d="M886.29,2169.21c9.56,124.59,18.97,247.2,28.44,370.52,44.78-6.43,88.67-12.72,134.44-19.29,13.9,129.04,27.77,257.9,41.78,387.96-162.75,17.84-324.19,35.54-486.77,53.36-16.54-121.86-32.91-242.43-49.49-364.54-5.38,0-11.23-.35-17.02,.07-15.09,1.08-30.19,2.14-45.21,3.88-18.79,2.18-37.57,4.65-56.23,7.75-9.24,1.53-17.79-4.89-18.18-14.07-.72-17.22-2.06-34.42-3.42-51.61-1.46-18.44-3.01-36.88-4.92-55.29-2.27-21.86-5.16-43.66-7.36-65.53-.81-8.01,.1-16.19-.67-24.21-2.32-24.19-5.34-48.32-7.56-72.52-1.31-14.32-1.33-28.75-2.47-43.09-1.3-16.38-3.19-32.71-4.87-49.05-.1-.96-.83-1.88-.82-2.82,0-5.64-1.43-12.09,.86-16.61,1.25-2.46,8.9-1.78,13.69-2.32,28.34-3.18,56.66-6.56,85.04-9.34,19.11-1.87,38.32-2.6,57.44-4.32,34.78-3.11,69.5-6.88,104.3-9.79,22.77-1.91,45.68-2.25,68.44-4.28,30.41-2.71,60.69-6.77,91.1-9.49,25.94-2.32,51.97-3.56,79.48-5.37Z"/><path d="M1575.21,1838.72c1.47,24.29,2.5,48.08,4.44,71.81,2.15,26.2,5.39,52.31,7.65,78.51,1.26,14.64,1.28,29.38,2.26,44.05,1.83,27.29,3.55,54.6,6.09,81.83,2.83,30.41,6.68,60.73,9.69,91.13,.8,8.07,.12,16.28,.12,25.62-30.75,3.5-62.6,7.12-95.39,10.85,41.35,95.63,82.6,191.01,123.82,286.35-146.25,68.9-291.75,137.45-437.93,206.31-8.51-19.36-16.63-38.62-25.41-57.58-10.63-22.96-22.12-45.53-32.7-68.51-14.66-31.85-28.77-63.96-43.23-95.9-10.51-23.21-21.04-46.4-31.89-69.45-8.24-17.5-17.21-34.66-25.31-52.22-1.66-3.61-1.33-7.31,4.59-9.8,27.5-11.57,54.69-23.89,81.82-36.34,30.93-14.19,61.68-28.78,92.5-43.21,20.95-9.81,41.87-19.68,62.86-29.41,5.98-2.77,12.14-5.16,17.92-9.87-59.65,4.59-119.29,9.17-180.18,13.85-11.31-131.57-22.63-263.37-33.99-395.55,22.01-2.28,43.24-4.4,64.45-6.72,16.29-1.78,32.54-3.93,48.84-5.65,4.7-.5,9.51,.22,14.23-.16,15.74-1.25,31.46-2.83,47.2-4.14,18.39-1.53,36.8-2.79,55.18-4.37,20.39-1.76,40.78-3.61,61.14-5.68,16.63-1.7,33.21-3.98,49.85-5.62,11.33-1.12,22.75-1.28,34.08-2.38,24.84-2.41,49.62-5.63,74.49-7.55,13.84-1.07,27.83-.19,42.83-.19Z"/><path d="M1293.7,513.64c-167.98,53.81-333.08,106.7-499.69,160.07-46.08-147.73-91.97-294.83-138.54-444.11,171.59-53.47,341.98-106.56,514.11-160.19,41.43,148.28,82.69,295.94,124.12,444.23Z"/><path d="M1460.9,1703.08c-5.87,1.19-9.94,2.17-14.06,2.81-10.79,1.66-21.63,2.94-32.39,4.77-21.26,3.61-42.5,7.4-63.72,11.27-13.72,2.5-27.35,5.54-41.1,7.87-13.83,2.34-27.77,4.03-41.64,6.12-21.69,3.28-43.42,6.34-65.03,10.09-18.33,3.18-36.46,7.53-54.79,10.78-15.79,2.8-31.75,4.64-47.6,7.14-10.12,1.6-20.18,3.64-30.67,5.55-2.52-17.02-4.52-32.23-7.07-47.35-3.08-18.28-6.45-36.51-10.02-54.7-5.07-25.87-10.67-51.64-15.62-77.54-5.6-29.32-10.8-58.72-16.04-88.11-2.8-15.73-5.06-31.56-8.08-47.25-1.28-6.63,2.78-8.4,7.31-9.19,13.88-2.42,27.84-4.33,41.78-6.4,19.12-2.84,38.29-5.38,57.36-8.51,30.31-4.97,60.55-10.38,90.83-15.51,31.29-5.3,62.57-10.73,93.92-15.66,20.33-3.19,40.85-5.22,61.18-8.47,11.05-1.77,21.82-5.18,32.8-7.49,3.17-.67,6.59-.1,11.86-.1,16.89,106.32,33.79,212.74,50.8,319.88Z"/></svg>